<svg height="480pt" viewBox="-112 0 480 480" width="480pt" xmlns="http://www.w3.org/2000/svg"><path d="m8 0c-4.417969 0-8 3.582031-8 8v464c0 3.445312 2.203125 6.5 5.46875 7.589844 3.269531 1.089844 6.863281-.035156 8.929688-2.789063l113.601562-151.464843 113.601562 151.464843c1.507813 2.011719 3.878907 3.199219 6.398438 3.199219.859375-.003906 1.710938-.140625 2.527344-.40625 3.269531-1.089844 5.472656-4.148438 5.472656-7.59375v-464c0-4.417969-3.582031-8-8-8zm232 448-105.601562-140.800781c-1.507813-2.011719-3.878907-3.199219-6.398438-3.199219s-4.890625 1.1875-6.398438 3.199219l-105.601562 140.800781v-432h224zm0 0"/><path d="m72 184h32v32c0 13.253906 10.746094 24 24 24s24-10.746094 24-24v-32h32c13.253906 0 24-10.746094 24-24s-10.746094-24-24-24h-32v-32c0-13.253906-10.746094-24-24-24s-24 10.746094-24 24v32h-32c-13.253906 0-24 10.746094-24 24s10.746094 24 24 24zm0-32h40c4.417969 0 8-3.582031 8-8v-40c0-4.417969 3.582031-8 8-8s8 3.582031 8 8v40c0 4.417969 3.582031 8 8 8h40c4.417969 0 8 3.582031 8 8s-3.582031 8-8 8h-40c-4.417969 0-8 3.582031-8 8v40c0 4.417969-3.582031 8-8 8s-8-3.582031-8-8v-40c0-4.417969-3.582031-8-8-8h-40c-4.417969 0-8-3.582031-8-8s3.582031-8 8-8zm0 0"/></svg>