<svg height="464pt" viewBox="-24 0 464 464" width="464pt" xmlns="http://www.w3.org/2000/svg"><path d="m0 0h368v464h-368zm0 0" fill="#d8ccbd"/><path d="m0 0h64v464h-64zm0 0" fill="#ac8168"/><path d="m40 64c0 4.417969-3.582031 8-8 8s-8-3.582031-8-8 3.582031-8 8-8 8 3.582031 8 8zm0 0"/><path d="m40 176c0 4.417969-3.582031 8-8 8s-8-3.582031-8-8 3.582031-8 8-8 8 3.582031 8 8zm0 0"/><path d="m40 288c0 4.417969-3.582031 8-8 8s-8-3.582031-8-8 3.582031-8 8-8 8 3.582031 8 8zm0 0"/><path d="m40 400c0 4.417969-3.582031 8-8 8s-8-3.582031-8-8 3.582031-8 8-8 8 3.582031 8 8zm0 0"/><path d="m288 176-40-50.289062-40 50.289062v-176h80zm0 0" fill="#ff5b42"/><path d="m368 64h48v48h-48zm0 0" fill="#92aeba"/><path d="m368 112h48v48h-48zm0 0" fill="#ac8168"/><path d="m368 160h48v48h-48zm0 0" fill="#92aeba"/><path d="m368 208h48v48h-48zm0 0" fill="#ac8168"/></svg>