<svg id="Flat" height="512" viewBox="0 0 512 512" width="512" xmlns="http://www.w3.org/2000/svg"><path d="m116.507 404.5a8 8 0 0 1 -3.738-15.078 23.761 23.761 0 0 0 10-32.089l-2.485-4.406a8 8 0 0 1 13.94-7.856l2.536 4.5.1.176a39.76 39.76 0 0 1 -16.621 53.829 7.968 7.968 0 0 1 -3.732.924z" fill="#960e35"/><path d="m127.993 453.645a15.993 15.993 0 0 1 -21.595-6.636l-42.398-81.009 24-24 46.641 90.092a15.93 15.93 0 0 1 -6.648 21.553z" fill="#eb423f"/><path d="m488 142-23.796 24.113 5.081 33.499-33.442 5.502-15.554 30.113-30.289-15.227-30.29 15.227-15.554-30.113-33.441-5.502 5.081-33.499-23.796-24.113 23.796-24.113-5.081-33.499 33.442-5.502 15.554-30.113 30.289 15.227 30.29-15.227 15.554 30.113 33.441 5.502-5.081 33.499z" fill="#f7b030"/><path d="m262.975 236.125a8 8 0 0 1 -3.749-15.072l21.212-11.225a8 8 0 1 1 7.485 14.141l-21.213 11.231a7.97 7.97 0 0 1 -3.735.925z" fill="#1261a0"/><path d="m310.384 274.4a8.081 8.081 0 0 1 -.819-.042l-28.7-2.916a8 8 0 0 1 1.617-15.918l28.7 2.917a8 8 0 0 1 -.8 15.959z" fill="#1261a0"/><path d="m244.252 200.771a8 8 0 0 1 -7.028-11.81l13.729-25.367a8 8 0 1 1 14.07 7.616l-13.729 25.367a8 8 0 0 1 -7.042 4.194z" fill="#1261a0"/><g fill="#960e35"><path d="m358 179a8 8 0 0 1 -5.657-13.657l64-64a8 8 0 0 1 11.314 11.314l-64 64a7.974 7.974 0 0 1 -5.657 2.343z"/><circle cx="358" cy="115" r="8"/><circle cx="422" cy="163" r="8"/></g><path d="m240 318-136 40-40-72 112-88z" fill="#f7b030"/><path d="m104 358-21.466 10.378a39.439 39.439 0 0 1 -53.434-16.532 39.825 39.825 0 0 1 16.452-53.7l18.448-12.146z" fill="#eb423f"/><path d="m257.062 321.641a15.781 15.781 0 0 1 -21.42-6.652l-59.3-113.025a16.054 16.054 0 0 1 6.594-21.6 15.781 15.781 0 0 1 21.42 6.652l59.3 113.025a16.054 16.054 0 0 1 -6.594 21.6z" fill="#eb423f"/><circle cx="358" cy="115" fill="#960e35" r="8"/><circle cx="422" cy="163" fill="#960e35" r="8"/></svg>