<?xml version="1.0" encoding="UTF-8" standalone="no"?>
<!DOCTYPE svg PUBLIC "-//W3C//DTD SVG 1.1//EN" "http://www.w3.org/Graphics/SVG/1.1/DTD/svg11.dtd">
<svg version="1.1" xmlns="http://www.w3.org/2000/svg" xmlns:xlink="http://www.w3.org/1999/xlink" preserveAspectRatio="xMidYMid meet" viewBox="0 0 400 400" width="400" height="400"><defs><path d="M141.83 294.66C141.83 291.69 143.47 288.96 146.1 287.57C157.72 281.47 162.2 267.11 156.11 255.49C156.11 255.49 156.1 255.48 156.1 255.48C155.85 255.04 153.87 251.52 153.62 251.08C151.45 247.23 152.81 242.35 156.66 240.18C160.51 238.01 165.39 239.37 167.56 243.22C167.73 243.52 168.57 245.02 170.09 247.72C170.15 247.82 170.19 247.88 170.19 247.9C180.49 267.29 173.1 291.36 153.71 301.65C153.66 301.68 153.62 301.7 153.57 301.72C152.42 302.33 151.14 302.65 149.84 302.65C145.42 302.65 141.84 299.08 141.83 294.66Z" id="j4VktPegJg"></path><path d="M139.73 345.16C136.9 339.76 122.77 312.75 97.33 264.15L121.33 240.15C149.32 294.2 164.86 324.23 167.97 330.24C172.09 338.01 169.13 347.66 161.36 351.78C161.35 351.78 161.34 351.79 161.33 351.79C153.53 355.91 143.87 352.94 139.73 345.16Z" id="ckTm8xlsG"></path><path d="M288.3 126.28C288.3 123.31 289.94 120.59 292.56 119.2C294.68 118.08 311.65 109.1 313.77 107.98C317.67 105.89 322.51 107.35 324.6 111.25C326.69 115.14 325.22 119.99 321.33 122.08C321.31 122.09 321.28 122.1 321.26 122.12C319.14 123.24 302.16 132.23 300.04 133.35C298.89 133.96 297.61 134.27 296.31 134.27C291.89 134.28 288.3 130.7 288.3 126.28Z" id="bGqNRBuOy"></path><path d="M342.9 172.51C340.03 172.21 317.07 169.88 314.2 169.59C309.8 169.13 306.62 165.19 307.08 160.8C307.53 156.43 311.44 153.24 315.82 153.67C318.69 153.96 341.65 156.3 344.52 156.59C348.91 157.04 352.11 160.96 351.67 165.36C351.25 169.44 347.82 172.54 343.72 172.55C343.44 172.55 343.17 172.53 342.9 172.51Z" id="d5nUVt70B1"></path><path d="M269.59 90.91C269.59 89.58 269.92 88.28 270.56 87.11C271.93 84.57 282.91 64.28 284.29 61.74C286.35 57.83 291.18 56.33 295.09 58.39C299 60.45 300.5 65.29 298.44 69.2C298.41 69.25 298.39 69.31 298.36 69.36C296.98 71.89 286 92.19 284.63 94.73C283.23 97.31 280.52 98.92 277.59 98.92C273.17 98.92 269.59 95.33 269.59 90.91Z" id="dIGHrjqBV"></path><path d="M273.33 216.15L137.33 256.15L97.33 184.15L209.33 96.15L273.33 216.15Z" id="ciyyL7N2k"></path><path d="M137.33 256.15C124.45 262.37 117.3 265.83 115.87 266.53C96.63 276.74 72.75 269.43 62.54 250.19C62.5 250.13 62.47 250.06 62.43 249.99C52.21 230.62 59.56 206.62 78.89 196.29C80.12 195.48 86.26 191.44 97.33 184.15L137.33 256.15Z" id="aaSVMSTy6o"></path><path d="M269.05 213.28C269.02 213.23 269 213.18 268.98 213.14C263.05 201.83 215.61 111.41 209.68 100.11C205.58 92.32 208.52 82.69 216.27 78.51C223.96 74.42 233.52 77.33 237.62 85.02C237.64 85.07 237.67 85.12 237.69 85.16C243.62 96.47 291.06 186.89 296.99 198.19C301.08 205.98 298.14 215.61 290.4 219.79C282.7 223.89 273.15 220.97 269.05 213.28Z" id="a1mswLcQRy"></path></defs><g><g><g><use xlink:href="#j4VktPegJg" opacity="1" fill="#960e35" fill-opacity="1"></use><g><use xlink:href="#j4VktPegJg" opacity="1" fill-opacity="0" stroke="#000000" stroke-width="1" stroke-opacity="0"></use></g></g><g><use xlink:href="#ckTm8xlsG" opacity="1" fill="#eb423f" fill-opacity="1"></use><g><use xlink:href="#ckTm8xlsG" opacity="1" fill-opacity="0" stroke="#000000" stroke-width="1" stroke-opacity="0"></use></g></g><g><use xlink:href="#bGqNRBuOy" opacity="1" fill="#1261a0" fill-opacity="1"></use><g><use xlink:href="#bGqNRBuOy" opacity="1" fill-opacity="0" stroke="#000000" stroke-width="1" stroke-opacity="0"></use></g></g><g><use xlink:href="#d5nUVt70B1" opacity="1" fill="#1261a0" fill-opacity="1"></use><g><use xlink:href="#d5nUVt70B1" opacity="1" fill-opacity="0" stroke="#000000" stroke-width="1" stroke-opacity="0"></use></g></g><g><use xlink:href="#dIGHrjqBV" opacity="1" fill="#1261a0" fill-opacity="1"></use><g><use xlink:href="#dIGHrjqBV" opacity="1" fill-opacity="0" stroke="#000000" stroke-width="1" stroke-opacity="0"></use></g></g><g><use xlink:href="#ciyyL7N2k" opacity="1" fill="#f7b030" fill-opacity="1"></use><g><use xlink:href="#ciyyL7N2k" opacity="1" fill-opacity="0" stroke="#000000" stroke-width="1" stroke-opacity="0"></use></g></g><g><use xlink:href="#aaSVMSTy6o" opacity="1" fill="#eb423f" fill-opacity="1"></use><g><use xlink:href="#aaSVMSTy6o" opacity="1" fill-opacity="0" stroke="#000000" stroke-width="1" stroke-opacity="0"></use></g></g><g><use xlink:href="#a1mswLcQRy" opacity="1" fill="#eb423f" fill-opacity="1"></use><g><use xlink:href="#a1mswLcQRy" opacity="1" fill-opacity="0" stroke="#000000" stroke-width="1" stroke-opacity="0"></use></g></g></g></g></svg>