<svg id="Flat" height="512" viewBox="0 0 512 512" width="512" xmlns="http://www.w3.org/2000/svg"><path d="m472 488h-160v-96a48 48 0 0 1 48-48h80a48 48 0 0 1 48 48z" fill="#ffd33a"/><path d="m440 344a48 48 0 0 0 -48 48h-80a48 48 0 0 1 48-48z" fill="#bd620e"/><path d="m408 488h-96v-96h80z" fill="#f7b030"/><path d="m64 184h224v128h-224z" fill="#5e3725"/><path d="m56 312h240a32 32 0 0 1 32 32v144a0 0 0 0 1 0 0h-304a0 0 0 0 1 0 0v-144a32 32 0 0 1 32-32z" fill="#e9eef2"/><path d="m328 344v144h-176v-176h144a32 32 0 0 1 32 32z" fill="#e9eef2"/><circle cx="280" cy="216" fill="#f0c6a4" r="32"/><circle cx="72" cy="216" fill="#f0c6a4" r="32"/><rect fill="#f7cca9" height="240" rx="104" width="208" x="72" y="72"/><g fill="#452d23"><circle cx="216" cy="216" r="8"/><circle cx="136" cy="216" r="8"/><path d="m184 240h-16a8 8 0 0 1 -8-8v-16a8 8 0 0 1 16 0v8h8a8 8 0 0 1 0 16z"/><path d="m176 280c-34.932 0-46.893-27.742-47.385-28.923a8 8 0 0 1 14.749-6.2c.388.888 8.68 19.126 32.636 19.126 24.385 0 32.536-18.886 32.615-19.077a8 8 0 1 1 14.77 6.154c-.492 1.178-12.453 28.92-47.385 28.92z"/></g><path d="m248 48a39.937 39.937 0 0 0 -32 16 40 40 0 0 0 -80 0 40 40 0 0 0 -72 24v80h224v-80a40 40 0 0 0 -40-40z" fill="#e9eef2"/><path d="m64 152h224v32h-224z" fill="#d0d2d4"/><path d="m216 160a8 8 0 0 1 -8-8v-40a8 8 0 0 1 16 0v40a8 8 0 0 1 -8 8z" fill="#d0d2d4"/><path d="m136 160a8 8 0 0 1 -8-8v-40a8 8 0 0 1 16 0v40a8 8 0 0 1 -8 8z" fill="#d0d2d4"/><path d="m352 432-8 56h-112l-8-56z" fill="#eb423f"/><path d="m248 424h16v64h-16z" fill="#ffd33a"/><path d="m280 424h16v64h-16z" fill="#ffd33a"/><path d="m312 424h16v64h-16z" fill="#ffd33a"/><path d="m200 312h32v32h-32z" fill="#b6b9ba"/><path d="m120 312h32v32h-32z" fill="#b6b9ba"/><circle cx="184" cy="392" fill="#b6b9ba" r="8"/><circle cx="184" cy="440" fill="#b6b9ba" r="8"/><path d="m152 312h48v32h-48z" fill="#d0d2d4"/><path d="m352 432a16 16 0 1 1 -32 0 16 16 0 0 1 -32 0 16 16 0 0 1 -32 0 16 16 0 1 1 -23.96-13.88c-.03-.7-.04-1.41-.04-2.12a56 56 0 0 1 112 0c0 .71-.01 1.42-.04 2.12a15.976 15.976 0 0 1 8.04 13.88z" fill="#95573a"/><circle cx="288" cy="360" fill="#eb423f" r="16"/><path d="m136 344h16v144h-16z" fill="#d0d2d4"/></svg>