<svg id="Flat" height="512" viewBox="0 0 512 512" width="512" xmlns="http://www.w3.org/2000/svg"><path d="m248 360h-40v-112h48z" fill="#ce3536"/><path d="m208 360h-40l-8-112h48z" fill="#fcb442"/><path d="m168 360h-40l-16-112h48z" fill="#ce3536"/><path d="m288 360h-40l8-112h48z" fill="#fcb442"/><path d="m98.989 136a8 8 0 0 1 -4.313-14.744l3.8-2.424c3.326-2.123 5.282-5.093 5.506-8.362a10.093 10.093 0 0 0 -3.917-8.379l-2.5-2.122a25.625 25.625 0 0 1 0-39.939l2.5-2.124a8 8 0 0 1 10.37 12.186l-2.494 2.123a9.663 9.663 0 0 0 0 15.569l2.494 2.122a26.044 26.044 0 0 1 9.509 21.659c-.571 8.337-5.258 15.9-12.858 20.753l-3.8 2.424a7.961 7.961 0 0 1 -4.297 1.258z" fill="#c2c5c6"/><path d="m306.989 136a8 8 0 0 1 -4.313-14.744l3.8-2.424c3.326-2.123 5.282-5.093 5.506-8.362a10.093 10.093 0 0 0 -3.917-8.379l-2.5-2.122a25.625 25.625 0 0 1 0-39.939l2.5-2.124a8 8 0 0 1 10.37 12.186l-2.494 2.123a9.663 9.663 0 0 0 0 15.569l2.494 2.122a26.044 26.044 0 0 1 9.509 21.659c-.571 8.337-5.258 15.9-12.858 20.753l-3.8 2.424a7.961 7.961 0 0 1 -4.297 1.258z" fill="#c2c5c6"/><path d="m202.989 104a8 8 0 0 1 -4.313-14.744l3.8-2.424c3.326-2.123 5.282-5.093 5.506-8.362a10.093 10.093 0 0 0 -3.917-8.379l-2.5-2.122a25.625 25.625 0 0 1 0-39.939l2.5-2.124a8 8 0 0 1 10.37 12.186l-2.494 2.123a10.293 10.293 0 0 0 -3.941 7.785 10.3 10.3 0 0 0 3.938 7.785l2.494 2.122a26.044 26.044 0 0 1 9.509 21.659c-.571 8.337-5.258 15.9-12.858 20.753l-3.8 2.424a7.961 7.961 0 0 1 -4.294 1.257z" fill="#c2c5c6"/><path d="m376 408h-336l-16-48h368z" fill="#c2c5c6"/><path d="m304 168a55.769 55.769 0 0 0 -24.083 5.434c-1.726-29.734-33.259-53.434-71.917-53.434s-70.191 23.7-71.917 53.434a56.006 56.006 0 1 0 3.25 99.439c9.204 22.681 36.467 39.127 68.667 39.127s59.463-16.446 68.667-39.127a56 56 0 1 0 27.333-104.873z" fill="#c2856c"/><g fill="#684436"><circle cx="192" cy="272" r="8"/><circle cx="112" cy="224" r="8"/><circle cx="304" cy="224" r="8"/><circle cx="224" cy="160" r="8"/><circle cx="240" cy="232" r="8"/><circle cx="176" cy="200" r="8"/></g><path d="m464 360-56.569-53.823a32 32 0 0 0 -45.254 0 32 32 0 0 0 0 45.254l40.568 40.569h-106.745a48 48 0 0 0 -48 48 48 48 0 0 0 48 48h192v-104z" fill="#2b70a8"/></svg>