<svg id="Capa_1" enable-background="new 0 0 512 512" height="512" viewBox="0 0 512 512" width="512" xmlns="http://www.w3.org/2000/svg"><g><path d="m61 467c0 24.813 20.187 45 45 45h330c8.284 0 15-6.716 15-15v-422c0-8.284-6.716-15-15-15h-15v-30h15c8.284 0 15-6.716 15-15s-6.716-15-15-15h-330c-24.813 0-45 20.187-45 45zm45-437h285v30h-285c-8.271 0-15-6.729-15-15s6.729-15 15-15zm-15 57.43c4.693 1.664 9.743 2.57 15 2.57h315v392h-315c-8.271 0-15-6.729-15-15z"/><path d="m181 332v75c0 8.284 6.716 15 15 15h120c8.284 0 15-6.716 15-15v-75c33.084 0 60-26.916 60-60 0-33.961-28.232-60.901-61.503-59.979-6.961-34.201-37.27-60.021-73.497-60.021s-66.536 25.82-73.497 60.021c-33.28-.923-61.503 26.026-61.503 59.979 0 33.084 26.916 60 60 60zm30 60v-30h90v30zm-19.833-148.057c10.052 3.65 20.603-4.116 20.104-14.798-1.259-27.233 20.311-47.145 44.729-47.145 24.313 0 45.992 19.821 44.729 47.145-.499 10.667 10.036 18.454 20.104 14.798 20.426-7.417 40.167 8.068 40.167 28.057 0 19.798-19.463 35.405-39.976 28.113-9.744-3.465-20.024 3.767-20.024 14.133v17.754h-90v-17.754c0-10.344-10.257-17.605-20.024-14.134-20.477 7.28-39.976-8.277-39.976-28.112 0-19.972 19.725-35.48 40.167-28.057z"/></g></svg>