<svg height="464pt" viewBox="0 0 464 464" width="464pt" xmlns="http://www.w3.org/2000/svg"><path d="m264 304v-24h-64v24c-8.835938 0-16 7.164062-16 16s7.164062 16 16 16v24h64v-24c8.835938 0 16-7.164062 16-16s-7.164062-16-16-16zm0 0" fill="#ffa754"/><path d="m464 464h-104v-96h104l-32 48zm0 0" fill="#a5181d"/><path d="m0 464h104v-96h-104l32 48zm0 0" fill="#a5181d"/><path d="m88 336h288v96h-288zm0 0" fill="#dc2027"/><path d="m96 224c-35.347656 0-64-28.652344-64-64v-96h160v-32h-192v128c0 53.019531 42.980469 96 96 96h96v-32zm0 0" fill="#ffa754"/><path d="m368 224c35.347656 0 64-28.652344 64-64v-96h-160v-32h192v128c0 53.019531-42.980469 96-96 96h-96v-32zm0 0" fill="#ffa754"/><path d="m88 0h288v160c0 79.527344-64.472656 144-144 144s-144-64.472656-144-144zm0 0" fill="#fdd020"/><path d="m271.550781 192-39.550781-21.863281-39.550781 21.863281 7.550781-46.3125-32-32.800781 44.222656-6.75 19.777344-42.136719 19.777344 42.136719 44.222656 6.75-32 32.800781zm0 0" fill="#dc2027"/></svg>