<svg id="Flat" height="512" viewBox="0 0 512 512" width="512" xmlns="http://www.w3.org/2000/svg"><path d="m456 408c-20.012.293-62.547-53.8-72-80 0 112.683-156.759 146.987-224.942 156.578a32 32 0 0 1 -36.033-26.427l-3.025-18.151c-40-56-24-160-24-160l16-176h64v112c0 32 32 120 32 120 8-64 72-72 72-72 16-136 112-128 112-128 0-56 64-48 64-48z" fill="#f5cbaa"/><circle cx="144" cy="112" fill="#606669" r="88"/><circle cx="144" cy="112" fill="#757c80" r="48"/><circle cx="144" cy="112" fill="#99a2a7" r="16"/><g fill="#deb89a"><path d="m191.992 400a8 8 0 0 1 -6.648-12.439c14.488-21.732 14.656-51.261 14.656-51.561a8 8 0 0 1 16 0c0 1.4-.2 34.718-17.344 60.438a7.992 7.992 0 0 1 -6.664 3.562z"/><path d="m384 336a8 8 0 0 1 -7.686-5.8c-4.122-14.348-19.746-52.816-42.25-58.442a8 8 0 0 1 3.88-15.522c36.068 9.017 53.047 67.1 53.752 69.563a8.007 8.007 0 0 1 -7.696 10.201z"/></g></svg>