<svg width="37.00000000000001" height="37.00000000000001" xmlns="http://www.w3.org/2000/svg">
 <!-- Created with Method Draw - http://github.com/duopixel/Method-Draw/ -->

 <g>
  <title>background</title>
  <rect fill="#fff" id="canvas_background" height="39" width="39" y="-1" x="-1"/>
  <g display="none" overflow="visible" y="0" x="0" height="100%" width="100%" id="canvasGrid">
   <rect fill="url(#gridpattern)" stroke-width="0" y="1" x="1" height="400" width="580"/>
  </g>
 </g>
 <g>
  <title>Layer 1</title>
  <g id="svg_16">
   <path id="svg_5" fill="#ffc70d" d="m33.691376,21.475481c0,8.689371 -7.044135,12.478298 -15.733506,12.478298s-15.733506,-3.788927 -15.733506,-12.478298s7.044135,-18.988714 15.733506,-18.988714s15.733506,10.299343 15.733506,18.988714z"/>
   <g transform="matrix(0.06781683510376357,0,0,0.06781683510376357,0,0) " id="svg_6" fill="#f89f00">
    <path id="svg_7" d="m264.799583,468.668916c-122.746,0 -223.161,-51.321 -231.389,-168.276c-0.361,5.455 -0.611,10.892 -0.611,16.276c0,128.13 103.87,184 232,184s232,-55.87 232,-184c0,-5.384 -0.25,-10.821 -0.611,-16.276c-8.228,116.955 -108.643,168.276 -231.389,168.276z"/>
    <path id="svg_8" d="m264.799583,468.668916c-122.746,0 -223.161,-51.321 -231.389,-168.276c-0.361,5.455 -0.611,10.892 -0.611,16.276c0,128.13 103.87,184 232,184s232,-55.87 232,-184c0,-5.384 -0.25,-10.821 -0.611,-16.276c-8.228,116.955 -108.643,168.276 -231.389,168.276z"/>
    <path id="svg_9" d="m264.799583,468.668916c-122.746,0 -223.161,-51.321 -231.389,-168.276c-0.361,5.455 -0.611,10.892 -0.611,16.276c0,128.13 103.87,184 232,184s232,-55.87 232,-184c0,-5.384 -0.25,-10.821 -0.611,-16.276c-8.228,116.955 -108.643,168.276 -231.389,168.276z"/>
   </g>
   <path stroke="null" id="svg_10" fill="#e42e3d" d="m15.417431,8.118962c-1.565001,0 -2.833608,1.218451 -2.833608,2.720263c0,-1.501812 -1.268606,-2.720263 -2.833608,-2.720263s-2.833608,1.218451 -2.833608,2.720263s4.102214,6.347281 5.667215,6.347281s5.667215,-4.845469 5.667215,-6.347281s-1.268606,-2.720263 -2.833608,-2.720263z"/>
   <path stroke="null" id="svg_11" fill="#e42e3d" d="m26.790525,8.20987c-1.470859,0 -2.663153,1.145156 -2.663153,2.556627c0,-1.411471 -1.192294,-2.556627 -2.663153,-2.556627s-2.663153,1.145156 -2.663153,2.556627s3.855447,5.965463 5.326306,5.965463s5.326306,-4.553992 5.326306,-5.965463s-1.192294,-2.556627 -2.663153,-2.556627z"/>
   <path id="svg_12" fill="#b46d2f" d="m17.95787,20.390412a3.802015,3.802015 0 0 1 -3.797743,-3.797743a0.542535,0.542535 0 0 1 1.085069,0a2.712673,2.712673 0 0 0 5.425347,0a0.542535,0.542535 0 0 1 1.085069,0a3.802015,3.802015 0 0 1 -3.797743,3.797743z"/>
   <ellipse transform="matrix(0.06781683510376357,0,0,0.06781683510376357,0,0) " id="svg_13" ry="16" rx="24" fill="#f597a4" cy="244.668877" cx="120.799592"/>
   <ellipse transform="matrix(0.06781683510376357,0,0,0.06781683510376357,0,0) " id="svg_14" ry="16" rx="24" fill="#f597a4" cy="244.668877" cx="408.799592"/>
  </g>
 </g>
</svg>