<svg id="Flat" height="512" viewBox="0 0 512 512" width="512" xmlns="http://www.w3.org/2000/svg"><path d="m24 40h336v368h-336z" fill="#fae8d8" transform="matrix(-1 0 0 -1 384 448)"/><path d="m136 24h112a32 32 0 0 1 32 32v16a0 0 0 0 1 0 0h-176a0 0 0 0 1 0 0v-16a32 32 0 0 1 32-32z" fill="#7e8488" transform="matrix(-1 0 0 -1 384 96)"/><path d="m328 304s0-48-64-48c0 0-8 48 64 48z" fill="#b0bb74"/><path d="m328 345.219a8 8 0 0 1 -8-8v-49.219a8 8 0 0 1 16 0v49.219a8 8 0 0 1 -8 8z" fill="#818a55"/><path d="m240 381.751c0 75.429 48 122.249 88 98.249 40 24 88-22.82 88-98.249 0-88-88-45.751-88-45.751s-88-42.249-88 45.751z" fill="#e74444"/><path d="m440 272a8 8 0 0 1 -8-8v-96a8 8 0 0 1 16 0v96a8 8 0 0 1 -8 8z" fill="#818a55"/><path d="m485.72 282.13-11.73 176a32 32 0 0 1 -31.93 29.87h-4.12a32 32 0 0 1 -31.93-29.87l-3.87-58.13-1.07-15.98-2.13-32.02-1.07-15.98-2.13-32.02-1.07-15.98-.39-5.89a31.989 31.989 0 0 1 31.92-34.13h27.6a31.989 31.989 0 0 1 31.92 34.13z" fill="#fc8d36"/><path d="m480 176a40 40 0 1 1 -69.33-27.18 32 32 0 1 1 58.66 0 39.831 39.831 0 0 1 10.67 27.18z" fill="#b0bb74"/><path d="m88 176a40 40 0 1 1 40-40 40.045 40.045 0 0 1 -40 40zm0-64a24 24 0 1 0 24 24 24.028 24.028 0 0 0 -24-24z" fill="#d8c8b9"/><path d="m88 272a40 40 0 1 1 40-40 40.045 40.045 0 0 1 -40 40zm0-64a24 24 0 1 0 24 24 24.028 24.028 0 0 0 -24-24z" fill="#d8c8b9"/><path d="m88 368a40 40 0 1 1 40-40 40.045 40.045 0 0 1 -40 40zm0-64a24 24 0 1 0 24 24 24.028 24.028 0 0 0 -24-24z" fill="#d8c8b9"/><path d="m441.31 296a8 8 0 0 1 -8 8h-37.57l-1.07-15.98c.17-.01.35-.02.53-.02h38.11a8 8 0 0 1 8 8z" fill="#ba621e"/><path d="m441.31 344a8 8 0 0 1 -8 8h-34.37l-1.07-15.98c.17-.01.35-.02.53-.02h34.91a8 8 0 0 1 8 8z" fill="#ba621e"/><path d="m443.8 392a8 8 0 0 1 -8 8h-33.66l-1.07-15.98c.17-.01.35-.02.53-.02h34.2a8 8 0 0 1 8 8z" fill="#ba621e"/><g fill="#d8c8b9"><path d="m312 128h-160a8 8 0 0 1 0-16h160a8 8 0 0 1 0 16z"/><path d="m312 224h-160a8 8 0 0 1 0-16h160a8 8 0 0 1 0 16z"/><path d="m232 256h-80a8 8 0 0 1 0-16h80a8 8 0 0 1 0 16z"/><path d="m232 320h-80a8 8 0 0 1 0-16h80a8 8 0 0 1 0 16z"/><path d="m216 352h-64a8 8 0 0 1 0-16h64a8 8 0 0 1 0 16z"/><path d="m232 160h-80a8 8 0 0 1 0-16h80a8 8 0 0 1 0 16z"/></g><path d="m88.005 144a8 8 0 0 1 -5-14.247l40-32a8 8 0 0 1 10 12.494l-40 32a7.969 7.969 0 0 1 -5 1.753z" fill="#e74444"/><path d="m88.005 240a8 8 0 0 1 -5-14.247l40-32a8 8 0 0 1 10 12.494l-40 32a7.969 7.969 0 0 1 -5 1.753z" fill="#e74444"/><path d="m88.005 336a8 8 0 0 1 -5-14.247l40-32a8 8 0 0 1 10 12.494l-40 32a7.969 7.969 0 0 1 -5 1.753z" fill="#e74444"/></svg>