<svg height="464pt" viewBox="0 -16 464.00003 464" width="464pt" xmlns="http://www.w3.org/2000/svg"><path d="m464 120c.03125-57.871094-41.265625-107.511719-98.175781-118.007812-56.914063-10.5-113.203125 21.136718-133.824219 75.207031-20.621094-54.070313-76.910156-85.707031-133.824219-75.207031-56.910156 10.496093-98.207031 60.136718-98.175781 118.007812 0 136 165.726562 312 232 312s232-176 232-312zm0 0" fill="#fa507f"/><path d="m128 176c-4.417969 0-8-3.582031-8-8 0-22.398438 24.601562-40 56-40 4.417969 0 8 3.582031 8 8s-3.582031 8-8 8c-21.679688 0-40 10.992188-40 24 0 4.417969-3.582031 8-8 8zm0 0" fill="#603913"/><path d="m336 176c-4.417969 0-8-3.582031-8-8 0-13.007812-18.320312-24-40-24-4.417969 0-8-3.582031-8-8s3.582031-8 8-8c31.398438 0 56 17.601562 56 40 0 4.417969-3.582031 8-8 8zm0 0" fill="#603913"/><path d="m232 256c-38.710938-.085938-77.21875-5.597656-114.398438-16.375-4.210937-1.34375-6.535156-5.84375-5.195312-10.054688 1.34375-4.210937 5.847656-6.535156 10.058594-5.195312 35.625 10.195312 72.480468 15.449219 109.535156 15.625 37.074219-.167969 73.953125-5.425781 109.601562-15.625 4.210938-1.339844 8.710938.984375 10.054688 5.195312 1.34375 4.210938-.980469 8.710938-5.191406 10.054688-37.203125 10.785156-75.730469 16.296875-114.464844 16.375zm0 0" fill="#a21d1f"/><path d="m341.601562 224.375c-30.5 8.714844-61.914062 13.824219-93.601562 15.226562v80.398438c0 8.835938 7.164062 16 16 16s16-7.164062 16-16v-40c0-8.835938 7.164062-16 16-16s16 7.164062 16 16 7.164062 16 16 16 16-7.164062 16-16v-55.886719c-.808594-.035156-1.617188.054688-2.398438.261719zm0 0" fill="#3db4d4"/><path d="m232 256c-38.710938-.085938-77.21875-5.597656-114.398438-16.375-4.210937-1.34375-6.535156-5.84375-5.195312-10.054688 1.34375-4.210937 5.847656-6.535156 10.058594-5.195312 35.625 10.195312 72.480468 15.449219 109.535156 15.625 37.074219-.167969 73.953125-5.425781 109.601562-15.625 4.210938-1.339844 8.710938.984375 10.054688 5.195312 1.34375 4.210938-.980469 8.710938-5.191406 10.054688-37.203125 10.785156-75.730469 16.296875-114.464844 16.375zm0 0" fill="#a21d1f"/></svg>