<svg height="464pt" viewBox="0 -16 464.00003 464" width="464pt" xmlns="http://www.w3.org/2000/svg"><path d="m464 120c.03125-57.871094-41.265625-107.511719-98.175781-118.007812-56.914063-10.5-113.203125 21.136718-133.824219 75.207031-20.621094-54.070313-76.910156-85.707031-133.824219-75.207031-56.910156 10.496093-98.207031 60.136718-98.175781 118.007812 0 136 165.726562 312 232 312s232-176 232-312zm0 0" fill="#fa507f"/><path d="m168 152c0 13.253906-10.746094 24-24 24s-24-10.746094-24-24 10.746094-24 24-24 24 10.746094 24 24zm0 0" fill="#603913"/><path d="m344 152c0 13.253906-10.746094 24-24 24s-24-10.746094-24-24 10.746094-24 24-24 24 10.746094 24 24zm0 0" fill="#603913"/><path d="m344 232c0 53.015625-50.144531 96-112 96s-112-42.984375-112-96zm0 0" fill="#a21d1f"/><path d="m120 232c.039062 10.992188 2.253906 21.867188 6.511719 32h210.976562c4.257813-10.132812 6.472657-21.007812 6.511719-32zm0 0" fill="#d7cdbf"/></svg>