<svg height="464pt" viewBox="0 -16 464 464" width="464pt" xmlns="http://www.w3.org/2000/svg"><path d="m464 120.007812c0-66.199218-53.601562-119.9999995-119.898438-119.9999995-49.800781 0-94.402343 30.6992185-112.101562 77.1992185-23.601562-61.898437-92.898438-92.898437-154.800781-69.296875-46.5 17.699219-77.199219 62.296875-77.199219 112.097656 0 136 165.699219 312 232 312s232-176 232-312zm0 0" fill="#fa507f"/><path d="m168 160.007812c0 13.253907-10.746094 24-24 24s-24-10.746093-24-24c0-13.253906 10.746094-24 24-24s24 10.746094 24 24zm0 0" fill="#603913"/><path d="m344 160.007812c0 13.253907-10.746094 24-24 24s-24-10.746093-24-24c0-13.253906 10.746094-24 24-24s24 10.746094 24 24zm0 0" fill="#603913"/><path d="m288 240.007812c0 26.5-25.101562 48-56 48s-56-21.5-56-48zm0 0" fill="#a21d1f"/></svg>