<svg height="448pt" viewBox="0 -16 448.00002 448" width="448pt" xmlns="http://www.w3.org/2000/svg"><path d="m248 312.003906c0 4.417969 3.582031 8 8 8s8-3.582031 8-8v-40c0-13.253906 10.746094-24 24-24s24 10.746094 24 24c0 4.417969 3.582031 8 8 8s8-3.582031 8-8v-37.425781c-26.207031 6.722656-52.996094 10.949219-80 12.625zm0 0"/><path d="m336 .00390625c-46.351562.21484375-87.835938 28.81249975-104.527344 72.05468775-1.183594 3.097656-4.15625 5.140625-7.472656 5.140625s-6.289062-2.042969-7.472656-5.140625c-19.242188-50.46875-71.78125-80-124.898438-70.203125-53.117187 9.800781-91.660156 56.132812-91.628906 110.148437 0 131.65625 164 304 224 304s224-172.34375 224-304c-.066406-61.828125-50.171875-111.9335935-112-111.99999975zm-56 119.99999975c31.398438 0 56 17.597656 56 40 0 4.417969-3.582031 8-8 8s-8-3.582031-8-8c0-13.007812-18.320312-24-40-24-4.417969 0-8-3.582031-8-8 0-4.417968 3.582031-8 8-8zm-112 0c4.417969 0 8 3.582032 8 8 0 4.417969-3.582031 8-8 8-21.679688 0-40 10.992188-40 24 0 4.417969-3.582031 8-8 8s-8-3.582031-8-8c0-22.402344 24.601562-40 56-40zm176 152c0 13.253906-10.746094 24-24 24s-24-10.746094-24-24c0-4.417968-3.582031-8-8-8s-8 3.582032-8 8v40c0 13.253906-10.746094 24-24 24s-24-10.746094-24-24v-64.121094c-2.65625.054688-5.296875.121094-8 .121094-38.710938-.085937-77.21875-5.597656-114.398438-16.375-4.210937-1.34375-6.535156-5.847656-5.195312-10.058594 1.34375-4.210937 5.847656-6.535156 10.058594-5.191406 35.625 10.191406 72.480468 15.449219 109.535156 15.625 37.074219-.171875 73.953125-5.425781 109.601562-15.625.398438-.074218.804688-.117187 1.214844-.128906.386719-.117188.78125-.199219 1.183594-.246094.128906 0 .230469.0625.359375.070313 1.027344.164062 2.039063.410156 3.023437.738281.425782.230469.832032.496094 1.210938.796875.445312.285156.859375.617187 1.238281.984375.296875.355469.566407.730469.800781 1.128906.339844.480469.625.992188.847657 1.535156.039062.105469.136719.183594.167969.296876.078124.386718.121093.78125.128906 1.175781.109375.417969.1875.84375.222656 1.273437zm0 0"/></svg>