<svg height="464pt" viewBox="0 -16 464.00003 464" width="464pt" xmlns="http://www.w3.org/2000/svg"><path d="m464 120c.03125-57.871094-41.265625-107.511719-98.175781-118.007812-56.914063-10.5-113.203125 21.136718-133.824219 75.207031-20.621094-54.070313-76.910156-85.707031-133.824219-75.207031-56.910156 10.496093-98.207031 60.136718-98.175781 118.007812 0 136 165.726562 312 232 312s232-176 232-312zm0 0" fill="#fa507f"/><path d="m136 96 16 40h40l-32 32 16 40-40-16-40 16 16-40-32-32h40zm0 0" fill="#ffdf3e"/><path d="m328 96 16 40h40l-32 32 16 40-40-16-40 16 16-40-32-32h40zm0 0" fill="#ffdf3e"/><path d="m328 256c0 53.019531-42.980469 96-96 96s-96-42.980469-96-96zm0 0" fill="#a21d1f"/></svg>