<svg id="Layer_2" height="512" viewBox="0 0 128 128" width="512" xmlns="http://www.w3.org/2000/svg" data-name="Layer 2"><path d="m20.333 14.667h87.333v111.583h-87.333z" fill="#efebe9"/><path d="m58.965 39.122a8.893 8.893 0 0 0 -8.429-8.2 8.769 8.769 0 0 0 -9.036 7.978l-1.13 12.788c-.386 4.352 1.481 7.781 4.748 9.018l-1.676 29.114a6.8 6.8 0 1 0 13.558.019l-1.672-29.133c3.267-1.237 5.133-4.666 4.748-9.018z" fill="#dfccc9"/><path d="m87.631 51.688-.386-4.357v-14.664a1.75 1.75 0 0 0 -3.5 0v12.991h-4.218v-12.991a1.75 1.75 0 0 0 -3.5 0v12.991h-4.217v-12.991a1.75 1.75 0 0 0 -3.5 0v14.664l-.386 4.357c-.385 4.352 1.482 7.781 4.748 9.018l-1.672 29.113a6.8 6.8 0 1 0 13.562.02l-1.679-29.133c3.265-1.237 5.133-4.666 4.748-9.018z" fill="#dfccc9"/><path d="m29.875 105h68.25v12.25h-68.25z" fill="#fd7eb8"/><path d="m20.333 14.667 73.917-12.917v12.917z" fill="#a1887f"/><g fill="#271800"><path d="m20.333 78.418a1.749 1.749 0 0 0 1.75-1.75v-7.5a1.75 1.75 0 0 0 -3.5 0v7.5a1.75 1.75 0 0 0 1.75 1.75z"/><path d="m107.667 12.917h-11.667v-11.167a1.75 1.75 0 0 0 -2.051-1.724l-73.917 12.916a1.784 1.784 0 0 0 -1.449 1.725v40.166a1.75 1.75 0 0 0 3.5 0v-38.416h83.834v108.083h-83.834v-33.5a1.75 1.75 0 0 0 -3.5 0v35.25a1.751 1.751 0 0 0 1.75 1.75h87.334a1.75 1.75 0 0 0 1.75-1.75v-111.583a1.749 1.749 0 0 0 -1.75-1.75zm-67.152 0 51.985-9.084v9.084z"/><path d="m44.987 39.21a5.272 5.272 0 0 1 5.426-4.789 1.75 1.75 0 0 0 .123-3.5 8.769 8.769 0 0 0 -9.036 7.979l-1.13 12.788c-.386 4.352 1.481 7.781 4.748 9.018l-1.676 29.114a6.8 6.8 0 1 0 13.558.019l-1.672-29.133c3.267-1.237 5.133-4.666 4.748-9.018l-1.111-12.566a1.75 1.75 0 1 0 -3.486.308l1.111 12.57c.1 1.194.177 5.129-3.348 5.653a1.75 1.75 0 0 0 -1.49 1.832l1.759 30.575a3.262 3.262 0 0 1 -.878 2.476 3.374 3.374 0 0 1 -4.82 0 3.275 3.275 0 0 1 -.877-2.5l1.758-30.56a1.75 1.75 0 0 0 -1.49-1.832c-3.525-.519-3.454-4.454-3.348-5.644z"/><path d="m70.06 30.917a1.75 1.75 0 0 0 -1.75 1.75v14.664l-.386 4.357c-.385 4.352 1.482 7.781 4.748 9.018l-1.672 29.113a6.8 6.8 0 1 0 13.562.02l-1.679-29.133c3.265-1.237 5.133-4.666 4.748-9.018l-.386-4.357v-14.664a1.75 1.75 0 0 0 -3.5 0v12.991h-4.218v-12.991a1.75 1.75 0 0 0 -3.5 0v12.991h-4.217v-12.991a1.751 1.751 0 0 0 -1.75-1.75zm10.74 26.732a1.75 1.75 0 0 0 -1.49 1.832l1.758 30.58a3.259 3.259 0 0 1 -.878 2.474 3.374 3.374 0 0 1 -4.82 0 3.28 3.28 0 0 1 -.877-2.5l1.758-30.56a1.75 1.75 0 0 0 -1.49-1.832c-3.527-.517-3.456-4.453-3.351-5.643l.251-2.838h12.233l.251 2.838c.105 1.19.175 5.125-3.345 5.649z"/><path d="m28.125 105v12.25a1.751 1.751 0 0 0 1.75 1.75h68.25a1.75 1.75 0 0 0 1.75-1.75v-12.25a1.75 1.75 0 0 0 -1.75-1.75h-68.25a1.751 1.751 0 0 0 -1.75 1.75zm3.5 1.75h64.75v8.75h-64.75z"/></g></svg>