<svg height="462pt" viewBox="-1 0 462 462.42354" width="462pt" xmlns="http://www.w3.org/2000/svg"><path d="m252.191406 240c-13.253906 0-24 10.746094-24 24 0-13.253906-10.742187-24-24-24-13.253906 0-24 10.746094-24 24 0 13.257812 34.746094 56 48 56 13.257813 0 48-42.742188 48-56 0-13.253906-10.742187-24-24-24zm0 0" fill="#eb3936"/><path d="m272.058594 336.574219 55.425781 32-16 27.714843-55.425781-32zm0 0" fill="#e5b9af"/><path d="m422.335938 460.289062-110.855469-64 16-27.714843 110.855469 64c7.632812 4.417969 10.253906 14.179687 5.855468 21.824219-4.40625 7.664062-14.191406 10.300781-21.855468 5.890624zm0 0" fill="#915c39"/><path d="m16.785156 170.714844 277.128906 160-8 13.859375c-17.671874 30.609375-56.816406 41.097656-87.425781 23.425781l-166.277343-96c-30.609376-17.675781-41.097657-56.816406-23.425782-87.425781zm0 0" fill="#eca518"/><g fill="#c68382"><path d="m332.191406 32c0 4.417969-3.578125 8-8 8-4.417968 0-8-3.582031-8-8s3.582032-8 8-8c4.421875 0 8 3.582031 8 8zm0 0"/><path d="m460.191406 16c0 4.417969-3.578125 8-8 8-4.417968 0-8-3.582031-8-8s3.582032-8 8-8c4.421875 0 8 3.582031 8 8zm0 0"/><path d="m76.191406 152c0 4.417969-3.578125 8-8 8-4.417968 0-8-3.582031-8-8s3.582032-8 8-8c4.421875 0 8 3.582031 8 8zm0 0"/><path d="m140.191406 24c0 4.417969-3.578125 8-8 8-4.417968 0-8-3.582031-8-8s3.582032-8 8-8c4.421875 0 8 3.582031 8 8zm0 0"/></g><path d="m188.191406 112c-13.253906 0-24 10.746094-24 24 0-13.253906-10.742187-24-24-24-13.253906 0-24 10.746094-24 24 0 13.257812 34.746094 56 48 56 13.257813 0 48-42.742188 48-56 0-13.253906-10.742187-24-24-24zm0 0" fill="#eb3936"/><path d="m268.191406 0c-13.253906 0-24 10.746094-24 24 0-13.253906-10.742187-24-24-24-13.253906 0-24 10.746094-24 24 0 13.257812 34.746094 56 48 56 13.257813 0 48-42.742188 48-56 0-13.253906-10.742187-24-24-24zm0 0" fill="#eb3936"/><path d="m36.191406 56h32v32h-32zm0 0" fill="#b09dda"/><path d="m284.191406 104h32v32h-32zm0 0" fill="#b09dda"/><path d="m364.191406 16h32v32h-32zm0 0" fill="#b09dda"/><path d="m284.191406 192c0 4.417969-3.578125 8-8 8-4.417968 0-8-3.582031-8-8s3.582032-8 8-8c4.421875 0 8 3.582031 8 8zm0 0" fill="#c68382"/></svg>