<svg height="496pt" viewBox="-15 0 495 496" width="496pt" xmlns="http://www.w3.org/2000/svg"><path d="m272.5 336c0 26.300781 21.398438 47.601562 47.699219 47.601562h.300781l16 .398438h63.800781c35.398438 0 64.199219 28.699219 64.199219 64.199219v47.800781h-464v-47.800781c0-35.398438 28.699219-64.199219 64.199219-64.199219h63.800781l16-.398438c26.300781.199219 47.800781-21 48-47.300781 0-.101562 0-.199219 0-.300781v-32h80zm0 0" fill="#f7cca9"/><path d="m273.601562 346.199219c-.703124-3.398438-1.101562-6.800781-1.101562-10.199219v-32h-80v32c0 3.398438-.398438 6.898438-1.101562 10.199219 26.902343 7.699219 55.300781 7.699219 82.203124 0zm0 0" fill="#efbb95"/><path d="m400.300781 384h-63.800781l-16-.398438c-4.5 0-8.898438-.601562-13.199219-1.800781l-51.601562 56.800781-23.199219 25.398438-23.199219-25.5-51.601562-56.800781c-4.300781 1.199219-8.699219 1.800781-13.199219 1.800781l-16 .398438h-63.800781c-35.5.101562-64.199219 28.800781-64.199219 64.300781v47.800781h464v-47.800781c0-35.5-28.699219-64.199219-64.199219-64.199219zm0 0" fill="#97c4c3"/><path d="m296.5 456 48-72h-8l-16-.398438c-4.5 0-8.898438-.601562-13.199219-1.800781l-51.601562 56.800781zm0 0" fill="#688cba"/><path d="m209.300781 438.5-51.601562-56.800781c-4.300781 1.199219-8.699219 1.800781-13.199219 1.800781l-16 .398438h-8l48 72zm0 0" fill="#688cba"/><path d="m56.5 160v-32c0-70.699219 57.300781-128 128-128h96c70.699219 0 128 57.300781 128 128v32" fill="#cc8256"/><path d="m72.5 152c-13.300781 0-24 14.300781-24 32s10.699219 32 24 32h16v-64zm0 0" fill="#efbb95"/><path d="m392.5 152h-16v64h16c13.300781 0 24-14.300781 24-32s-10.699219-32-24-32zm0 0" fill="#efbb95"/><path d="m338.398438 75.101562c-24.898438 12.699219-63.097657 20.898438-105.898438 20.898438s-81-8.199219-105.898438-20.898438c-60.203124 58.5-61.601562 154.699219-3.101562 214.898438s154.699219 61.601562 214.898438 3.101562c60.203124-58.5 61.601562-154.703124 3.101562-214.902343-1-1-2-2.097657-3.101562-3.097657zm0 0" fill="#f7cca9"/><g fill="#915c39"><path d="m160.5 184c-8.800781 0-16-7.199219-16-16s7.199219-16 16-16 16 7.199219 16 16-7.199219 16-16 16zm0-16"/><path d="m120.5 168c-4.398438 0-8-3.601562-8-8 0-22.101562 17.898438-40 40-40 4.398438 0 8 3.601562 8 8s-3.601562 8-8 8c-13.300781 0-24 10.699219-24 24 0 4.398438-3.601562 8-8 8zm0 0"/><path d="m304.5 184c-8.800781 0-16-7.199219-16-16s7.199219-16 16-16 16 7.199219 16 16-7.199219 16-16 16zm0-16"/><path d="m344.5 168c-4.398438 0-8-3.601562-8-8 0-13.300781-10.699219-24-24-24-4.398438 0-8-3.601562-8-8s3.601562-8 8-8c22.101562 0 40 17.898438 40 40 0 4.398438-3.601562 8-8 8zm0 0"/></g><path d="m224.5 456h16v40h-16zm0 0" fill="#688cba"/><path d="m336.5 224c-58.699219-32-149.300781-32-208 0l-47.601562-31.699219c4.300781 83.699219 75.703124 148.097657 159.402343 143.800781 77.699219-4 139.800781-66.101562 143.800781-143.800781zm0 0" fill="#d1baa1"/><path d="m352.5 216c0 13.253906-10.746094 24-24 24s-24-10.746094-24-24 10.746094-24 24-24 24 10.746094 24 24zm0 0" fill="#f4b8b2"/><path d="m160.5 216c0 13.253906-10.746094 24-24 24s-24-10.746094-24-24 10.746094-24 24-24 24 10.746094 24 24zm0 0" fill="#f4b8b2"/><path d="m280.5 224h-32c-8.800781 0-16-7.199219-16-16s7.199219-16 16-16c2.101562 0 4.601562 0 35.800781 17 3.898438 2.101562 5.300781 7 3.199219 10.800781-1.398438 2.597657-4.101562 4.199219-7 4.199219zm0 0" fill="#915c39"/><path d="m216.5 224h-32c-4.398438 0-8-3.601562-8-8 0-2.898438 1.601562-5.601562 4.199219-7 31.300781-17 33.699219-17 35.800781-17 8.800781 0 16 7.199219 16 16s-7.199219 16-16 16zm0 0" fill="#915c39"/><path d="m240.5 184h-16c-4.398438 0-8-3.601562-8-8 0-.699219.101562-1.300781.199219-1.898438l8-32c1.101562-4.300781 5.5-6.902343 9.699219-5.703124 4.203124 1.101562 6.800781 5.402343 5.800781 9.601562l-5.5 22.101562h5.800781c4.398438 0 8 3.597657 8 8 0 4.398438-3.601562 7.898438-8 7.898438zm0 0" fill="#915c39"/></svg>