<svg height="496pt" viewBox="-15 0 495 496" width="496pt" xmlns="http://www.w3.org/2000/svg"><path d="m416.5 384c0-48 32-48 32-96s-32-48-32-96v-8c0-101.621094-82.378906-184-184-184s-184 82.378906-184 184v8c0 48-32 48-32 96s32 48 32 96" fill="#4b3e48"/><path d="m272.5 336c.011719 12.691406 5.082031 24.851562 14.09375 33.785156s21.214844 13.90625 33.90625 13.808594l16 .40625h63.839844c35.433594 0 64.160156 28.726562 64.160156 64.160156v47.839844h-464v-47.839844c0-35.433594 28.726562-64.160156 64.160156-64.160156h63.839844l16-.40625c12.691406.097656 24.894531-4.875 33.90625-13.808594s14.082031-21.09375 14.09375-33.785156v-32h80zm0 0" fill="#f7cca9"/><path d="m72.5 152c-13.257812 0-24 14.328125-24 32s10.742188 32 24 32h16v-64zm0 0" fill="#efbb95"/><path d="m392.5 152h-16v64h16c13.257812 0 24-14.328125 24-32s-10.742188-32-24-32zm0 0" fill="#efbb95"/><path d="m273.621094 346.214844c-.742188-3.355469-1.117188-6.777344-1.121094-10.214844v-32h-80v32c-.003906 3.4375-.378906 6.859375-1.121094 10.214844 26.871094 7.714844 55.371094 7.714844 82.242188 0zm0 0" fill="#efbb95"/><path d="m356.285156 96h-247.570312c-44.941406 63.066406-35.285156 149.839844 22.421875 201.480469 57.710937 51.644531 145.015625 51.644531 202.726562 0 57.707031-51.640625 67.363281-138.414063 22.421875-201.480469zm0 0" fill="#f7cca9"/><path d="m264.5 208c0 17.671875-14.328125 32-32 32s-32-14.328125-32-32zm0 0" fill="#e5703e"/><g fill="#915c39"><path d="m160.5 184c-8.835938 0-16-7.164062-16-16s7.164062-16 16-16 16 7.164062 16 16-7.164062 16-16 16zm0-16"/><path d="m120.5 168c-4.417969 0-8-3.582031-8-8 .027344-22.082031 17.917969-39.972656 40-40 4.417969 0 8 3.582031 8 8s-3.582031 8-8 8c-13.253906 0-24 10.746094-24 24 0 4.417969-3.582031 8-8 8zm0 0"/><path d="m304.5 184c-8.835938 0-16-7.164062-16-16s7.164062-16 16-16 16 7.164062 16 16-7.164062 16-16 16zm0-16"/><path d="m344.5 168c-4.417969 0-8-3.582031-8-8 0-13.253906-10.746094-24-24-24-4.417969 0-8-3.582031-8-8s3.582031-8 8-8c22.082031.027344 39.972656 17.917969 40 40 0 4.417969-3.582031 8-8 8zm0 0"/></g><path d="m352.5 216c0 13.253906-10.746094 24-24 24s-24-10.746094-24-24 10.746094-24 24-24 24 10.746094 24 24zm0 0" fill="#f4b8b2"/><path d="m160.5 216c0 13.253906-10.746094 24-24 24s-24-10.746094-24-24 10.746094-24 24-24 24 10.746094 24 24zm0 0" fill="#f4b8b2"/><path d="m400.339844 384h-63.839844l-16-.40625c-4.117188-.015625-8.21875-.554688-12.199219-1.601562l-27.800781 42.007812h-96l-27.800781-42c-3.980469 1.046875-8.082031 1.585938-12.199219 1.601562l-16 .398438h-63.839844c-35.433594 0-64.160156 28.726562-64.160156 64.160156v47.839844h464v-47.839844c0-35.433594-28.726562-64.160156-64.160156-64.160156zm0 0" fill="#f7cc38"/><path d="m224.5 424h16v72h-16zm0 0" fill="#cc8256"/><path d="m288.5 448 19.800781-66c-6.472656-1.65625-12.527343-4.65625-17.769531-8.800781l-58.03125 50.800781zm0 0" fill="#f3f9b8"/><path d="m232.5 424-58.03125-50.777344c-5.242188 4.144532-11.296875 7.144532-17.769531 8.800782l19.800781 65.976562zm0 0" fill="#f3f9b8"/><path d="m240.5 184h-16c-2.464844 0-4.789062-1.136719-6.308594-3.078125-1.515625-1.941406-2.050781-4.476563-1.453125-6.867187l8-32c1.101563-4.253907 5.425781-6.828126 9.691407-5.757813 4.265624 1.066406 6.867187 5.375 5.832031 9.648437l-5.515625 22.054688h5.753906c4.417969 0 8 3.582031 8 8s-3.582031 8-8 8zm0 0" fill="#915c39"/></svg>