<?xml version="1.0"?>
<svg xmlns="http://www.w3.org/2000/svg" id="Outline" viewBox="0 0 512 512" width="512" height="512"><path d="M36.169,415.023C39.835,417.023,126.983,464,216,464c32.589,0,66.7-5.367,101.481-15.932,1.545,1.7,3.117,3.4,4.738,5.1a296.192,296.192,0,0,0,49.486,41.584,8,8,0,0,0,8.59,0,296.192,296.192,0,0,0,49.486-41.584C462.635,418.819,480,382.579,480,348.364,480,315.079,454.879,288,424,288c-17.059,0-32.36,8.27-42.64,21.281-13.6-32.921-34.233-60.724-60.32-81.074a170.141,170.141,0,0,0-61.567-30.629,96,96,0,1,0-86.945,0c-33.16,8.7-63.155,27.408-87.009,54.772C51.007,291.941,32,347.218,32,408A8,8,0,0,0,36.169,415.023ZM376,356.364a8,8,0,0,0,8-8C384,323.9,401.944,304,424,304s40,19.9,40,44.364c0,63.954-69.793,117.173-88,129.964-18.215-12.8-88-66.015-88-129.964C288,323.9,305.944,304,328,304s40,19.9,40,44.364A8,8,0,0,0,376,356.364ZM136,112a80,80,0,1,1,80,80A80.091,80.091,0,0,1,136,112ZM97.58,262.865C128.422,227.485,170.478,208,216,208a153.442,153.442,0,0,1,95.2,32.822c19.052,14.862,34.956,34.132,46.98,56.723A52.789,52.789,0,0,0,328,288c-30.879,0-56,27.079-56,60.364,0,28.139,11.756,57.647,34.2,86.346C275.241,443.525,244.948,448,216,448c-74.188,0-149.593-35.583-167.958-44.844C49.013,348.163,66.517,298.5,97.58,262.865Z"/></svg>
