<?xml version="1.0" encoding="iso-8859-1"?>
<!-- Generator: Adobe Illustrator 19.0.0, SVG Export Plug-In . SVG Version: 6.00 Build 0)  -->
<svg version="1.1" id="Capa_1" xmlns="http://www.w3.org/2000/svg" xmlns:xlink="http://www.w3.org/1999/xlink" x="0px" y="0px"
	 viewBox="0 0 512.003 512.003" style="enable-background:new 0 0 512.003 512.003;" xml:space="preserve">
<g>
	<g>
		<path stroke-width="5" d="M399.217,3.227c-1.613-2.031-4.07-3.226-6.682-3.226H119.469c-4.028,0-7.509,2.816-8.346,6.758L25.79,407.826
			c-0.538,2.517,0.094,5.146,1.715,7.142c1.621,1.997,4.053,3.166,6.63,3.166h264.533c3.968,0,7.407-2.731,8.303-6.588
			L400.838,10.48C401.435,7.937,400.838,5.266,399.217,3.227z M291.902,401.068H44.674l81.707-384h255.394L291.902,401.068z"/>
	</g>
</g>
<g>
	<g>
		<path stroke-width="5" d="M60.034,407.357l-23.885,87.578H19.705l22.664-83.098l-16.469-4.48l-25.6,93.867c-0.7,2.56-0.162,5.308,1.451,7.424
			c1.621,2.108,4.122,3.354,6.784,3.354h34.133c3.849,0,7.219-2.577,8.235-6.298l25.6-93.867L60.034,407.357z"/>
	</g>
</g>
<g>
	<g>
		<path d="M290.434,407.357l-23.885,87.578h-16.444l22.665-83.098l-16.469-4.48l-25.6,93.867c-0.7,2.56-0.162,5.308,1.451,7.424
			c1.621,2.108,4.122,3.354,6.784,3.354h34.133c3.849,0,7.219-2.577,8.235-6.298l25.6-93.867L290.434,407.357z"/>
	</g>
</g>
<g>
	<g>
		<path d="M511.797,501.599L400.864,6.666c-0.879-3.891-4.335-6.665-8.329-6.665H256.002v17.067H385.7l107.11,477.867h-16.614
			L383.797,74.967l-16.666,3.669l93.867,426.667c0.862,3.917,4.326,6.699,8.337,6.699h34.133c2.594,0,5.043-1.178,6.665-3.2
			C511.754,506.77,512.36,504.125,511.797,501.599z"/>
	</g>
</g>
<g>
	<g>
		<rect stroke-width="50" x="298.669" y="401.068" width="153.6" height="17.067"/>
	</g>
</g>
<g>
	<g>
		<rect x="307.202" y="366.935" width="136.533" height="17.067"/>
	</g>
</g>
<g>
	<g>
		<path d="M356.542,37.352c-1.613-2.031-4.07-3.217-6.673-3.217h-204.8c-4.053,0-7.543,2.85-8.363,6.818l-68.267,332.8
			c-0.512,2.517,0.128,5.129,1.749,7.108c1.621,1.988,4.053,3.14,6.613,3.14h196.267c3.977,0,7.424-2.739,8.311-6.613l76.8-332.8
			C358.769,42.045,358.163,39.383,356.542,37.352z M266.276,366.935H87.264l64.768-315.733h187.11L266.276,366.935z"/>
	</g>
</g>
<g>
	<g>
		<path d="M423.417,262.487c-1.749-4.386-6.741-6.519-11.085-4.77l-36.855,14.694l-39.509-15.804
			c-4.343-1.749-9.344,0.367-11.093,4.762c-1.749,4.378,0.384,9.344,4.762,11.093l42.667,17.067c1.015,0.41,2.091,0.606,3.166,0.606
			s2.142-0.196,3.157-0.606l40.021-15.957C423.033,271.831,425.167,266.864,423.417,262.487z"/>
	</g>
</g>
<g>
	<g>
		<rect x="187.735" y="76.801" width="93.867" height="17.067"/>
	</g>
</g>
<g>
	<g>
		<rect x="153.602" y="128.001" width="76.8" height="17.067"/>
	</g>
</g>
<g>
	<g>
		<rect x="273.069" y="128.001" width="25.6" height="17.067"/>
	</g>
</g>
<g>
	<g>
		<rect x="145.069" y="170.668" width="51.2" height="17.067"/>
	</g>
</g>
<g>
	<g>
		<rect x="264.535" y="170.668" width="25.6" height="17.067"/>
	</g>
</g>
<g>
	<g>
		<rect x="136.535" y="213.335" width="76.8" height="17.067"/>
	</g>
</g>
<g>
	<g>
		<rect x="247.469" y="213.335" width="25.6" height="17.067"/>
	</g>
</g>
<g>
	<g>
		<rect x="128.002" y="256.001" width="59.733" height="17.067"/>
	</g>
</g>
<g>
	<g>
		<rect x="238.935" y="256.001" width="25.6" height="17.067"/>
	</g>
</g>
<g>
	<g>
		<rect x="119.469" y="298.668" width="76.8" height="17.067"/>
	</g>
</g>
<g>
	<g>
		<rect x="230.402" y="298.668" width="25.6" height="17.067"/>
	</g>
</g>
<g>
</g>
<g>
</g>
<g>
</g>
<g>
</g>
<g>
</g>
<g>
</g>
<g>
</g>
<g>
</g>
<g>
</g>
<g>
</g>
<g>
</g>
<g>
</g>
<g>
</g>
<g>
</g>
<g>
</g>
</svg>
