<svg id="Flat" height="512" viewBox="0 0 512 512" width="512" xmlns="http://www.w3.org/2000/svg"><path d="m24 240h464v160h-464z" fill="#eb423f"/><path d="m24 392h464v48h-464z" fill="#67c5e0"/><path d="m328 152h-144l8-32h128z" fill="#5098ad"/><path d="m320 120h-128l8-48h112z" fill="#67c5e0"/><path d="m77.064 120h53.872a13.064 13.064 0 0 1 13.064 13.064v18.936a0 0 0 0 1 0 0h-80a0 0 0 0 1 0 0v-18.936a13.064 13.064 0 0 1 13.064-13.064z" fill="#5098ad"/><path d="m389.064 120h53.872a13.064 13.064 0 0 1 13.064 13.064v18.936a0 0 0 0 1 0 0h-80a0 0 0 0 1 0 0v-18.936a13.064 13.064 0 0 1 13.064-13.064z" fill="#5098ad"/><path d="m96 88h16a16 16 0 0 1 16 16v16a0 0 0 0 1 0 0h-48a0 0 0 0 1 0 0v-16a16 16 0 0 1 16-16z" fill="#67c5e0"/><path d="m24 152h464v96h-464z" fill="#67c5e0"/><circle cx="256" cy="296" fill="#e9eef2" r="112"/><path d="m318.011 257.336a35.817 35.817 0 0 0 -48.233 0l-13.778 12.884-13.778-12.884a35.817 35.817 0 0 0 -48.233 0 30.449 30.449 0 0 0 0 45.1l57.884 54.127a34.248 34.248 0 0 0 4.127 3.294 34.248 34.248 0 0 0 4.127-3.292l57.884-54.127a30.449 30.449 0 0 0 0-45.102z" fill="#eb423f"/><path d="m448 192h-64a8 8 0 0 1 0-16h64a8 8 0 0 1 0 16z" fill="#5098ad"/><circle cx="104" cy="200" fill="#e9eef2" r="16"/></svg>