<?xml version="1.0"?>
<svg xmlns="http://www.w3.org/2000/svg" id="Outline" viewBox="0 0 512 512" width="512" height="512"><path d="M488,144H464V133.063A21.087,21.087,0,0,0,442.937,112H389.063A21.087,21.087,0,0,0,368,133.063V144H334.246l-6.4-25.62-7.949-47.695A8,8,0,0,0,312,64H200a8,8,0,0,0-7.891,6.685l-7.947,47.683L177.754,144H152V133.063a21.083,21.083,0,0,0-16-20.422V104a24.027,24.027,0,0,0-24-24H96a24.027,24.027,0,0,0-24,24v8.641a21.083,21.083,0,0,0-16,20.422V144H24a8,8,0,0,0-8,8V440a8,8,0,0,0,8,8H488a8,8,0,0,0,8-8V152A8,8,0,0,0,488,144ZM384,133.063A5.068,5.068,0,0,1,389.063,128h53.874A5.068,5.068,0,0,1,448,133.063V144H384ZM305.223,80l5.333,32H201.444l5.333-32ZM198.246,128H313.754l4,16H194.246ZM96,96h16a8.009,8.009,0,0,1,8,8v8H88v-8A8.009,8.009,0,0,1,96,96ZM72,133.063A5.069,5.069,0,0,1,77.064,128h53.872A5.069,5.069,0,0,1,136,133.063V144H72ZM480,160v80H362.1A119.954,119.954,0,0,0,149.9,240H32V160ZM152,296A104,104,0,1,1,256,400,104.118,104.118,0,0,1,152,296Zm22.509,88H32V256H142.864a119.853,119.853,0,0,0,31.645,128ZM376,296a119.453,119.453,0,0,0-6.864-40H480V384H337.491A119.692,119.692,0,0,0,376,296ZM32,432V400H196.184a119.811,119.811,0,0,0,119.632,0H480v32Z"/><path d="M260.5,366.472a42.57,42.57,0,0,0,5.091-4.064l57.885-54.127a38.45,38.45,0,0,0,0-56.787l0,0a43.818,43.818,0,0,0-59.162,0L256,259.268l-8.314-7.776a43.817,43.817,0,0,0-59.164,0,38.45,38.45,0,0,0,0,56.787l57.886,54.127a42.479,42.479,0,0,0,5.09,4.064,8,8,0,0,0,9,0Zm-61.048-69.878a22.454,22.454,0,0,1,0-33.414,27.819,27.819,0,0,1,37.306,0l13.778,12.883a8,8,0,0,0,10.928,0l13.778-12.883a27.82,27.82,0,0,1,37.3,0,22.454,22.454,0,0,1,0,33.416L256,349.471Z"/><path d="M104,224a24,24,0,1,0-24-24A24.027,24.027,0,0,0,104,224Zm0-32a8,8,0,1,1-8,8A8.009,8.009,0,0,1,104,192Z"/><path d="M384,192h64a8,8,0,0,0,0-16H384a8,8,0,0,0,0,16Z"/></svg>
