<svg id="Flat" height="512" viewBox="0 0 512 512" width="512" xmlns="http://www.w3.org/2000/svg"><path d="m392 424v-80a32 32 0 0 0 -32-32h-256a32 32 0 0 0 -32 32v144h368v-64z" fill="#e9eef2"/><path d="m208 304h48v40h-48z" fill="#f7cca9"/><g fill="#d0d2d4"><path d="m344 464h-64a8 8 0 0 1 0-16h64a8 8 0 0 1 0 16z"/><path d="m280 392h64v32h-64z"/><circle cx="176" cy="456" r="8"/><circle cx="176" cy="424" r="8"/></g><path d="m152 488v-83.357l104.249-60.643h-32.249l-83.969 49.054a8 8 0 0 0 -4.031 6.946v88z" fill="#e1e3e6"/><circle cx="336" cy="216" fill="#f0c6a4" r="32"/><circle cx="128" cy="216" fill="#f0c6a4" r="32"/><rect fill="#f7cca9" height="240" rx="104" width="208" x="128" y="72"/><circle cx="272" cy="216" fill="#452d23" r="8"/><circle cx="192" cy="216" fill="#452d23" r="8"/><path d="m240 240h-16a8 8 0 0 1 -8-8v-16a8 8 0 0 1 16 0v8h8a8 8 0 0 1 0 16z" fill="#452d23"/><path d="m232 280c-34.932 0-46.893-27.742-47.385-28.923a8 8 0 0 1 14.749-6.2c.388.888 8.68 19.126 32.636 19.126 24.385 0 32.536-18.886 32.615-19.077a8 8 0 1 1 14.77 6.154c-.492 1.178-12.453 28.92-47.385 28.92z" fill="#452d23"/><path d="m304 48a39.937 39.937 0 0 0 -32 16 40 40 0 0 0 -80 0 40 40 0 0 0 -72 24v80h224v-80a40 40 0 0 0 -40-40z" fill="#e9eef2"/><path d="m272 160a8 8 0 0 1 -8-8v-40a8 8 0 0 1 16 0v40a8 8 0 0 1 -8 8z" fill="#d0d2d4"/><path d="m192 160a8 8 0 0 1 -8-8v-40a8 8 0 0 1 16 0v40a8 8 0 0 1 -8 8z" fill="#d0d2d4"/><path d="m120 152h224v32h-224z" fill="#d0d2d4"/><path d="m392 296h32v112h-32z" fill="#6a7073"/><path d="m392 360h29.525a18.475 18.475 0 0 1 18.475 18.475v27.05a18.475 18.475 0 0 1 -18.475 18.475h-29.525a0 0 0 0 1 0 0v-64a0 0 0 0 1 0 0z" fill="#f7cca9"/><path d="m392 152a48 48 0 0 1 48 48v120a0 0 0 0 1 0 0h-48a0 0 0 0 1 0 0v-168a0 0 0 0 1 0 0z" fill="#e9eef2"/></svg>