<svg id="Flat" height="512" viewBox="0 0 512 512" width="512" xmlns="http://www.w3.org/2000/svg"><circle cx="256" cy="264" fill="#2d85cc" r="184"/><circle cx="256" cy="264" fill="#a3d4f7" r="120"/><path d="m472 464a24 24 0 0 1 -24-24v-152h48v152a24 24 0 0 1 -24 24z" fill="#b3113f"/><path d="m496 288h-80v-176a64 64 0 0 1 64-64h16z" fill="#e9eef2"/><path d="m56 184h32v240h-32z" fill="#e9eef2"/><path d="m48 288h48a0 0 0 0 1 0 0v152a24 24 0 0 1 -24 24 24 24 0 0 1 -24-24v-152a0 0 0 0 1 0 0z" fill="#b3113f"/><path d="m127.93 152.51-.75-11.81-.3-4.7-5.13-80.51a8 8 0 0 0 -15.98.51c0 .18.01.34.02.51l5.08 79.79c-3.69 2.6-14.17 6.49-30.87 7.46v-87.76a8 8 0 0 0 -16 0v87.77c-15.74-.95-26.74-4.53-30.86-7.49l5.07-79.77c.01-.17.02-.33.02-.51a8 8 0 0 0 -15.98-.51l-5.13 80.51-.29 4.66-.76 11.89a37.252 37.252 0 0 0 37.19 39.45h37.48a37.256 37.256 0 0 0 37.19-39.49z" fill="#e9eef2"/></svg>