<?xml version="1.0"?>
<svg xmlns="http://www.w3.org/2000/svg" id="Outline" viewBox="0 0 512 512" width="512" height="512"><path d="M72,496H440a8,8,0,0,0,8-8V24a8,8,0,0,0-8-8H72a8,8,0,0,0-8,8V488A8,8,0,0,0,72,496ZM200,80H312a39.962,39.962,0,0,0,31.978-16H400V448H112V64h56.022A39.962,39.962,0,0,0,200,80ZM312,64H200a24.028,24.028,0,0,1-24-24V32H336v8A24.028,24.028,0,0,1,312,64ZM80,32h80v8a40.028,40.028,0,0,0,.805,8H104a8,8,0,0,0-8,8V456a8,8,0,0,0,8,8H408a8,8,0,0,0,8-8V56a8,8,0,0,0-8-8H351.194A40.028,40.028,0,0,0,352,40V32h80V480H80Z"/><path d="M223.494,188.382c.028.029.056.057.082.085a11.806,11.806,0,0,0,16.805.041l.123-.126L256,172.6l15.5,15.78c.028.029.056.057.082.085a11.806,11.806,0,0,0,16.8.041l.122-.125,38.545-39.253a31.53,31.53,0,0,0,0-43.955l0,0a30.456,30.456,0,0,0-43.571,0L280,108.715l-3.478-3.542a30.456,30.456,0,0,0-43.573,0,31.484,31.484,0,0,0-2.1,2.368l-2.328-2.37a30.456,30.456,0,0,0-43.573,0,31.53,31.53,0,0,0,0,43.955Zm20.872-72a14.456,14.456,0,0,1,20.739,0l9.186,9.354a8,8,0,0,0,11.416,0l9.186-9.354a14.455,14.455,0,0,1,20.737,0,15.449,15.449,0,0,1,0,21.537L280,174.207l-35.633-36.288A15.449,15.449,0,0,1,244.366,116.384Zm-48,0a14.456,14.456,0,0,1,20.739,0l7.124,7.255a31.38,31.38,0,0,0,8.721,25.491l11.837,12.054L232,174.207l-35.633-36.288A15.449,15.449,0,0,1,196.366,116.384Z"/><path d="M328,216H224a8,8,0,0,0,0,16H328a8,8,0,0,0,0-16Z"/><path d="M216,256a8,8,0,0,0,8,8H368a8,8,0,0,0,0-16H224A8,8,0,0,0,216,256Z"/><path d="M360,232h8a8,8,0,0,0,0-16h-8a8,8,0,0,0,0,16Z"/><path d="M224,312H328a8,8,0,0,0,0-16H224a8,8,0,0,0,0,16Z"/><path d="M368,328H224a8,8,0,0,0,0,16H368a8,8,0,0,0,0-16Z"/><path d="M368,296h-8a8,8,0,0,0,0,16h8a8,8,0,0,0,0-16Z"/><path d="M224,392H328a8,8,0,0,0,0-16H224a8,8,0,0,0,0,16Z"/><path d="M368,408H224a8,8,0,0,0,0,16H368a8,8,0,0,0,0-16Z"/><path d="M368,376h-8a8,8,0,0,0,0,16h8a8,8,0,0,0,0-16Z"/><path d="M168,272a32,32,0,1,0-32-32A32.036,32.036,0,0,0,168,272Zm0-48a16,16,0,1,1-16,16A16.019,16.019,0,0,1,168,224Z"/><path d="M168,352a32,32,0,1,0-32-32A32.036,32.036,0,0,0,168,352Zm0-48a16,16,0,1,1-16,16A16.019,16.019,0,0,1,168,304Z"/><path d="M168,432a32,32,0,1,0-32-32A32.036,32.036,0,0,0,168,432Zm0-48a16,16,0,1,1-16,16A16.019,16.019,0,0,1,168,384Z"/></svg>
