<svg id="Flat" height="512" viewBox="0 0 512 512" width="512" xmlns="http://www.w3.org/2000/svg"><path d="m72 24h368v464h-368z" fill="#67c5e0"/><path d="m104 56h304v400h-304z" fill="#e9eef2"/><path d="m168 24h176a0 0 0 0 1 0 0v16a32 32 0 0 1 -32 32h-112a32 32 0 0 1 -32-32v-16a0 0 0 0 1 0 0z" fill="#5098ad"/><path d="m273.341 110.778a22.457 22.457 0 0 0 -32.155 0l-9.186 9.355-9.186-9.355a22.457 22.457 0 0 0 -32.155 0 23.459 23.459 0 0 0 0 32.747l38.59 39.3.026.026a3.8 3.8 0 0 0 5.45 0l.026-.026 38.59-39.3a23.459 23.459 0 0 0 0-32.747z" fill="#ed6f6d"/><path d="m321.341 110.778a22.457 22.457 0 0 0 -32.155 0l-9.186 9.355-9.186-9.355a22.457 22.457 0 0 0 -32.155 0 23.459 23.459 0 0 0 0 32.747l38.59 39.3.026.026a3.8 3.8 0 0 0 5.45 0l.026-.026 38.59-39.3a23.459 23.459 0 0 0 0-32.747z" fill="#eb423f"/><circle cx="168" cy="240" fill="#eb423f" r="24"/><circle cx="168" cy="320" fill="#ed6f6d" r="24"/><circle cx="168" cy="400" fill="#eb423f" r="24"/><g fill="#b6b9ba"><path d="m328 232h-104a8 8 0 0 1 0-16h104a8 8 0 0 1 0 16z"/><path d="m368 264h-144a8 8 0 0 1 0-16h144a8 8 0 0 1 0 16z"/><path d="m368 232h-8a8 8 0 0 1 0-16h8a8 8 0 0 1 0 16z"/><path d="m328 312h-104a8 8 0 0 1 0-16h104a8 8 0 0 1 0 16z"/><path d="m368 344h-144a8 8 0 0 1 0-16h144a8 8 0 0 1 0 16z"/><path d="m368 312h-8a8 8 0 0 1 0-16h8a8 8 0 0 1 0 16z"/><path d="m328 392h-104a8 8 0 0 1 0-16h104a8 8 0 0 1 0 16z"/><path d="m368 424h-144a8 8 0 0 1 0-16h144a8 8 0 0 1 0 16z"/><path d="m368 392h-8a8 8 0 0 1 0-16h8a8 8 0 0 1 0 16z"/></g></svg>