<svg height="480pt" viewBox="-24 0 480 480" width="480pt" xmlns="http://www.w3.org/2000/svg"><path d="m8 480h416c4.417969 0 8-3.582031 8-8v-256c-.003906-.703125-.097656-1.402344-.28125-2.078125-.046875-.195313-.152344-.363281-.214844-.546875-.152344-.46875-.34375-.921875-.574218-1.359375-.121094-.207031-.289063-.375-.425782-.566406-.238281-.378907-.503906-.734375-.800781-1.066407-.199219-.199218-.445313-.359374-.671875-.542968-.253906-.234375-.519531-.453125-.800781-.65625l-44.230469-27.191406v-157.992188c0-13.253906-10.746094-24-24-24h-288c-13.253906 0-24 10.746094-24 24v157.992188l-44.191406 27.199218c-.277344.203125-.546875.421875-.800782.65625-.222656.183594-.472656.34375-.671874.542969-.296876.332031-.5625.6875-.800782 1.066406-.136718.191407-.304687.359375-.421875.566407-.234375.4375-.425781.890624-.578125 1.359374-.0625.183594-.167968.351563-.214844.546876-.195312.671874-.304687 1.367187-.320312 2.070312v256c0 4.417969 3.582031 8 8 8zm376-279.199219 24.734375 15.199219-24.734375 15.199219zm-320-176.800781c0-4.417969 3.582031-8 8-8h288c4.417969 0 8 3.582031 8 8v217.070312l-152 93.539063-152-93.539063zm-16 176.800781v30.398438l-24.734375-15.199219zm-32 29.519531 195.808594 120.496094c2.570312 1.582032 5.8125 1.582032 8.382812 0l195.808594-120.496094v233.679688h-400zm0 0"/><path d="m304 126.398438c-.476562-26.050782-21.945312-46.804688-48-46.398438-15.945312-.070312-30.902344 7.707031-40 20.800781-9.097656-13.09375-24.054688-20.871093-40-20.800781-26.054688-.40625-47.523438 20.347656-48 46.398438 0 24.929687 61.222656 97.601562 88 97.601562s88-72.671875 88-97.601562zm-160 0c.851562-17.050782 14.925781-30.4375 32-30.4375s31.148438 13.386718 32 30.4375c0 4.417968 3.582031 8 8 8s8-3.582032 8-8c.851562-17.050782 14.925781-30.4375 32-30.4375s31.148438 13.386718 32 30.4375c0 18.304687-55.847656 81.601562-72 81.601562s-72-63.296875-72-81.601562zm0 0"/></svg>