<svg height="464pt" viewBox="-24 0 464 464" width="464pt" xmlns="http://www.w3.org/2000/svg"><path d="m416 208v256h-416v-256l208-128zm0 0" fill="#eb3936"/><path d="m64 0h288c8.835938 0 16 7.164062 16 16v432c0 8.835938-7.164062 16-16 16h-288c-8.835938 0-16-7.164062-16-16v-432c0-8.835938 7.164062-16 16-16zm0 0" fill="#fc95a9"/><path d="m0 208 208 128 208-128v256h-416zm0 0" fill="#f9d6d9"/><path d="m208 118.398438c0-22.089844-17.910156-40-40-40s-40 17.910156-40 40c0 21.210937 57.910156 89.601562 80 89.601562s80-68.390625 80-89.601562c0-22.089844-17.910156-40-40-40s-40 17.910156-40 40" fill="#eb3936"/></svg>