<svg id="Flat" height="512" viewBox="0 0 512 512" width="512" xmlns="http://www.w3.org/2000/svg"><path d="m375.667 488h-304a32 32 0 0 1 -32-32v-400a32 32 0 0 1 32-32h240l96 96v336a32 32 0 0 1 -32 32z" fill="#e9eef2"/><g fill="#c3c6c7"><path d="m407.667 120h-64a32 32 0 0 1 -32-32v-64z"/><path d="m359.667 176h-192a8 8 0 0 1 0-16h192a8 8 0 0 1 0 16z"/><path d="m247.667 224h-160a8 8 0 0 1 0-16h160a8 8 0 1 1 0 16z"/><path d="m360 272h-144.333a8 8 0 0 1 0-16h144.333a8 8 0 0 1 0 16z"/><path d="m231.667 320h-144a8 8 0 0 1 0-16h144a8 8 0 1 1 0 16z"/><path d="m135.667 176h-48a8 8 0 0 1 0-16h48a8 8 0 1 1 0 16z"/><path d="m359.667 224h-80a8 8 0 0 1 0-16h80a8 8 0 0 1 0 16z"/><path d="m183.667 272h-96a8 8 0 0 1 0-16h96a8 8 0 1 1 0 16z"/><path d="m232 416h-48.333a8 8 0 0 1 0-16h48.333a8 8 0 0 1 0 16z"/><path d="m151.667 416h-64a8 8 0 0 1 0-16h64a8 8 0 1 1 0 16z"/><path d="m135.667 368h-48a8 8 0 0 1 0-16h48a8 8 0 1 1 0 16z"/><path d="m183.667 128h-96a8 8 0 0 1 0-16h96a8 8 0 1 1 0 16z"/><path d="m264 368h-96.333a8 8 0 0 1 0-16h96.333a8 8 0 0 1 0 16z"/><path d="m312 320h-48a8 8 0 0 1 0-16h48a8 8 0 0 1 0 16z"/></g><path d="m462.627 273.04a32 32 0 0 0 -45.254 0l-11.314 11.314-135.765 135.764-22.627 67.882 67.882-22.627 135.765-135.765 11.313-11.314a32 32 0 0 0 0-45.254z" fill="#6ed2f0"/><path d="m328.804 278.863h64v192h-64z" fill="#3cb4d7" transform="matrix(.707 .707 -.707 .707 370.745 -145.332)"/></svg>