<svg id="Flat" height="512" viewBox="0 0 512 512" width="512" xmlns="http://www.w3.org/2000/svg"><path d="m420.007 266.145a8 8 0 0 1 -5.639-13.674l62.319-61.937-16.937-17.04a8 8 0 1 1 11.35-11.279l22.575 22.714a8 8 0 0 1 -.034 11.314l-67.993 67.576a7.978 7.978 0 0 1 -5.641 2.326z" fill="#fcb442"/><path d="m72 72h320v416h-320z" fill="#d8c8b9"/><path d="m344 24v416h-320v-320l96-96z" fill="#fae8d8"/><g fill="#d8c8b9"><path d="m296 176h-224a8 8 0 0 1 0-16h224a8 8 0 0 1 0 16z"/><path d="m264 224h-192a8 8 0 0 1 0-16h192a8 8 0 0 1 0 16z"/><path d="m216 272h-144a8 8 0 0 1 0-16h144a8 8 0 0 1 0 16z"/><path d="m200 320h-128a8 8 0 0 1 0-16h128a8 8 0 0 1 0 16z"/><path d="m120 24v96h-96z"/><path d="m296 128h-128a8 8 0 0 1 0-16h128a8 8 0 0 1 0 16z"/><path d="m184 368h-112a8 8 0 0 1 0-16h112a8 8 0 0 1 0 16z"/></g><path d="m326.028 110.031h64v240h-64z" fill="#2b70a8" transform="matrix(.707 .707 -.707 .707 267.52 -185.789)"/><path d="m459.851 104.208a32 32 0 0 1 32 32v16a0 0 0 0 1 0 0h-64a0 0 0 0 1 0 0v-16a32 32 0 0 1 32-32z" fill="#fcb442" transform="matrix(.707 .707 -.707 .707 225.344 -287.613)"/><path d="m250.547 292.257 45.116 45.393-67.881 22.35z" fill="#fcb442"/><path d="m375 266.315a7.974 7.974 0 0 1 -5.657-2.343l-45.255-45.255a8 8 0 1 1 11.312-11.317l45.255 45.255a8 8 0 0 1 -5.655 13.66z" fill="#fcb442"/></svg>