<?xml version="1.0"?>
<svg xmlns="http://www.w3.org/2000/svg" id="Outline" viewBox="0 0 512 512" width="512" height="512"><path d="M364.445,319.189A190.953,190.953,0,0,0,400,208c0-105.869-86.131-192-192-192S16,102.131,16,208s86.131,192,192,192a190.953,190.953,0,0,0,111.189-35.555L441.372,486.628a32,32,0,0,0,45.256-45.256ZM208,384c-97.047,0-176-78.953-176-176S110.953,32,208,32s176,78.953,176,176S305.047,384,208,384Zm267.313,91.313a16,16,0,0,1-22.626,0L331.91,354.537a193.875,193.875,0,0,0,22.627-22.627L475.313,452.686A16.017,16.017,0,0,1,475.313,475.313Z"/><path d="M208,64C128.6,64,64,128.6,64,208s64.6,144,144,144,144-64.6,144-144S287.4,64,208,64Zm0,272A128,128,0,1,1,336,208,128.145,128.145,0,0,1,208,336Z"/><path d="M235.217,181.276a40,40,0,1,0-54.434,0c-29.1,11.634-50.558,41.352-52.62,77.074a8.007,8.007,0,0,0,1.458,5.084,96,96,0,0,0,156.758,0,8.007,8.007,0,0,0,1.457-5.084C285.775,222.628,264.316,192.91,235.217,181.276ZM208,128a24,24,0,1,1-24,24A24.028,24.028,0,0,1,208,128Zm0,160a80.17,80.17,0,0,1-63.652-31.541C147.718,220.089,175.206,192,208,192s60.282,28.089,63.651,64.459A80.167,80.167,0,0,1,208,288Z"/></svg>
