<svg id="Flat" height="512" viewBox="0 0 512 512" width="512" xmlns="http://www.w3.org/2000/svg"><path d="m328 168c17.673 0 32 21.49 32 48s-14.327 48-32 48" fill="#c3c6c7"/><path d="m168 152h-96c-26.51 0-48 28.654-48 64s21.49 64 48 64h96l160 64v-256z" fill="#eb423f"/><path d="m112 280v-16h-40v16l24 144h40z" fill="#eb423f"/><path d="m72 152h96v128h-96z" fill="#e9eef2"/><g fill="#c3c6c7"><path d="m480 224h-96a8 8 0 1 1 0-16h96a8 8 0 0 1 0 16z"/><path d="m384.005 128a8 8 0 0 1 -2.974-15.43l80-32a8 8 0 0 1 5.942 14.856l-80 32a7.991 7.991 0 0 1 -2.968.574z"/><path d="m464 352a7.991 7.991 0 0 1 -2.968-.574l-80-32a8 8 0 1 1 5.942-14.856l80 32a8 8 0 0 1 -2.974 15.43z"/><path d="m383.993 176a8 8 0 0 1 -1.56-15.847l40-8a8 8 0 1 1 3.138 15.69l-40 8a8.11 8.11 0 0 1 -1.578.157z"/><path d="m424.011 280a8.11 8.11 0 0 1 -1.578-.157l-40-8a8 8 0 0 1 3.138-15.69l40 8a8 8 0 0 1 -1.56 15.847z"/></g></svg>