<?xml version="1.0"?>
<svg xmlns="http://www.w3.org/2000/svg" id="Outline" viewBox="0 0 512 512" width="512" height="512"><path d="M336,161.08V88a8,8,0,0,0-10.971-7.428L166.46,144H72c-15.4,0-29.728,7.794-40.341,21.945C21.562,179.408,16,197.186,16,216s5.562,36.592,15.659,50.055c8.988,11.984,20.644,19.387,33.355,21.38L85.419,425.173A8,8,0,0,0,93.333,432H136a8,8,0,0,0,7.914-9.173L123.94,288h42.52l158.569,63.428A8,8,0,0,0,336,344V270.92c18.47-5.054,32-27.365,32-54.92S354.47,166.134,336,161.08ZM32,216c0-27.044,13.765-49.67,32-54.873V270.873C45.765,265.67,32,243.044,32,216Zm94.728,200H100.235L81.273,288h26.491ZM160,272H80V160h80Zm160,60.184-144-57.6V157.416l144-57.6Zm16-78.568V178.384c9.216,5.631,16,20.582,16,37.616S345.216,247.985,336,253.616Z"/><path d="M488,208H392a8,8,0,0,0,0,16h96a8,8,0,0,0,0-16Z"/><path d="M392,128a7.991,7.991,0,0,0,2.968-.574l80-32a8,8,0,0,0-5.942-14.856l-80,32A8,8,0,0,0,392,128Z"/><path d="M474.971,336.572l-80-32a8,8,0,1,0-5.942,14.856l80,32a8,8,0,0,0,5.942-14.856Z"/><path d="M384.155,169.569A8,8,0,0,0,391.991,176a8.11,8.11,0,0,0,1.578-.157l40-8a8,8,0,1,0-3.138-15.69l-40,8A8,8,0,0,0,384.155,169.569Z"/><path d="M390.431,271.845l40,8a8.11,8.11,0,0,0,1.578.157,8,8,0,0,0,1.56-15.847l-40-8a8,8,0,0,0-3.138,15.69Z"/></svg>
