<svg id="Capa_1" enable-background="new 0 0 497 497" height="512" viewBox="0 0 497 497" width="512" xmlns="http://www.w3.org/2000/svg"><path d="m269.999 408.758c-42.021 0-76.208 34.487-76.208 76.877v11.365h152.418v-11.365c0-42.39-34.187-76.877-76.21-76.877z" fill="#d2dff7"/><path d="m269.999 408.758c-42.027 0-76.208 34.494-76.208 76.877v11.365h37.572v-36.554c0-5.723 1.645-11.322 4.711-16.154 10.942-17.242 28.51-29.809 49.06-34.006-4.893-.999-9.953-1.528-15.135-1.528z" fill="#adc0ed"/><circle cx="270" cy="464.945" fill="#adc0ed" r="7.5"/><ellipse cx="128.725" cy="286.1" fill="#cb5935" rx="75" ry="75" transform="matrix(.707 -.707 .707 .707 -164.601 174.819)"/><circle cx="132.824" cy="277.199" fill="#ffbf9d" r="36.099"/><circle cx="407.176" cy="277.199" fill="#ffbf9d" r="36.099"/><path d="m311.184 416.537c60.347-17.591 104.443-73.311 104.443-139.337 0-80.153-64.976-145.129-145.129-145.129-80.15 0-145.127 64.976-145.127 145.129 0 66.026 44.097 121.746 104.442 139.337 12.91 3.763 26.56 5.789 40.684 5.789 14.127.001 27.777-2.025 40.687-5.789z" fill="#ffd4bd"/><path d="m173.481 277.2c0-71.957 52.372-131.671 121.073-143.133-7.825-1.306-15.859-1.996-24.055-1.996-80.15 0-145.127 64.976-145.127 145.129 0 80.15 64.977 145.126 145.127 145.126 8.196 0 16.229-.69 24.055-1.996-68.701-11.461-121.073-71.175-121.073-143.13z" fill="#ffbf9d"/><path d="m330.459 241.095c21.954 23.612 52.934 36.748 85.169 36.104 0-80.644-65.481-145.128-145.129-145.128-80.15 0-145.127 64.976-145.127 145.129v.026c70.856 14.705 144.207 1.479 205.087-36.131z" fill="#dd6642"/><path d="m294.534 134.07c-7.826-1.308-15.854-1.999-24.035-1.999-80.15 0-145.127 64.976-145.127 145.129v.026c16.006 3.322 32.139 5.204 48.228 5.716-.074-1.906-.119-3.819-.119-5.742 0-71.95 52.362-131.66 121.053-143.13z" fill="#cb5935"/><path d="m380.68.002c-2.217 0-219.128 0-221.353 0-16.569 0-30 13.432-30 30v211.1c89.459-38.985 191.426-39.186 281.353 0v-211.1c0-16.569-13.431-30-30-30z" fill="#d2dff7"/><g fill="#adc0ed"><path d="m209.798 0h-50.478c-16.569 0-30 13.431-30 30v211.1c17.647-7.69 35.768-13.86 54.175-18.525v-159.074c0-23.818 9.461-46.66 26.303-63.501z"/><path d="m183.499 48.501c-8.284 0-15 6.716-15 15v113.281c0 8.284 6.716 15 15 15s15-6.716 15-15v-113.281c0-8.284-6.716-15-15-15z"/><path d="m270 48.501c-8.284 0-15 6.716-15 15v113.281c0 8.284 6.716 15 15 15s15-6.716 15-15v-113.281c0-8.284-6.716-15-15-15z"/><path d="m356.502 48.501c-8.284 0-15 6.716-15 15v113.281c0 8.284 6.716 15 15 15s15-6.716 15-15v-113.281c0-8.284-6.716-15-15-15z"/></g><path d="m220.498 331.102c-.031 9.896-10.13 17.886-22.556 17.847s-22.475-8.092-22.444-17.988 10.13-17.886 22.556-17.847c12.427.039 22.475 8.092 22.444 17.988z" fill="#ff8e9e"/><path d="m319.498 331.394c-.031 9.896 10.017 17.949 22.444 17.988 12.426.039 22.525-7.951 22.556-17.847s-10.017-17.949-22.444-17.988c-12.426-.04-22.525 7.951-22.556 17.847z" fill="#ff8e9e"/><path d="m205.998 293.614c-4.142 0-7.5 3.358-7.5 7.5v10c0 4.142 3.358 7.5 7.5 7.5s7.5-3.358 7.5-7.5v-10c0-4.142-3.358-7.5-7.5-7.5z" fill="#313d40"/><path d="m333.998 293.614c-4.142 0-7.5 3.358-7.5 7.5v10c0 4.142 3.358 7.5 7.5 7.5s7.5-3.358 7.5-7.5v-10c0-4.142-3.358-7.5-7.5-7.5z" fill="#313d40"/><path d="m289.734 322.348c-3.737-1.789-8.215-.206-10.001 3.531-1.666 3.484-5.291 5.735-9.234 5.735s-7.568-2.251-9.234-5.735c-1.787-3.737-6.266-5.317-10.001-3.531-3.737 1.787-5.318 6.265-3.531 10.001 4.144 8.666 13.08 14.265 22.766 14.265s18.623-5.599 22.766-14.265c1.787-3.736.206-8.214-3.531-10.001z" fill="#313d40"/></svg>