<svg id="Flat" height="512" viewBox="0 0 512 512" width="512" xmlns="http://www.w3.org/2000/svg"><path d="m427.839 461.237-160-176-11.839 10.763-11.839-10.763-160 176a16 16 0 0 0 23.678 21.526l132.161-145.378v134.615a16 16 0 0 0 32 0v-134.615l132.161 145.378a16 16 0 0 0 23.678-21.526z" fill="#684436"/><path d="m288 328h-64a16 16 0 0 1 -16-16v-48h96v48a16 16 0 0 1 -16 16z" fill="#c2856c"/><rect fill="#2b70a8" height="224" rx="16" width="384" x="64" y="72"/><path d="m96 40h32a16 16 0 0 1 16 16v16a0 0 0 0 1 0 0h-64a0 0 0 0 1 0 0v-16a16 16 0 0 1 16-16z" fill="#19629d"/><path d="m448 88v64h-384v-64a16 16 0 0 1 16-16h352a16 16 0 0 1 16 16z" fill="#a4d4f4"/><circle cx="256" cy="184" fill="#19629d" r="80"/><circle cx="256" cy="184" fill="#a4d4f4" r="48"/><g fill="#2b70a8"><path d="m336 72h-160l12.353-37.06a16 16 0 0 1 15.179-10.94h104.936a16 16 0 0 1 15.179 10.94z"/><circle cx="256" cy="184" r="16"/></g></svg>