<?xml version="1.0" encoding="UTF-8" standalone="no"?>
<!DOCTYPE svg PUBLIC "-//W3C//DTD SVG 1.1//EN" "http://www.w3.org/Graphics/SVG/1.1/DTD/svg11.dtd">
<svg version="1.1" xmlns="http://www.w3.org/2000/svg" xmlns:xlink="http://www.w3.org/1999/xlink" preserveAspectRatio="xMidYMid meet" viewBox="14.000000000000085 -0.9999999999999396 603.9999999999998 408.6800000000001" width="600" height="404.68"><defs><path d="M313.44 139.35C274.43 139.35 242.81 170.97 242.81 209.98C242.81 248.99 274.43 280.61 313.44 280.61C352.45 280.61 384.07 248.99 384.07 209.98C384.07 170.97 352.45 139.35 313.44 139.35Z" id="d1AIb38P2J"></path><path d="M241.93 209.98C241.93 170.54 274 138.47 313.44 138.47C352.88 138.47 384.95 170.54 384.95 209.98C384.95 249.42 352.88 281.48 313.44 281.48C274 281.48 241.93 249.42 241.93 209.98ZM243.69 209.98C243.69 248.44 274.97 279.73 313.44 279.73C351.9 279.73 383.19 248.44 383.19 209.98C383.19 171.52 351.9 140.23 313.44 140.23C274.97 140.23 243.69 171.52 243.69 209.98Z" id="a2CuFBOUS"></path><path d="M262.28 209.98C262.28 181.77 285.22 158.83 313.44 158.83C341.65 158.83 364.59 181.77 364.59 209.98C364.59 238.19 341.65 261.13 313.44 261.13C285.22 261.13 262.28 238.19 262.28 209.98ZM264.04 209.98C264.04 237.21 286.2 259.37 313.44 259.37C340.68 259.37 362.84 237.21 362.84 209.98C362.84 182.74 340.68 160.58 313.44 160.58C286.2 160.58 264.04 182.74 264.04 209.98Z" id="b4BgdRIbN"></path><path d="M353.37 209.98C353.37 187.97 335.45 170.05 313.44 170.05C312.95 170.05 312.56 169.66 312.56 169.17C312.56 168.69 312.95 168.3 313.44 168.3C336.43 168.3 355.12 186.99 355.12 209.98C355.12 210.47 354.73 210.86 354.25 210.86C353.76 210.86 353.37 210.47 353.37 209.98Z" id="a4k8sRuYRn"></path><path d="M214.98 180.5C214.98 176.42 214.98 143.77 214.98 139.69C214.98 139.2 215.37 138.81 215.86 138.81C216.35 138.81 216.74 139.2 216.74 139.69C216.74 143.77 216.74 176.42 216.74 180.5C216.69 180.99 216.3 181.38 215.86 181.38C215.37 181.38 214.98 180.99 214.98 180.5Z" id="c8rADDpY"></path><path d="M196.63 162.29C196.63 160.03 196.63 141.95 196.63 139.69C196.63 139.2 197.02 138.81 197.51 138.81C198 138.81 198.39 139.2 198.39 139.69C198.39 141.95 198.39 160.03 198.39 162.29C198.39 171.86 206.2 179.67 215.76 179.67C225.33 179.67 233.14 171.86 233.14 162.29C233.14 160.03 233.14 141.95 233.14 139.69C233.14 139.2 233.53 138.81 234.02 138.81C234.51 138.81 234.9 139.2 234.9 139.69C234.9 141.95 234.9 160.03 234.9 162.29C234.85 172.79 226.26 181.38 215.72 181.38C205.17 181.38 196.63 172.79 196.63 162.29Z" id="b193owxv9m"></path><path d="M211.91 279.48C211.42 279.48 211.03 279.09 211.03 278.6C211.03 268.76 211.03 190.04 211.03 180.2C211.03 179.72 211.42 179.33 211.91 179.33C212.69 179.33 218.98 179.33 219.77 179.33C220.26 179.33 220.65 179.72 220.65 180.2C220.65 190.04 220.65 268.76 220.65 278.6C220.65 279.09 220.26 279.48 219.77 279.48C218.2 279.48 212.69 279.48 211.91 279.48ZM218.89 277.73L218.89 181.08L212.79 181.08L212.79 277.73L218.89 277.73Z" id="c1OlhUSWJf"></path><path d="M411.6 279.39C411.11 279.39 410.72 279 410.72 278.51C410.72 272.04 410.72 220.26 410.72 213.79C405.55 211.74 402.33 207.93 402.33 203.68C402.33 198.36 402.33 155.8 402.33 150.48C402.33 144.09 409.65 138.91 418.68 138.91C418.71 138.91 418.94 138.91 418.97 138.91C419.46 138.91 419.95 139.3 419.95 139.79C419.95 153.67 419.95 264.68 419.95 278.56C419.95 279 419.6 279.39 419.12 279.39C417.61 279.39 412.35 279.39 411.6 279.39ZM418.24 277.68C418.24 195.47 418.24 149.8 418.24 140.67C410.38 140.82 404.03 145.16 404.03 150.53C404.03 155.85 404.03 198.41 404.03 203.73C404.03 207.39 407.01 210.71 411.84 212.42C412.19 212.57 412.43 212.86 412.43 213.25C412.43 217.54 412.43 239.02 412.43 277.68L418.24 277.68Z" id="cIYzRzNYX"></path><path d="M407.3 211.54C407.3 207.68 407.3 176.84 407.3 172.98C407.3 172.49 407.69 172.1 408.18 172.1C408.67 172.1 409.06 172.49 409.06 172.98C409.06 176.84 409.06 207.68 409.06 211.54C409.06 212.03 408.67 212.42 408.18 212.42C407.69 212.42 407.3 212.03 407.3 211.54Z" id="a3e7dhtlEM"></path><path d="M407.3 165.22C407.3 164.67 407.3 160.26 407.3 159.7C407.3 159.22 407.69 158.83 408.18 158.83C408.67 158.83 409.06 159.22 409.06 159.7C409.06 160.26 409.06 164.67 409.06 165.22C409.06 165.71 408.67 166.1 408.18 166.1C407.69 166.1 407.3 165.71 407.3 165.22Z" id="d2iHmBBG6Q"></path><path d="M410.28 127.34C410.28 125.81 410.28 118.15 410.28 104.35C409.81 104.62 409.55 104.76 409.5 104.79C405.35 107.23 398.57 107.23 394.42 104.79C394.21 104.67 392.53 103.7 392.32 103.57C388.71 101.43 382.6 101.43 378.99 103.57C378.78 103.7 377.1 104.67 376.89 104.79C372.74 107.23 365.96 107.23 361.81 104.79C361.6 104.67 359.92 103.7 359.71 103.57C356.1 101.43 350 101.43 346.39 103.57C346.18 103.7 344.5 104.67 344.29 104.79C340.14 107.23 333.35 107.23 329.2 104.79C328.99 104.67 327.32 103.7 327.11 103.57C323.49 101.43 317.39 101.43 313.78 103.57C313.57 103.7 311.89 104.67 311.68 104.79C307.53 107.23 300.75 107.23 296.6 104.79C296.39 104.67 294.71 103.7 294.5 103.57C290.89 101.43 284.79 101.43 281.17 103.57C280.96 103.7 279.28 104.67 279.07 104.79C274.93 107.23 268.14 107.23 263.99 104.79C263.78 104.67 262.1 103.7 261.89 103.57C258.28 101.43 252.18 101.43 248.57 103.57C248.36 103.7 246.68 104.67 246.47 104.79C242.32 107.23 235.53 107.23 231.38 104.79C231.19 104.67 229.67 103.7 229.48 103.57C226.02 101.52 220.26 101.43 216.59 103.33C216.59 105.73 216.59 124.94 216.59 127.34C216.59 127.83 216.2 128.22 215.72 128.22C215.23 128.22 214.84 127.83 214.84 127.34C214.84 124.89 214.84 105.29 214.84 102.84C214.84 102.55 214.98 102.26 215.28 102.11C219.43 99.67 226.21 99.67 230.36 102.11C230.57 102.23 232.25 103.21 232.46 103.33C236.07 105.48 242.17 105.48 245.78 103.33C245.99 103.21 247.67 102.23 247.88 102.11C252.03 99.67 258.82 99.67 262.97 102.11C263.18 102.23 264.86 103.21 265.07 103.33C268.68 105.48 274.78 105.48 278.39 103.33C278.6 103.21 280.28 102.23 280.49 102.11C284.64 99.67 291.42 99.67 295.57 102.11C295.78 102.23 297.46 103.21 297.67 103.33C301.28 105.48 307.39 105.48 311 103.33C311.21 103.21 312.89 102.23 313.1 102.11C317.25 99.67 324.03 99.67 328.18 102.11C328.39 102.23 330.07 103.21 330.28 103.33C333.89 105.48 339.99 105.48 343.6 103.33C343.81 103.21 345.49 102.23 345.7 102.11C349.85 99.67 356.64 99.67 360.79 102.11C361 102.23 362.67 103.21 362.88 103.33C366.5 105.48 372.6 105.48 376.21 103.33C376.42 103.21 378.1 102.23 378.31 102.11C382.46 99.67 389.24 99.67 393.39 102.11C393.6 102.23 395.28 103.21 395.49 103.33C399.1 105.48 405.21 105.48 408.82 103.33C409.03 103.21 410.71 102.23 410.92 102.11C411.16 101.96 411.5 101.96 411.79 102.11C412.09 102.26 412.23 102.55 412.23 102.84C412.23 105.29 412.23 124.89 412.23 127.34C411.99 127.83 411.6 128.22 411.16 128.22C410.67 128.22 410.28 127.83 410.28 127.34Z" id="gVx9RRfJy"></path><path d="M296.74 314.14C296.53 314.02 294.86 313.04 294.65 312.92C291.03 310.77 284.93 310.77 281.32 312.92C281.11 313.04 279.43 314.02 279.22 314.14C275.07 316.58 268.29 316.58 264.14 314.14C263.93 314.02 262.25 313.04 262.04 312.92C258.43 310.77 252.33 310.77 248.71 312.92C248.5 313.04 246.82 314.02 246.61 314.14C242.47 316.58 235.68 316.58 231.53 314.14C231.32 314.02 229.64 313.04 229.43 312.92C225.82 310.77 219.72 310.77 216.11 312.92C215.86 313.06 215.52 313.06 215.23 312.92C214.93 312.77 214.79 312.48 214.79 312.19C214.79 310.23 214.79 294.61 214.79 292.66C214.79 292.17 215.18 291.78 215.67 291.78C216.16 291.78 216.55 292.17 216.55 292.66C216.55 294.48 216.55 309 216.55 310.82C220.69 309.06 226.55 309.26 230.31 311.45C230.52 311.58 232.2 312.55 232.41 312.67C236.02 314.82 242.12 314.82 245.74 312.67C245.95 312.55 247.62 311.58 247.83 311.45C251.98 309.01 258.77 309.01 262.92 311.45C263.13 311.58 264.81 312.55 265.02 312.67C268.63 314.82 274.73 314.82 278.34 312.67C278.55 312.55 280.23 311.58 280.44 311.45C284.59 309.01 291.37 309.01 295.52 311.45C295.73 311.58 297.41 312.55 297.62 312.67C301.23 314.82 307.34 314.82 310.95 312.67C311.16 312.55 312.84 311.58 313.05 311.45C317.2 309.01 323.98 309.01 328.13 311.45C328.34 311.58 330.02 312.55 330.23 312.67C333.84 314.82 339.94 314.82 343.56 312.67C343.77 312.55 345.44 311.58 345.65 311.45C349.8 309.01 356.59 309.01 360.74 311.45C360.95 311.58 362.63 312.55 362.84 312.67C366.45 314.82 372.55 314.82 376.16 312.67C376.37 312.55 378.05 311.58 378.26 311.45C382.41 309.01 389.19 309.01 393.34 311.45C393.55 311.58 395.23 312.55 395.44 312.67C399.05 314.82 405.16 314.82 408.77 312.67C408.88 312.61 409.43 312.28 410.43 311.7C410.43 300.28 410.43 293.93 410.43 292.66C410.43 292.17 410.82 291.78 411.31 291.78C411.79 291.78 412.19 292.17 412.19 292.66C412.19 294.61 412.19 310.23 412.19 312.19C412.19 312.48 412.04 312.77 411.75 312.92C411.54 313.04 409.86 314.02 409.65 314.14C405.5 316.58 398.71 316.58 394.56 314.14C394.35 314.02 392.67 313.04 392.47 312.92C388.85 310.77 382.75 310.77 379.14 312.92C378.93 313.04 377.25 314.02 377.04 314.14C372.89 316.58 366.11 316.58 361.96 314.14C361.75 314.02 360.07 313.04 359.86 312.92C356.25 310.77 350.14 310.77 346.53 312.92C346.32 313.04 344.64 314.02 344.43 314.14C340.28 316.58 333.5 316.58 329.35 314.14C329.14 314.02 327.46 313.04 327.25 312.92C323.64 310.77 317.54 310.77 313.93 312.92C313.72 313.04 312.04 314.02 311.83 314.14C309.73 315.36 306.99 315.99 304.26 315.99C301.53 315.99 298.79 315.36 296.74 314.14Z" id="c20YBo1b6S"></path><path d="M475.84 137.25C475.49 137.11 475.3 136.81 475.3 136.47C475.3 135.36 475.3 126.46 475.3 125.34C475.3 125.1 475.4 124.85 475.59 124.71C475.79 124.56 476.03 124.46 476.28 124.51C481.5 125.15 486.28 125.15 491.51 124.51C491.75 124.46 491.99 124.56 492.19 124.71C492.38 124.85 492.48 125.1 492.48 125.34C492.48 126.46 492.48 135.36 492.48 136.47C492.48 136.81 492.29 137.15 491.94 137.25C491.6 137.4 491.26 137.3 491.02 137.06C489.11 135.15 486.58 134.13 483.89 134.13C481.21 134.13 478.72 135.15 476.76 137.06C476.62 137.25 476.42 137.3 476.18 137.3C476.08 137.3 475.93 137.3 475.84 137.25ZM477.06 134.62C481.06 131.79 486.77 131.79 490.77 134.62C490.77 133.79 490.77 127.15 490.77 126.32C486.09 126.81 481.74 126.81 477.06 126.32C477.06 127.98 477.06 133.79 477.06 134.62Z" id="c1fKaEiX9a"></path><path d="M476.08 126.22C444.4 122.32 420.53 95.28 420.53 63.35C420.53 28.41 448.94 0 483.89 0C518.84 0 547.25 28.41 547.25 63.35C547.25 95.33 523.38 122.32 491.7 126.22C489.06 126.51 486.43 126.71 483.89 126.71C481.35 126.71 478.72 126.56 476.08 126.22ZM422.24 63.31C422.24 94.4 445.48 120.66 476.28 124.46C481.5 125.1 486.28 125.1 491.51 124.46C522.31 120.66 545.54 94.4 545.54 63.31C545.54 29.33 517.91 1.66 483.89 1.66C449.92 1.66 422.24 29.33 422.24 63.31Z" id="a9YbQjC77"></path><path d="M472.08 216.71C472.08 209.47 472.08 151.48 472.08 144.23C472.08 141.06 473.35 138.08 475.59 135.84C477.84 133.64 480.77 132.42 483.94 132.42C487.11 132.42 490.04 133.64 492.29 135.84C494.53 138.08 495.8 141.06 495.8 144.23C495.8 151.48 495.8 209.42 495.8 216.67C495.75 223.21 490.43 228.53 483.89 228.53C477.35 228.53 472.08 223.21 472.08 216.71ZM476.76 137.06C474.81 138.96 473.79 141.5 473.79 144.23C473.79 151.48 473.79 209.42 473.79 216.67C473.79 222.23 478.33 226.77 483.89 226.77C489.45 226.77 493.99 222.23 493.99 216.67C493.99 209.42 493.99 151.48 493.99 144.23C493.99 141.5 492.92 138.96 491.02 137.06C489.11 135.2 486.58 134.13 483.89 134.13C481.21 134.13 478.72 135.15 476.76 137.06ZM477.98 214.76C477.98 211.49 480.62 208.86 483.89 208.86C487.16 208.86 489.8 211.49 489.8 214.76C489.8 218.03 487.16 220.67 483.89 220.67C480.62 220.67 477.98 218.03 477.98 214.76ZM479.69 214.76C479.69 217.1 481.55 218.96 483.89 218.96C486.18 218.96 488.09 217.1 488.09 214.76C488.09 212.42 486.18 210.56 483.89 210.56C481.6 210.56 479.69 212.42 479.69 214.76Z" id="c1g7x6spnP"></path><path d="M477.98 214.76C477.98 211.49 480.62 208.86 483.89 208.86C487.16 208.86 489.8 211.49 489.8 214.76C489.8 218.03 487.16 220.67 483.89 220.67C480.62 220.67 477.98 218.03 477.98 214.76ZM479.69 214.76C479.69 217.1 481.55 218.96 483.89 218.96C486.18 218.96 488.09 217.1 488.09 214.76C488.09 212.42 486.18 210.56 483.89 210.56C481.6 210.56 479.69 212.42 479.69 214.76Z" id="akDNxJWRd"></path><path d="M442.2 63.31C442.2 40.32 460.9 21.62 483.89 21.62C506.88 21.62 525.58 40.32 525.58 63.31C525.58 86.3 506.88 104.99 483.89 104.99C460.9 104.99 442.2 86.3 442.2 63.31ZM443.91 63.35C443.91 85.37 461.83 103.33 483.89 103.33C505.9 103.33 523.87 85.42 523.87 63.35C523.87 41.29 505.95 23.38 483.89 23.38C461.88 23.38 443.91 41.29 443.91 63.35Z" id="bQQEs4I2E"></path><path d="M466.71 262.6C466.71 262.35 466.71 262.11 466.76 261.86C466.76 261.82 466.8 261.47 466.81 261.42C466.81 260.94 467.2 260.59 467.68 260.59C475.18 260.59 535.12 260.59 542.61 260.59C543.1 260.59 543.44 260.98 543.49 261.42C543.49 261.47 543.53 261.82 543.54 261.86C543.54 262.11 543.59 262.35 543.59 262.6C543.54 283.78 526.31 301.01 505.12 301.01C483.94 301.01 466.71 283.78 466.71 262.6ZM468.47 262.6C468.47 282.8 484.92 299.25 505.12 299.25C525.33 299.25 541.78 282.8 541.78 262.6C541.78 262.5 541.78 262.4 541.78 262.3C536.89 262.3 512.46 262.3 468.47 262.3C468.47 262.43 468.47 262.53 468.47 262.6Z" id="aJtUgxSwl"></path><path d="M541.78 261.42C541.78 247.52 541.78 136.27 541.78 122.37C541.78 111.09 550.96 101.91 562.23 101.91C573.51 101.91 582.69 111.09 582.69 122.37C582.69 122.85 582.3 123.24 581.81 123.24C581.32 123.24 580.93 122.85 580.93 122.37C580.93 112.02 572.53 103.62 562.19 103.62C551.84 103.62 543.44 112.02 543.44 122.37C543.44 136.27 543.44 247.52 543.44 261.42C543.54 261.91 543.15 262.3 542.66 262.3C542.17 262.3 541.78 261.91 541.78 261.42Z" id="ejuEwy4So"></path><path d="M18.56 231.21C18.08 231.21 17.68 230.82 17.68 230.33C17.68 230.3 17.68 230.02 17.68 229.99C17.68 217.25 26.76 206.22 39.26 203.83C39.26 203.83 39.26 203.83 39.26 203.83C40.97 203.49 42.68 203.34 44.34 203.34C45.05 203.34 50.79 203.34 51.51 203.34C53.17 203.34 54.88 203.49 56.59 203.83C56.59 203.83 56.59 203.83 56.59 203.83C56.59 203.83 56.59 203.83 56.59 203.83C69.08 206.22 78.16 217.25 78.16 229.99C78.16 230.02 78.16 230.3 78.16 230.33C78.16 230.82 77.77 231.21 77.28 231.21C65.54 231.21 24.44 231.21 18.56 231.21ZM76.45 229.45C76.21 218.13 68.3 208.32 57.32 205.73C57.32 206.85 57.32 215.79 57.32 216.91C57.32 217.4 56.93 217.79 56.44 217.79C55.95 217.79 55.56 217.4 55.56 216.91C55.56 215.76 55.56 206.54 55.56 205.39C54.2 205.15 52.83 205.05 51.51 205.05C51.33 205.05 50.42 205.05 48.78 205.05C48.78 212.17 48.78 216.12 48.78 216.91C48.78 217.4 48.39 217.79 47.9 217.79C47.41 217.79 47.02 217.4 47.02 216.91C47.02 216.12 47.02 212.17 47.02 205.05C45.38 205.05 44.47 205.05 44.29 205.05C42.97 205.05 41.6 205.15 40.24 205.39C40.24 206.54 40.24 215.76 40.24 216.91C40.24 217.4 39.85 217.79 39.36 217.79C38.87 217.79 38.48 217.4 38.48 216.91C38.48 215.79 38.48 206.85 38.48 205.73C27.59 208.37 19.64 218.13 19.44 229.45C30.84 229.45 70.75 229.45 76.45 229.45Z" id="a6dhzp8nW"></path><path d="M18.56 311.11C18.08 311.11 17.68 310.72 17.68 310.23C17.68 302.24 17.68 238.32 17.68 230.33C17.68 229.84 18.08 229.45 18.56 229.45C24.44 229.45 71.46 229.45 77.33 229.45C77.82 229.45 78.21 229.84 78.21 230.33C78.21 238.32 78.21 302.24 78.21 310.23C78.16 310.72 77.77 311.11 77.28 311.11C65.54 311.11 24.44 311.11 18.56 311.11ZM76.41 309.35L76.41 231.21L19.39 231.21L19.39 309.35L76.41 309.35Z" id="b3jd52CAG"></path><path d="M63.13 310.23C63.13 304.53 63.13 258.92 63.13 253.22C63.13 252.74 63.52 252.35 64.01 252.35C64.5 252.35 64.89 252.74 64.89 253.22C64.89 258.92 64.89 304.49 64.89 310.18C64.89 310.72 64.5 311.11 64.01 311.11C63.52 311.11 63.13 310.72 63.13 310.23Z" id="garEzeSSy"></path><path d="M122.97 164.05C122.48 164.05 122.09 163.66 122.09 163.17C122.09 163.15 122.09 162.99 122.09 162.98C122.09 155.85 127.17 149.7 134.15 148.33C134.15 148.33 134.15 148.33 134.15 148.33C135.13 148.14 136.05 148.04 136.98 148.04C137.37 148.04 140.5 148.04 140.89 148.04C141.81 148.04 142.79 148.14 143.72 148.33C143.72 148.33 143.72 148.33 143.72 148.33C150.7 149.7 155.77 155.85 155.77 162.98C155.77 162.99 155.77 163.15 155.77 163.17C155.82 163.66 155.43 164.05 154.94 164.05C148.55 164.05 126.17 164.05 122.97 164.05ZM154.02 162.34C153.72 156.68 149.82 151.85 144.4 150.33C144.4 150.89 144.4 155.34 144.4 155.9C144.4 156.39 144.01 156.78 143.52 156.78C143.03 156.78 142.64 156.39 142.64 155.9C142.64 155.3 142.64 150.54 142.64 149.94C142.01 149.85 141.42 149.8 140.84 149.8C140.77 149.8 140.41 149.8 139.76 149.8C139.76 153.43 139.76 155.45 139.76 155.85C139.76 156.34 139.37 156.73 138.89 156.73C138.4 156.73 138.01 156.34 138.01 155.85C138.01 155.45 138.01 153.43 138.01 149.8C137.36 149.8 137 149.8 136.93 149.8C136.35 149.8 135.71 149.85 135.13 149.94C135.13 150.53 135.13 155.26 135.13 155.85C135.13 156.34 134.74 156.73 134.25 156.73C133.76 156.73 133.37 156.34 133.37 155.85C133.37 155.29 133.37 150.84 133.37 150.28C128 151.85 124.1 156.68 123.8 162.34C129.85 162.34 151 162.34 154.02 162.34Z" id="n5TWm18qFh"></path><path d="M99.88 312.58C99.4 312.58 99.01 312.19 99.01 311.7C99.01 266.3 111.99 240.92 113.36 238.39C113.36 235.05 113.36 208.38 113.36 205.05C113.36 204.56 113.75 204.07 114.24 204.07C119.18 204.07 158.69 204.07 163.63 204.07C164.12 204.07 164.51 204.46 164.51 204.95C164.51 204.97 164.51 205.09 164.51 205.29C164.51 225.15 164.51 236.18 164.51 238.39C165.88 240.92 178.86 266.16 178.86 311.7C178.86 312.19 178.47 312.58 177.98 312.58C162.36 312.58 107.69 312.58 99.88 312.58ZM177.11 310.82C176.91 264.16 163.05 239.26 162.9 239.02C162.8 238.87 162.8 238.73 162.8 238.58C162.8 236.39 162.8 225.46 162.8 205.78L115.11 205.78C115.11 225.46 115.11 236.39 115.11 238.58C115.11 238.73 115.07 238.87 115.02 239.02C114.82 239.31 100.91 264.21 100.76 310.82C116.03 310.82 169.47 310.82 177.11 310.82Z" id="fjAOd5vM1"></path><path d="M113.55 205.83C113.26 205.83 113.01 205.68 112.87 205.49C111.16 203.1 110.23 200.31 110.23 197.48C110.23 195.37 110.23 178.46 110.23 176.35C110.23 168.69 116.48 162.39 124.19 162.39C127.15 162.39 150.77 162.39 153.72 162.39C161.44 162.39 167.68 168.64 167.68 176.35C167.68 178.46 167.68 195.37 167.68 197.48C167.68 200.31 166.76 203.1 165.05 205.49C164.85 205.68 164.61 205.83 164.32 205.83C154.16 205.83 118.63 205.83 113.55 205.83ZM163.83 204.07C165.15 202.07 165.88 199.78 165.88 197.43C165.88 195.32 165.88 178.41 165.88 176.3C165.88 169.56 160.41 164.1 153.68 164.1C150.72 164.1 127.1 164.1 124.14 164.1C117.41 164.1 111.94 169.56 111.94 176.3C111.94 178.41 111.94 195.32 111.94 197.43C111.99 199.78 112.67 202.07 113.99 204.07C123.96 204.07 158.84 204.07 163.83 204.07Z" id="a1nUPjB5NB"></path><path d="M208.98 404.68C200.93 404.68 194.34 398.14 194.34 390.09C194.34 387.01 194.34 362.41 194.34 359.34C194.34 351.28 200.88 344.69 208.98 344.69C229.87 344.69 397 344.69 417.9 344.69C425.95 344.69 432.54 351.23 432.54 359.34C432.54 362.41 432.54 387.01 432.54 390.09C432.54 398.14 425.95 404.68 417.9 404.68C376.11 404.68 229.87 404.68 208.98 404.68ZM196.09 359.34C196.09 362.41 196.09 387.01 196.09 390.09C196.09 397.21 201.85 402.97 208.98 402.97C229.87 402.97 397 402.97 417.9 402.97C425.02 402.97 430.78 397.21 430.78 390.09C430.78 387.01 430.78 362.41 430.78 359.34C430.78 352.21 425.02 346.45 417.9 346.45C403.97 346.45 334.33 346.45 208.98 346.45C200.39 350.29 196.09 354.59 196.09 359.34Z" id="d2tlwGPGnb"></path><path d="M133.42 374.71C133.42 369.05 138.06 364.41 143.72 364.41C148.87 364.58 190.11 365.95 195.26 366.12C195.75 366.12 196.09 366.51 196.09 367C196.09 368.54 196.09 380.88 196.09 382.42C196.09 382.91 195.7 383.25 195.26 383.3C190.11 383.47 148.87 384.84 143.72 385.01C143.72 385.01 143.72 385.01 143.72 385.01C138.06 385.01 133.42 380.37 133.42 374.71ZM135.13 374.66C135.13 379.4 138.98 383.2 143.67 383.2C147.05 383.09 163.94 382.52 194.34 381.5L194.34 367.73L143.67 366.12C137.97 368.69 135.13 371.54 135.13 374.66Z" id="aTzoXI5A"></path><path d="M483.16 385.01C478 384.84 436.77 383.47 431.61 383.3C431.12 383.3 430.78 382.91 430.78 382.42C430.78 380.88 430.78 368.54 430.78 367C430.78 366.51 431.17 366.17 431.61 366.12C436.76 365.95 477.96 364.58 483.11 364.41C488.82 364.41 493.46 369.05 493.46 374.71C493.46 380.37 488.87 385.01 483.16 385.01C483.16 385.01 483.16 385.01 483.16 385.01ZM483.21 383.3C487.94 383.3 491.75 379.45 491.75 374.76C491.75 370.03 487.89 366.22 483.21 366.22C479.83 366.33 462.94 366.86 432.54 367.83L432.54 381.59C462.94 382.62 479.83 383.19 483.21 383.3Z" id="eb9yeSazh"></path><path d="M334.67 392.09C334.18 392.09 333.79 391.7 333.79 391.21C333.79 390.72 334.18 390.33 334.67 390.33C343.08 390.33 410.32 390.33 418.73 390.33C419.21 390.33 419.6 390.72 419.6 391.21C419.6 391.7 419.21 392.09 418.73 392.09C401.92 392.09 343.08 392.09 334.67 392.09Z" id="a273z95fXS"></path><path d="M296.5 392.09C296.01 392.09 295.62 391.7 295.62 391.21C295.62 390.72 296.01 390.33 296.5 390.33C299.06 390.33 319.56 390.33 322.13 390.33C322.61 390.33 323.01 390.72 323.01 391.21C323.01 391.7 322.61 392.09 322.13 392.09C317 392.09 299.06 392.09 296.5 392.09Z" id="j2Odbn151N"></path><path d="M49.22 395.75C49.12 395.75 49.07 395.75 48.97 395.7C32.67 390.96 21.3 375.83 21.3 358.85C21.3 358.6 21.3 358.36 21.35 358.12C21.35 358.07 21.39 357.72 21.39 357.68C21.39 357.19 21.78 356.85 22.27 356.85C29.77 356.85 89.71 356.85 97.2 356.85C97.69 356.85 98.03 357.24 98.08 357.68C98.08 357.72 98.12 358.07 98.13 358.12C98.13 358.36 98.18 358.6 98.18 358.85C98.18 375.83 86.8 390.96 70.5 395.7C70.3 395.75 70.21 395.75 70.16 395.75C65.97 395.75 51.31 395.75 49.22 395.75ZM70.06 393.99C85.58 389.45 96.37 375 96.37 358.85C96.37 358.75 96.37 358.65 96.37 358.55C89.03 358.55 30.34 358.55 23.01 358.55C23.01 358.65 23.01 358.75 23.01 358.85C23.01 375 33.84 389.45 49.36 393.99C53.5 393.99 67.99 393.99 70.06 393.99Z" id="a7W6zqBUZX"></path><path d="M91.2 380.08C90.71 380.08 90.32 379.69 90.37 379.2C90.37 378.71 90.76 378.32 91.24 378.37C98.47 378.52 103.79 376.91 107.01 373.54C110.57 369.78 110.23 365.14 110.23 365.1C109.7 361.39 108.28 358.95 106.13 357.82C102.47 355.97 97.64 358.51 97.59 358.55C97.15 358.8 96.66 358.6 96.42 358.21C96.17 357.77 96.37 357.29 96.76 357.04C97 356.9 102.42 354.06 106.91 356.31C109.6 357.68 111.31 360.56 111.99 364.9C112.04 365.19 112.38 370.42 108.33 374.76C104.86 378.23 99.49 380.08 92.27 380.08C91.93 380.08 91.59 380.08 91.2 380.08Z" id="c5PB5MwnDt"></path><path d="M27.25 395.75C26.76 395.75 26.37 395.36 26.37 394.87C26.37 394.38 26.76 393.99 27.25 393.99C33.73 393.99 85.59 393.99 92.07 393.99C92.56 393.99 92.95 394.38 92.95 394.87C92.95 395.36 92.56 395.75 92.07 395.75C79.11 395.75 33.73 395.75 27.25 395.75Z" id="d9FM5f7Ge"></path><path d="M58.78 350.89C58.78 348.37 58.78 328.22 58.78 325.71C58.78 325.22 59.18 324.83 59.66 324.83C60.15 324.83 60.54 325.22 60.54 325.71C60.54 328.22 60.54 348.37 60.54 350.89C60.54 351.43 60.15 351.77 59.66 351.77C59.18 351.77 58.78 351.38 58.78 350.89Z" id="dA3dK4ghD"></path><path d="M70.3 350.89C70.3 349.64 70.3 339.6 70.3 338.35C70.3 337.86 70.69 337.47 71.18 337.47C71.67 337.47 72.06 337.86 72.06 338.35C72.06 339.61 72.06 349.68 72.06 350.94C72.01 351.43 71.62 351.77 71.18 351.77C70.69 351.77 70.3 351.38 70.3 350.89Z" id="b1HVNXfN2C"></path><path d="M47.31 350.89C47.31 349.64 47.31 339.6 47.31 338.35C47.31 337.86 47.7 337.47 48.19 337.47C48.68 337.47 49.07 337.86 49.07 338.35C49.07 339.61 49.07 349.68 49.07 350.94C49.07 351.43 48.68 351.77 48.19 351.77C47.7 351.77 47.31 351.38 47.31 350.89Z" id="a7hNriB0Ma"></path><path d="M31.16 119.63C30.67 119.63 30.28 119.24 30.28 118.75C30.28 118.27 30.67 117.88 31.16 117.88C40.32 117.88 113.66 117.88 122.83 117.88C123.31 117.88 123.7 118.27 123.7 118.75C123.7 119.24 123.31 119.63 122.83 119.63C104.49 119.63 40.32 119.63 31.16 119.63Z" id="bkZZyTfLo"></path><path d="M37.84 133.15C37.36 133.15 36.97 132.76 36.97 132.27C36.97 130.93 36.97 120.15 36.97 118.8C36.97 118.31 37.36 117.92 37.84 117.92C45.66 117.92 108.18 117.92 115.99 117.92C116.48 117.92 116.87 118.31 116.87 118.8C116.87 120.15 116.87 130.93 116.87 132.27C116.87 132.76 116.48 133.15 115.99 133.15C100.36 133.15 45.66 133.15 37.84 133.15ZM115.16 131.4L115.16 119.63L38.72 119.63L38.72 131.4L115.16 131.4Z" id="a1ESNy8iyK"></path><path d="M37.84 119.63C37.36 119.63 36.97 119.24 36.97 118.75C36.97 115.86 36.97 92.75 36.97 89.86C24.03 86.2 15 74.34 15 60.87C15 44.22 28.52 30.7 45.17 30.7C45.7 30.7 46.19 30.7 46.73 30.75C47.22 14.4 60.54 1.37 76.89 1.37C93.25 1.37 106.62 14.5 107.06 30.75C107.74 30.7 108.38 30.7 109.06 30.7C125.71 30.7 139.23 44.22 139.23 60.87C139.23 74.58 130.05 86.49 116.87 90C116.87 92.88 116.87 115.92 116.87 118.8C116.87 119.24 116.48 119.63 115.99 119.63C100.36 119.63 45.66 119.63 37.84 119.63ZM38.72 117.92L115.16 117.92C115.16 100.76 115.16 91.23 115.16 89.32C115.16 88.93 115.46 88.59 115.85 88.49C128.63 85.37 137.57 74.04 137.57 60.87C137.57 45.2 124.83 32.41 109.11 32.41C108.23 32.41 107.3 32.46 106.33 32.56C106.08 32.56 105.84 32.51 105.64 32.31C105.45 32.17 105.35 31.92 105.35 31.68C105.35 15.86 92.61 3.08 76.89 3.08C61.23 3.08 48.44 15.81 48.44 31.53C48.44 31.78 48.34 32.07 48.14 32.21C47.95 32.36 47.75 32.56 47.51 32.51C46.73 32.46 45.95 32.41 45.17 32.41C29.5 32.41 16.71 45.15 16.71 60.87C16.71 73.8 25.45 85.12 37.99 88.35C38.38 88.44 38.63 88.78 38.63 89.18C38.63 91.09 38.63 100.67 38.63 117.92L38.72 117.92Z" id="d1iKrQ6Sf2"></path><path d="M105.55 110.65C105.55 108.93 105.55 95.14 105.55 93.42C105.55 92.93 105.94 92.54 106.43 92.54C106.91 92.54 107.3 92.93 107.3 93.42C107.3 95.14 107.3 108.93 107.3 110.65C107.3 111.14 106.91 111.53 106.43 111.53C105.94 111.53 105.55 111.14 105.55 110.65Z" id="a147OMNs3o"></path><path d="M25.35 63.11C25.35 51.59 34.72 42.22 46.24 42.22C46.73 42.22 47.12 42.61 47.12 43.1C47.12 43.59 46.73 43.98 46.24 43.98C35.7 43.98 27.11 52.57 27.11 63.11C27.06 63.6 26.67 63.99 26.23 63.99C25.74 63.99 25.35 63.6 25.35 63.11Z" id="a3QXcujMoq"></path><path d="M547.35 389.89C546.86 389.89 546.47 389.5 546.47 389.01C546.47 383.99 546.47 343.85 546.47 338.84C546.47 324.53 558.08 312.92 572.39 312.92C574.06 312.92 587.41 312.92 589.08 312.92C603.38 312.92 615 324.53 615 338.84C615 343.85 615 383.99 615 389.01C614.9 389.5 614.51 389.89 614.07 389.89C600.73 389.89 554.02 389.89 547.35 389.89ZM613.19 388.18C613.19 358.57 613.19 342.13 613.19 338.84C613.19 325.51 602.36 314.68 589.03 314.68C587.36 314.68 574.01 314.68 572.34 314.68C559.01 314.68 548.18 325.51 548.18 338.84C548.18 342.13 548.18 358.57 548.18 388.18L613.19 388.18Z" id="b2FZUsJbYk"></path><path d="M579.81 313.8C579.81 307.55 579.81 257.61 579.81 251.37C579.81 250.88 580.2 250.49 580.68 250.49C581.17 250.49 581.56 250.88 581.56 251.37C581.56 257.61 581.56 307.55 581.56 313.8C581.56 314.28 581.17 314.68 580.68 314.68C580.2 314.68 579.81 314.28 579.81 313.8Z" id="a4h7UGWok"></path><path d="M570.29 252.25C569.8 252.25 569.41 251.86 569.41 251.37C569.41 241.38 569.41 161.49 569.41 151.5C569.41 151.02 569.8 150.63 570.29 150.63C572.37 150.63 589.05 150.63 591.13 150.63C591.62 150.63 592.01 151.02 592.01 151.5C592.01 161.49 592.01 241.38 592.01 251.37C591.96 251.86 591.57 252.25 591.13 252.25C586.96 252.25 572.37 252.25 570.29 252.25ZM590.25 250.54L590.25 152.38L571.12 152.38L571.12 250.54L590.25 250.54Z" id="b9osSaYyu6"></path><path d="M560.72 375.15C560.72 371.29 560.72 340.45 560.72 336.59C560.72 334.2 562.67 332.25 565.07 332.25C567.46 332.25 569.41 334.2 569.41 336.59C569.41 340.45 569.41 371.29 569.41 375.15C569.41 377.54 567.46 379.49 565.07 379.49C562.67 379.49 560.72 377.54 560.72 375.15ZM562.48 336.54C562.48 340.4 562.48 371.25 562.48 375.1C562.48 376.52 563.65 377.69 565.07 377.69C566.48 377.69 567.65 376.52 567.65 375.1C567.65 371.25 567.65 340.4 567.65 336.54C567.65 335.13 566.48 333.95 565.07 333.95C563.65 333.95 562.48 335.13 562.48 336.54Z" id="a18Ux2fjXX"></path><path d="M576.34 375.15C576.34 371.29 576.34 340.45 576.34 336.59C576.34 334.2 578.29 332.25 580.68 332.25C583.08 332.25 585.03 334.2 585.03 336.59C585.03 340.45 585.03 371.29 585.03 375.15C585.03 377.54 583.08 379.49 580.68 379.49C578.29 379.49 576.34 377.54 576.34 375.15ZM578.1 336.54C578.1 340.4 578.1 371.25 578.1 375.1C578.1 376.52 579.27 377.69 580.68 377.69C582.1 377.69 583.27 376.52 583.27 375.1C583.27 371.25 583.27 340.4 583.27 336.54C583.27 335.13 582.1 333.95 580.68 333.95C579.27 333.95 578.1 335.13 578.1 336.54Z" id="g1vn0Zhgrs"></path><path d="M591.96 375.15C591.96 371.29 591.96 340.45 591.96 336.59C591.96 334.2 593.91 332.25 596.3 332.25C598.7 332.25 600.65 334.2 600.65 336.59C600.65 340.45 600.65 371.29 600.65 375.15C600.65 377.54 598.7 379.49 596.3 379.49C593.91 379.49 591.96 377.54 591.96 375.15ZM593.72 336.54C593.72 340.4 593.72 371.25 593.72 375.1C593.72 376.52 594.89 377.69 596.3 377.69C597.72 377.69 598.89 376.52 598.89 375.1C598.89 371.25 598.89 340.4 598.89 336.54C598.94 335.13 597.77 333.95 596.3 333.95C594.89 333.95 593.72 335.13 593.72 336.54Z" id="b1BmZtBsAK"></path><path d="M22.13 181.38C21.64 181.38 21.25 180.99 21.25 180.5C21.25 180.01 21.64 179.62 22.13 179.62C27.03 179.62 66.23 179.62 71.13 179.62C71.62 179.62 72.01 180.01 72.01 180.5C72.01 180.99 71.62 181.38 71.18 181.38C61.37 181.38 27.03 181.38 22.13 181.38Z" id="dFfteujMc"></path><path d="M48.19 156.97C47.7 156.97 47.31 156.58 47.31 156.09C47.31 155.6 47.7 155.21 48.19 155.21C53.09 155.21 92.3 155.21 97.2 155.21C97.69 155.21 98.08 155.6 98.08 156.09C98.08 156.58 97.69 156.97 97.2 156.97C87.4 156.97 53.09 156.97 48.19 156.97Z" id="exjWui2nN"></path><path d="M462.12 326.63C461.63 326.63 461.24 326.24 461.24 325.75C461.24 325.27 461.63 324.88 462.12 324.88C467.2 324.88 507.81 324.88 512.88 324.88C513.37 324.88 513.76 325.27 513.76 325.75C513.76 326.24 513.37 326.63 512.88 326.63C502.73 326.63 467.2 326.63 462.12 326.63Z" id="a1ffxtAjdV"></path><path d="M462.12 345.47C461.63 345.47 461.24 345.08 461.24 344.6C461.24 344.11 461.63 343.72 462.12 343.72C464.3 343.72 481.71 343.72 483.89 343.72C484.38 343.72 484.77 344.11 484.77 344.6C484.77 345.13 484.38 345.47 483.89 345.47C479.54 345.47 464.3 345.47 462.12 345.47Z" id="a9nsOdqTx"></path><path d="M508.15 345.47C507.66 345.47 507.27 345.08 507.27 344.6C507.27 344.11 507.66 343.72 508.15 343.72C509.81 343.72 523.09 343.72 524.75 343.72C525.23 343.72 525.62 344.11 525.62 344.6C525.58 345.13 525.19 345.47 524.75 345.47C521.43 345.47 509.81 345.47 508.15 345.47Z" id="i7dWh34WK"></path><path d="M565.02 72.19C564.53 72.19 564.14 71.8 564.14 71.31C564.14 70.82 564.53 70.43 565.02 70.43C568.15 70.43 593.18 70.43 596.3 70.43C596.79 70.43 597.18 70.82 597.18 71.31C597.18 71.8 596.79 72.19 596.3 72.19C590.05 72.19 568.15 72.19 565.02 72.19Z" id="f1j5D49J9R"></path><path d="M565.07 53.98C564.58 53.98 564.19 53.59 564.19 53.1C564.19 52.62 564.58 52.23 565.07 52.23C569.97 52.23 609.17 52.23 614.07 52.23C614.56 52.23 614.95 52.62 614.95 53.1C614.95 53.59 614.51 53.98 614.07 53.98C604.27 53.98 569.97 53.98 565.07 53.98Z" id="emE1RbKuR"></path><path d="M565.07 33.97C564.58 33.97 564.19 33.58 564.19 33.09C564.19 32.6 564.58 32.21 565.07 32.21C567.52 32.21 587.12 32.21 589.57 32.21C590.06 32.21 590.45 32.6 590.45 33.09C590.45 33.58 590.01 33.97 589.57 33.97C584.67 33.97 567.52 33.97 565.07 33.97Z" id="aTPIDKMZm"></path><path d="M138.93 119.63C138.45 119.63 138.06 119.24 138.06 118.75C138.06 118.27 138.45 117.88 138.93 117.88C141.52 117.88 162.17 117.88 164.76 117.88C165.24 117.88 165.63 118.27 165.63 118.75C165.63 119.24 165.24 119.63 164.76 119.63C159.59 119.63 141.52 119.63 138.93 119.63Z" id="al6Ux5jr"></path><path d="M244.91 72.29C243.1 73.85 240.71 74.63 237.78 74.63C234.17 74.63 231.43 73.12 229.58 70.19C228.02 67.7 227.24 64.48 227.24 60.62C227.24 56.77 228.07 53.5 229.63 50.96C231.53 47.98 234.31 46.47 237.93 46.47C242.81 46.47 245.98 48.47 247.3 52.47C247.3 52.49 247.34 52.57 247.4 52.71L249.05 51.84C249.03 51.72 249.01 51.65 249.01 51.64C248.37 49.93 247.3 48.47 245.83 47.3C243.73 45.64 241.2 44.81 238.17 44.81C233.78 44.81 230.41 46.42 228.21 49.64C226.31 52.47 225.33 56.18 225.33 60.67C225.33 65.16 226.26 68.82 228.16 71.55C230.36 74.73 233.63 76.34 237.97 76.34C241.34 76.34 244.08 75.41 246.17 73.6C247.74 72.24 248.76 70.48 249.3 68.43C249.3 68.42 249.32 68.37 249.35 68.28L247.74 67.45L247.69 67.6C246.74 69.94 245.82 71.51 244.91 72.29Z" id="a1pm0GIEvS"></path><path d="M256.77 49.49C254.67 52.32 253.59 56.03 253.59 60.57C253.59 65.16 254.67 68.87 256.77 71.65C259.11 74.73 262.53 76.29 267.02 76.29C271.51 76.29 274.97 74.73 277.32 71.65C279.42 68.87 280.49 65.16 280.49 60.57C280.49 56.03 279.42 52.28 277.32 49.44C274.97 46.32 271.51 44.76 267.02 44.76C262.58 44.76 259.11 46.37 256.77 49.49ZM258.13 70.43C256.38 67.94 255.5 64.62 255.5 60.57C255.5 56.52 256.38 53.2 258.13 50.71C260.14 47.88 263.16 46.47 267.02 46.47C270.87 46.47 273.85 47.88 275.9 50.71C277.71 53.2 278.59 56.52 278.59 60.57C278.59 64.67 277.71 67.99 275.95 70.43C273.95 73.21 270.97 74.63 267.02 74.63C263.11 74.63 260.14 73.21 258.13 70.43Z" id="b3Rdn1WWNR"></path><path d="M287.52 49.49C285.42 52.32 284.35 56.03 284.35 60.57C284.35 65.16 285.42 68.87 287.52 71.65C289.86 74.73 293.28 76.29 297.77 76.29C302.26 76.29 305.73 74.73 308.07 71.65C310.17 68.87 311.24 65.16 311.24 60.57C311.24 56.03 310.17 52.28 308.07 49.44C305.68 46.32 302.26 44.76 297.77 44.76C293.33 44.76 289.86 46.37 287.52 49.49ZM288.89 70.43C287.13 67.94 286.25 64.62 286.25 60.57C286.25 56.52 287.13 53.2 288.89 50.71C290.89 47.88 293.91 46.47 297.77 46.47C301.63 46.47 304.6 47.88 306.65 50.71C308.46 53.2 309.34 56.52 309.34 60.57C309.34 64.67 308.46 67.99 306.7 70.43C304.7 73.21 301.67 74.63 297.77 74.63C293.86 74.63 290.89 73.21 288.89 70.43Z" id="f9aOi5PL9"></path><path d="M334.43 45.39L318.17 61.89L318.17 45.39L316.32 45.39L316.32 75.65L318.17 75.65L318.17 64.33L323.59 58.86L336.23 75.56L336.28 75.65L338.53 75.65L324.81 57.6L336.82 45.39L334.43 45.39Z" id="a5ejSYxRz"></path><path d="M342.48 45.39C342.48 45.39 342.48 45.39 342.48 45.39C342.48 63.55 342.48 73.64 342.48 75.65C342.48 75.65 342.48 75.65 342.48 75.65C341.4 75.65 340.8 75.65 340.68 75.65C340.68 75.65 340.68 75.65 340.68 75.65C340.68 57.5 340.68 47.41 340.68 45.39C340.68 45.39 340.68 45.39 340.68 45.39C341.76 45.39 342.36 45.39 342.48 45.39Z" id="b1ketxY5U7"></path><path d="M350.83 45.49L350.78 45.39L349.02 45.39L349.02 75.65L350.83 75.65L350.83 48.71L369.28 75.65L370.94 75.65L370.94 45.39L369.13 45.39L369.13 72.38L350.83 45.49Z" id="cxso3xsd3"></path><path d="M401.5 60.96L389.93 60.96L389.93 62.62L399.74 62.62C399.74 63.27 399.74 63.62 399.74 63.7C399.74 67.06 398.81 69.7 397 71.65C395.15 73.65 392.51 74.63 389.24 74.63C385.48 74.63 382.56 73.17 380.6 70.29C378.85 67.8 377.97 64.53 377.97 60.52C377.97 56.52 378.85 53.25 380.6 50.71C382.6 47.83 385.53 46.37 389.24 46.37C394.47 46.37 397.64 48.47 398.96 52.81C398.96 52.83 399 52.91 399.05 53.06L400.76 52.23C400.73 52.11 400.72 52.04 400.71 52.03C399.93 49.54 398.47 47.64 396.32 46.42C394.37 45.25 391.98 44.71 389.29 44.71C384.9 44.71 381.48 46.32 379.19 49.54C377.14 52.32 376.11 56.03 376.11 60.52C376.11 65.01 377.14 68.68 379.24 71.51C381.53 74.63 384.9 76.24 389.29 76.24C391.24 76.24 393.15 75.85 394.95 75.17C399.35 73.31 401.59 69.11 401.59 62.67C401.59 62.6 401.59 62.01 401.59 61.94C401.5 61.7 401.5 61.45 401.5 61.16C401.5 61.13 401.5 61.07 401.5 60.96Z" id="acmIKat"></path><path d="M138.93 94.3C138.45 94.3 138.06 93.91 138.06 93.42C138.06 92.93 138.45 92.54 138.93 92.54C140.75 92.54 155.28 92.54 157.09 92.54C157.58 92.54 157.97 92.93 157.97 93.42C157.97 93.91 157.58 94.3 157.09 94.3C153.46 94.3 140.75 94.3 138.93 94.3Z" id="d2u8uYnSA"></path><path d="M171.83 75.56C171.91 73.37 172.49 55.88 172.57 53.69C172.57 53.2 172.96 52.86 173.44 52.86C175.26 52.86 189.74 52.86 191.55 52.86C192.04 52.86 192.38 53.25 192.43 53.69C192.51 55.87 193.09 73.33 193.16 75.51C193.12 81.46 188.33 86.2 182.47 86.2C176.62 86.2 171.83 81.41 171.83 75.56ZM173.54 75.61C173.54 80.49 177.54 84.49 182.43 84.49C187.36 84.49 191.31 80.49 191.31 75.61C191.26 74.21 191.04 67.23 190.63 54.67L174.23 54.67C173.82 67.23 173.59 74.21 173.54 75.61Z" id="a8KHoWMuo"></path><path d="M154.41 54.62C153.97 54.62 153.63 54.33 153.53 53.89C153.29 52.23 153.14 50.71 153.14 49.3C153.14 33.14 166.27 20.01 182.43 20.01C198.58 20.01 211.71 33.14 211.71 49.3C211.71 50.71 211.57 52.18 211.32 53.89C211.27 54.33 210.93 54.62 210.49 54.62C199.28 54.62 160.02 54.62 154.41 54.62ZM209.76 52.91C209.96 51.64 210 50.42 210 49.35C210 34.17 197.66 21.82 182.47 21.82C167.29 21.82 154.94 34.17 154.94 49.35C154.9 50.42 154.99 51.59 155.19 52.91C166.1 52.91 204.3 52.91 209.76 52.91Z" id="b9vJ0md35"></path></defs><g><g><g><use xlink:href="#d1AIb38P2J" opacity="1" fill-opacity="0" stroke="#000000" stroke-width="1" stroke-opacity="0"></use></g></g><g><use xlink:href="#a2CuFBOUS" opacity="1" fill="#000000" fill-opacity="1"></use><g><use xlink:href="#a2CuFBOUS" opacity="1" fill-opacity="0" stroke="#000000" stroke-width="1" stroke-opacity="0"></use></g></g><g><use xlink:href="#b4BgdRIbN" opacity="1" fill="#000000" fill-opacity="1"></use><g><use xlink:href="#b4BgdRIbN" opacity="1" fill-opacity="0" stroke="#000000" stroke-width="1" stroke-opacity="0"></use></g></g><g><use xlink:href="#a4k8sRuYRn" opacity="1" fill="#000000" fill-opacity="1"></use><g><use xlink:href="#a4k8sRuYRn" opacity="1" fill-opacity="0" stroke="#000000" stroke-width="1" stroke-opacity="0"></use></g></g><g><use xlink:href="#c8rADDpY" opacity="1" fill="#000000" fill-opacity="1"></use><g><use xlink:href="#c8rADDpY" opacity="1" fill-opacity="0" stroke="#000000" stroke-width="1" stroke-opacity="0"></use></g></g><g><use xlink:href="#b193owxv9m" opacity="1" fill="#000000" fill-opacity="1"></use><g><use xlink:href="#b193owxv9m" opacity="1" fill-opacity="0" stroke="#000000" stroke-width="1" stroke-opacity="0"></use></g></g><g><use xlink:href="#c1OlhUSWJf" opacity="1" fill="#000000" fill-opacity="1"></use><g><use xlink:href="#c1OlhUSWJf" opacity="1" fill-opacity="0" stroke="#000000" stroke-width="1" stroke-opacity="0"></use></g></g><g><use xlink:href="#cIYzRzNYX" opacity="1" fill="#000000" fill-opacity="1"></use><g><use xlink:href="#cIYzRzNYX" opacity="1" fill-opacity="0" stroke="#000000" stroke-width="1" stroke-opacity="0"></use></g></g><g><use xlink:href="#a3e7dhtlEM" opacity="1" fill="#000000" fill-opacity="1"></use><g><use xlink:href="#a3e7dhtlEM" opacity="1" fill-opacity="0" stroke="#000000" stroke-width="1" stroke-opacity="0"></use></g></g><g><use xlink:href="#d2iHmBBG6Q" opacity="1" fill="#000000" fill-opacity="1"></use><g><use xlink:href="#d2iHmBBG6Q" opacity="1" fill-opacity="0" stroke="#000000" stroke-width="1" stroke-opacity="0"></use></g></g><g><use xlink:href="#gVx9RRfJy" opacity="1" fill="#000000" fill-opacity="1"></use><g><use xlink:href="#gVx9RRfJy" opacity="1" fill-opacity="0" stroke="#000000" stroke-width="1" stroke-opacity="0"></use></g></g><g><use xlink:href="#c20YBo1b6S" opacity="1" fill="#000000" fill-opacity="1"></use><g><use xlink:href="#c20YBo1b6S" opacity="1" fill-opacity="0" stroke="#000000" stroke-width="1" stroke-opacity="0"></use></g></g><g><use xlink:href="#c1fKaEiX9a" opacity="1" fill="#000000" fill-opacity="1"></use><g><use xlink:href="#c1fKaEiX9a" opacity="1" fill-opacity="0" stroke="#000000" stroke-width="1" stroke-opacity="0"></use></g></g><g><use xlink:href="#a9YbQjC77" opacity="1" fill="#000000" fill-opacity="1"></use><g><use xlink:href="#a9YbQjC77" opacity="1" fill-opacity="0" stroke="#000000" stroke-width="1" stroke-opacity="0"></use></g></g><g><use xlink:href="#c1g7x6spnP" opacity="1" fill="#000000" fill-opacity="1"></use><g><use xlink:href="#c1g7x6spnP" opacity="1" fill-opacity="0" stroke="#000000" stroke-width="1" stroke-opacity="0"></use></g></g><g><use xlink:href="#akDNxJWRd" opacity="1" fill="#000000" fill-opacity="1"></use><g><use xlink:href="#akDNxJWRd" opacity="1" fill-opacity="0" stroke="#000000" stroke-width="1" stroke-opacity="0"></use></g></g><g><use xlink:href="#bQQEs4I2E" opacity="1" fill="#000000" fill-opacity="1"></use><g><use xlink:href="#bQQEs4I2E" opacity="1" fill-opacity="0" stroke="#000000" stroke-width="1" stroke-opacity="0"></use></g></g><g><use xlink:href="#aJtUgxSwl" opacity="1" fill="#000000" fill-opacity="1"></use><g><use xlink:href="#aJtUgxSwl" opacity="1" fill-opacity="0" stroke="#000000" stroke-width="1" stroke-opacity="0"></use></g></g><g><use xlink:href="#ejuEwy4So" opacity="1" fill="#000000" fill-opacity="1"></use><g><use xlink:href="#ejuEwy4So" opacity="1" fill-opacity="0" stroke="#000000" stroke-width="1" stroke-opacity="0"></use></g></g><g><use xlink:href="#a6dhzp8nW" opacity="1" fill="#000000" fill-opacity="1"></use><g><use xlink:href="#a6dhzp8nW" opacity="1" fill-opacity="0" stroke="#000000" stroke-width="1" stroke-opacity="0"></use></g></g><g><use xlink:href="#b3jd52CAG" opacity="1" fill="#000000" fill-opacity="1"></use><g><use xlink:href="#b3jd52CAG" opacity="1" fill-opacity="0" stroke="#000000" stroke-width="1" stroke-opacity="0"></use></g></g><g><use xlink:href="#garEzeSSy" opacity="1" fill="#000000" fill-opacity="1"></use><g><use xlink:href="#garEzeSSy" opacity="1" fill-opacity="0" stroke="#000000" stroke-width="1" stroke-opacity="0"></use></g></g><g><use xlink:href="#n5TWm18qFh" opacity="1" fill="#000000" fill-opacity="1"></use><g><use xlink:href="#n5TWm18qFh" opacity="1" fill-opacity="0" stroke="#000000" stroke-width="1" stroke-opacity="0"></use></g></g><g><use xlink:href="#fjAOd5vM1" opacity="1" fill="#000000" fill-opacity="1"></use><g><use xlink:href="#fjAOd5vM1" opacity="1" fill-opacity="0" stroke="#000000" stroke-width="1" stroke-opacity="0"></use></g></g><g><use xlink:href="#a1nUPjB5NB" opacity="1" fill="#000000" fill-opacity="1"></use><g><use xlink:href="#a1nUPjB5NB" opacity="1" fill-opacity="0" stroke="#000000" stroke-width="1" stroke-opacity="0"></use></g></g><g><use xlink:href="#d2tlwGPGnb" opacity="1" fill="#000000" fill-opacity="1"></use><g><use xlink:href="#d2tlwGPGnb" opacity="1" fill-opacity="0" stroke="#000000" stroke-width="1" stroke-opacity="0"></use></g></g><g><use xlink:href="#aTzoXI5A" opacity="1" fill="#000000" fill-opacity="1"></use><g><use xlink:href="#aTzoXI5A" opacity="1" fill-opacity="0" stroke="#000000" stroke-width="1" stroke-opacity="0"></use></g></g><g><use xlink:href="#eb9yeSazh" opacity="1" fill="#000000" fill-opacity="1"></use><g><use xlink:href="#eb9yeSazh" opacity="1" fill-opacity="0" stroke="#000000" stroke-width="1" stroke-opacity="0"></use></g></g><g><use xlink:href="#a273z95fXS" opacity="1" fill="#000000" fill-opacity="1"></use><g><use xlink:href="#a273z95fXS" opacity="1" fill-opacity="0" stroke="#000000" stroke-width="1" stroke-opacity="0"></use></g></g><g><use xlink:href="#j2Odbn151N" opacity="1" fill="#000000" fill-opacity="1"></use><g><use xlink:href="#j2Odbn151N" opacity="1" fill-opacity="0" stroke="#000000" stroke-width="1" stroke-opacity="0"></use></g></g><g><use xlink:href="#a7W6zqBUZX" opacity="1" fill="#000000" fill-opacity="1"></use><g><use xlink:href="#a7W6zqBUZX" opacity="1" fill-opacity="0" stroke="#000000" stroke-width="1" stroke-opacity="0"></use></g></g><g><use xlink:href="#c5PB5MwnDt" opacity="1" fill="#000000" fill-opacity="1"></use><g><use xlink:href="#c5PB5MwnDt" opacity="1" fill-opacity="0" stroke="#000000" stroke-width="1" stroke-opacity="0"></use></g></g><g><use xlink:href="#d9FM5f7Ge" opacity="1" fill="#000000" fill-opacity="1"></use><g><use xlink:href="#d9FM5f7Ge" opacity="1" fill-opacity="0" stroke="#000000" stroke-width="1" stroke-opacity="0"></use></g></g><g><use xlink:href="#dA3dK4ghD" opacity="1" fill="#000000" fill-opacity="1"></use><g><use xlink:href="#dA3dK4ghD" opacity="1" fill-opacity="0" stroke="#000000" stroke-width="1" stroke-opacity="0"></use></g></g><g><use xlink:href="#b1HVNXfN2C" opacity="1" fill="#000000" fill-opacity="1"></use><g><use xlink:href="#b1HVNXfN2C" opacity="1" fill-opacity="0" stroke="#000000" stroke-width="1" stroke-opacity="0"></use></g></g><g><use xlink:href="#a7hNriB0Ma" opacity="1" fill="#000000" fill-opacity="1"></use><g><use xlink:href="#a7hNriB0Ma" opacity="1" fill-opacity="0" stroke="#000000" stroke-width="1" stroke-opacity="0"></use></g></g><g><use xlink:href="#bkZZyTfLo" opacity="1" fill="#000000" fill-opacity="1"></use><g><use xlink:href="#bkZZyTfLo" opacity="1" fill-opacity="0" stroke="#000000" stroke-width="1" stroke-opacity="0"></use></g></g><g><use xlink:href="#a1ESNy8iyK" opacity="1" fill="#000000" fill-opacity="1"></use><g><use xlink:href="#a1ESNy8iyK" opacity="1" fill-opacity="0" stroke="#000000" stroke-width="1" stroke-opacity="0"></use></g></g><g><use xlink:href="#d1iKrQ6Sf2" opacity="1" fill="#000000" fill-opacity="1"></use><g><use xlink:href="#d1iKrQ6Sf2" opacity="1" fill-opacity="0" stroke="#000000" stroke-width="1" stroke-opacity="0"></use></g></g><g><use xlink:href="#a147OMNs3o" opacity="1" fill="#000000" fill-opacity="1"></use><g><use xlink:href="#a147OMNs3o" opacity="1" fill-opacity="0" stroke="#000000" stroke-width="1" stroke-opacity="0"></use></g></g><g><use xlink:href="#a3QXcujMoq" opacity="1" fill="#000000" fill-opacity="1"></use><g><use xlink:href="#a3QXcujMoq" opacity="1" fill-opacity="0" stroke="#000000" stroke-width="1" stroke-opacity="0"></use></g></g><g><use xlink:href="#b2FZUsJbYk" opacity="1" fill="#000000" fill-opacity="1"></use><g><use xlink:href="#b2FZUsJbYk" opacity="1" fill-opacity="0" stroke="#000000" stroke-width="1" stroke-opacity="0"></use></g></g><g><use xlink:href="#a4h7UGWok" opacity="1" fill="#000000" fill-opacity="1"></use><g><use xlink:href="#a4h7UGWok" opacity="1" fill-opacity="0" stroke="#000000" stroke-width="1" stroke-opacity="0"></use></g></g><g><use xlink:href="#b9osSaYyu6" opacity="1" fill="#000000" fill-opacity="1"></use><g><use xlink:href="#b9osSaYyu6" opacity="1" fill-opacity="0" stroke="#000000" stroke-width="1" stroke-opacity="0"></use></g></g><g><use xlink:href="#a18Ux2fjXX" opacity="1" fill="#000000" fill-opacity="1"></use><g><use xlink:href="#a18Ux2fjXX" opacity="1" fill-opacity="0" stroke="#000000" stroke-width="1" stroke-opacity="0"></use></g></g><g><use xlink:href="#g1vn0Zhgrs" opacity="1" fill="#000000" fill-opacity="1"></use><g><use xlink:href="#g1vn0Zhgrs" opacity="1" fill-opacity="0" stroke="#000000" stroke-width="1" stroke-opacity="0"></use></g></g><g><use xlink:href="#b1BmZtBsAK" opacity="1" fill="#000000" fill-opacity="1"></use><g><use xlink:href="#b1BmZtBsAK" opacity="1" fill-opacity="0" stroke="#000000" stroke-width="1" stroke-opacity="0"></use></g></g><g><use xlink:href="#dFfteujMc" opacity="1" fill="#000000" fill-opacity="1"></use><g><use xlink:href="#dFfteujMc" opacity="1" fill-opacity="0" stroke="#000000" stroke-width="1" stroke-opacity="0"></use></g></g><g><use xlink:href="#exjWui2nN" opacity="1" fill="#000000" fill-opacity="1"></use><g><use xlink:href="#exjWui2nN" opacity="1" fill-opacity="0" stroke="#000000" stroke-width="1" stroke-opacity="0"></use></g></g><g><use xlink:href="#a1ffxtAjdV" opacity="1" fill="#000000" fill-opacity="1"></use><g><use xlink:href="#a1ffxtAjdV" opacity="1" fill-opacity="0" stroke="#000000" stroke-width="1" stroke-opacity="0"></use></g></g><g><use xlink:href="#a9nsOdqTx" opacity="1" fill="#000000" fill-opacity="1"></use><g><use xlink:href="#a9nsOdqTx" opacity="1" fill-opacity="0" stroke="#000000" stroke-width="1" stroke-opacity="0"></use></g></g><g><use xlink:href="#i7dWh34WK" opacity="1" fill="#000000" fill-opacity="1"></use><g><use xlink:href="#i7dWh34WK" opacity="1" fill-opacity="0" stroke="#000000" stroke-width="1" stroke-opacity="0"></use></g></g><g><use xlink:href="#f1j5D49J9R" opacity="1" fill="#000000" fill-opacity="1"></use><g><use xlink:href="#f1j5D49J9R" opacity="1" fill-opacity="0" stroke="#000000" stroke-width="1" stroke-opacity="0"></use></g></g><g><use xlink:href="#emE1RbKuR" opacity="1" fill="#000000" fill-opacity="1"></use><g><use xlink:href="#emE1RbKuR" opacity="1" fill-opacity="0" stroke="#000000" stroke-width="1" stroke-opacity="0"></use></g></g><g><use xlink:href="#aTPIDKMZm" opacity="1" fill="#000000" fill-opacity="1"></use><g><use xlink:href="#aTPIDKMZm" opacity="1" fill-opacity="0" stroke="#000000" stroke-width="1" stroke-opacity="0"></use></g></g><g><use xlink:href="#al6Ux5jr" opacity="1" fill="#000000" fill-opacity="1"></use><g><use xlink:href="#al6Ux5jr" opacity="1" fill-opacity="0" stroke="#000000" stroke-width="1" stroke-opacity="0"></use></g></g><g><use xlink:href="#a1pm0GIEvS" opacity="1" fill="#231f20" fill-opacity="1"></use><g><use xlink:href="#a1pm0GIEvS" opacity="1" fill-opacity="0" stroke="#000000" stroke-width="1" stroke-opacity="0"></use></g></g><g><use xlink:href="#b3Rdn1WWNR" opacity="1" fill="#231f20" fill-opacity="1"></use><g><use xlink:href="#b3Rdn1WWNR" opacity="1" fill-opacity="0" stroke="#000000" stroke-width="1" stroke-opacity="0"></use></g></g><g><use xlink:href="#f9aOi5PL9" opacity="1" fill="#231f20" fill-opacity="1"></use><g><use xlink:href="#f9aOi5PL9" opacity="1" fill-opacity="0" stroke="#000000" stroke-width="1" stroke-opacity="0"></use></g></g><g><use xlink:href="#a5ejSYxRz" opacity="1" fill="#231f20" fill-opacity="1"></use><g><use xlink:href="#a5ejSYxRz" opacity="1" fill-opacity="0" stroke="#000000" stroke-width="1" stroke-opacity="0"></use></g></g><g><use xlink:href="#b1ketxY5U7" opacity="1" fill="#231f20" fill-opacity="1"></use><g><use xlink:href="#b1ketxY5U7" opacity="1" fill-opacity="0" stroke="#000000" stroke-width="1" stroke-opacity="0"></use></g></g><g><use xlink:href="#cxso3xsd3" opacity="1" fill="#231f20" fill-opacity="1"></use><g><use xlink:href="#cxso3xsd3" opacity="1" fill-opacity="0" stroke="#000000" stroke-width="1" stroke-opacity="0"></use></g></g><g><use xlink:href="#acmIKat" opacity="1" fill="#231f20" fill-opacity="1"></use><g><use xlink:href="#acmIKat" opacity="1" fill-opacity="0" stroke="#000000" stroke-width="1" stroke-opacity="0"></use></g></g><g><use xlink:href="#d2u8uYnSA" opacity="1" fill="#000000" fill-opacity="1"></use><g><use xlink:href="#d2u8uYnSA" opacity="1" fill-opacity="0" stroke="#000000" stroke-width="1" stroke-opacity="0"></use></g></g><g><use xlink:href="#a8KHoWMuo" opacity="1" fill="#000000" fill-opacity="1"></use><g><use xlink:href="#a8KHoWMuo" opacity="1" fill-opacity="0" stroke="#000000" stroke-width="1" stroke-opacity="0"></use></g></g><g><use xlink:href="#b9vJ0md35" opacity="1" fill="#000000" fill-opacity="1"></use><g><use xlink:href="#b9vJ0md35" opacity="1" fill-opacity="0" stroke="#000000" stroke-width="1" stroke-opacity="0"></use></g></g></g></svg>