<?xml version="1.0" encoding="UTF-8" standalone="no"?>
<svg
   xmlns:dc="http://purl.org/dc/elements/1.1/"
   xmlns:cc="http://creativecommons.org/ns#"
   xmlns:rdf="http://www.w3.org/1999/02/22-rdf-syntax-ns#"
   xmlns:svg="http://www.w3.org/2000/svg"
   xmlns="http://www.w3.org/2000/svg"
   xmlns:sodipodi="http://sodipodi.sourceforge.net/DTD/sodipodi-0.dtd"
   xmlns:inkscape="http://www.inkscape.org/namespaces/inkscape"
   inkscape:version="1.0beta2 (2b71d25, 2019-12-03)"
   sodipodi:docname="HealthyFood_02.svg"
   id="svg1284"
   xml:space="preserve"
   style="enable-background:new 0 0 2800 2800;"
   viewBox="0 0 2800 2800"
   height="2800px"
   width="2800px"
   y="0px"
   x="0px"
   version="1.1"><metadata
   id="metadata1290"><rdf:RDF><cc:Work
       rdf:about=""><dc:format>image/svg+xml</dc:format><dc:type
         rdf:resource="http://purl.org/dc/dcmitype/StillImage" /></cc:Work></rdf:RDF></metadata><defs
   id="defs1288">
	
	
	
	
	
	
	
	
	
	
	
	
	
	
	
	

		
		
	
		
		
	
		
		
		
	
		
		
		
		
		
		
		
		
		
		
		
		
		
	
		
		
	
		
		
		
		
		
		
		
		
		
		
	
		
		
	
		
		
	
		
		
		
		
		
	
		
		
		
		
	
		
		
		
	
		
		
		
		
		
		
		
		
		
		
		
		
	
		
		
		
		
		
	
		
		
		
	
		
		
		
	
		
		
		
	
			
			
		
			
			
		
			
			
		
			
			
		
			
				
			
		
			
			
		
			
			
		
			
			
		
			
		
			
			
		
			
			
		
			
			
		
			
			
		
			
			
		
			
			
		
			
		
			
		
			
		
			
		
			
		
			
		
			
		
			
		
			
		
			
			
		
			
			
		
			
			
		
			
			
		
			
			
		
			
			
		
			
		
			
		
			
		
			
			
		
			
			
		
			
			
		
			
			
		
			
			
		
			
			
		
			
			
		
			
			
		
			
			
		
			
		
			
		
			
		
			
		
			
		
			
		
			
				
			
		
			
			
		
			
			
		
			
			
		
			
			
		
			
			
		
			
			
		
			
		
			
		
			
		
			
		
			
		
			
		
			
		
			
		
			
			
		
			
			
		
			
				
			
		
			
				
			
		
			
			
		
			
			
		
			
			
		
			
			
			
			
			
			
			
			
			
			
			
			
		
			
			
		
			
			
			
			
			
			
			
		
			
			
			
			
			
			
			
		
	

				
				
			
				
			
				
				
			
				
			
				
				
			
				
			
				
				
			
				
				
			
				
			
				
				
			
				
				
			
				
				
			
				
				
			
				
				
			
				
				
			
				
				
			
				
			
				
			
				
			
				
			
				
			
				
			
				
			
				
			
				
				
			
				
			
				
			
				
			
				
				
			
				
				
			
				
				
			
				
				
			
				
			
				
			
				
			
				
				
			
				
				
			
				
				
			
		
	
			
		</defs><sodipodi:namedview
   inkscape:current-layer="svg1284"
   inkscape:window-maximized="0"
   inkscape:window-y="0"
   inkscape:window-x="0"
   inkscape:cy="1400"
   inkscape:cx="1400"
   inkscape:zoom="0.20178571"
   showgrid="false"
   id="namedview1286"
   inkscape:window-height="900"
   inkscape:window-width="1440"
   inkscape:pageshadow="2"
   inkscape:pageopacity="0"
   guidetolerance="10"
   gridtolerance="10"
   objecttolerance="10"
   borderopacity="1"
   inkscape:document-rotation="0"
   bordercolor="#666666"
   pagecolor="#ffffff" />
<style
   id="style694"
   type="text/css">
	.st0{fill:#FFFFFF;}
	.st1{fill:#F6AA21;}
	.st2{fill:#411424;}
	.st3{fill:#A5C83D;}
	.st4{fill:#F2EFDD;}
	.st5{fill:#ED6959;}
	.st6{fill:#D8EEF9;}
</style>

<path
   inkscape:connector-curvature="0"
   id="path705"
   d="m 1043,355.6 c -6.4,-24.7 -31.6,-39.5 -56.3,-33.1 -24.7,6.4 -39.5,31.6 -33.1,56.3 6.4,24.7 74.6,205.1 99.3,198.7 24.8,-6.4 -3.5,-197.3 -9.9,-221.9 z"
   class="st1" /><path
   inkscape:connector-curvature="0"
   id="path707"
   d="m 1051.6,582.7 c -7.8,0 -16.5,-8.7 -27.9,-27.5 -9.2,-15.1 -19.8,-36.4 -31.8,-63.4 C 970.8,444 952,392.3 948.8,380 c -7.1,-27.3 9.3,-55.3 36.6,-62.4 13.2,-3.4 27,-1.5 38.8,5.4 11.8,6.9 20.2,18 23.6,31.2 v 0 c 3.2,12.2 12,66.5 16.8,118.6 2.7,29.4 3.8,53.2 3.1,70.9 -0.9,24.5 -5.1,36.4 -13.5,38.6 -0.8,0.2 -1.7,0.4 -2.6,0.4 z M 998.4,326 c -3.5,0 -7,0.4 -10.4,1.3 -22,5.7 -35.2,28.2 -29.5,50.2 3.1,12 21.6,62.9 42.5,110.2 38.4,87 50.5,84.9 50.7,84.9 0.1,0 11.7,-4.2 2.9,-98.8 -4.8,-51.6 -13.4,-105.1 -16.5,-117 v 0 c -2.8,-10.6 -9.5,-19.6 -19,-25.1 -6.3,-3.8 -13.4,-5.7 -20.7,-5.7 z"
   class="st2" /><path
   inkscape:connector-curvature="0"
   id="path711"
   d="m 961.5,407.2 c -2.2,0 -4.3,-1.5 -4.8,-3.7 -0.7,-2.7 0.9,-5.4 3.6,-6.1 l 43.1,-11.2 c 2.7,-0.7 5.4,0.9 6.1,3.6 0.7,2.7 -0.9,5.4 -3.6,6.1 L 962.7,407 c -0.4,0.1 -0.8,0.2 -1.2,0.2 z"
   class="st2" /><path
   inkscape:connector-curvature="0"
   id="path715"
   d="m 1015.9,439.5 c -2.2,0 -4.3,-1.5 -4.8,-3.7 -0.7,-2.7 0.9,-5.4 3.6,-6.1 l 38.6,-10 c 2.7,-0.7 5.4,0.9 6.1,3.6 0.7,2.7 -0.9,5.4 -3.6,6.1 l -38.6,10 c -0.5,0.1 -0.9,0.1 -1.3,0.1 z"
   class="st2" /><path
   inkscape:connector-curvature="0"
   id="path719"
   d="m 998,498.1 c -2.2,0 -4.3,-1.5 -4.8,-3.7 -0.7,-2.7 0.9,-5.4 3.6,-6.1 l 31,-8.1 c 2.7,-0.7 5.4,0.9 6.1,3.6 0.7,2.7 -0.9,5.4 -3.6,6.1 l -31,8.1 c -0.5,0.1 -0.9,0.1 -1.3,0.1 z"
   class="st2" /><path
   inkscape:connector-curvature="0"
   id="path723"
   d="m 989.5,277.5 c 6,22.9 -2.7,45 -2.7,45 0,0 -18.3,-15.1 -24.2,-38 -6,-22.9 2.7,-45 2.7,-45 0,0 18.2,15.1 24.2,38 z"
   class="st3" /><path
   inkscape:connector-curvature="0"
   id="path725"
   d="m 986.8,327.5 c -1.1,0 -2.3,-0.4 -3.2,-1.1 -0.8,-0.7 -19.6,-16.4 -25.9,-40.6 -6.3,-24.2 2.5,-47.1 2.9,-48.1 0.6,-1.5 1.8,-2.6 3.4,-3 1.5,-0.4 3.2,0 4.4,1 0.8,0.7 19.6,16.4 25.9,40.6 v 0 c 6.3,24.2 -2.5,47.1 -2.9,48.1 -0.6,1.5 -1.8,2.6 -3.4,3 -0.4,0 -0.8,0.1 -1.2,0.1 z m -19.1,-78.6 c -1.9,7.9 -3.7,21.1 -0.3,34.3 3.5,13.3 11.5,23.9 17,29.9 1.9,-7.9 3.7,-21.1 0.3,-34.3 -3.5,-13.3 -11.5,-23.8 -17,-29.9 z"
   class="st2" /><path
   inkscape:connector-curvature="0"
   id="path729"
   d="m 956.9,288.8 c 20.4,12 29.9,33.7 29.9,33.7 0,0 -23.6,2.3 -44,-9.7 -20.4,-12 -29.9,-33.7 -29.9,-33.7 0,0 23.6,-2.3 44,9.7 z"
   class="st3" /><path
   inkscape:connector-curvature="0"
   id="path731"
   d="m 981.9,327.7 c -8.6,0 -25.9,-1.3 -41.6,-10.6 -21.6,-12.7 -31.5,-35.1 -32,-36 -0.6,-1.5 -0.5,-3.2 0.3,-4.5 0.8,-1.4 2.2,-2.3 3.8,-2.4 1,-0.1 25.5,-2.3 47,10.4 21.5,12.7 31.5,35.1 32,36 0.6,1.5 0.5,3.2 -0.3,4.5 -0.8,1.4 -2.2,2.3 -3.8,2.4 -0.3,0 -2.3,0.2 -5.4,0.2 z M 921.2,284 c 4.3,6.9 12.3,17.6 24.1,24.5 11.8,6.9 24.9,8.7 33.1,9.1 -4.3,-6.9 -12.3,-17.6 -24.1,-24.5 -11.8,-6.9 -24.9,-8.7 -33.1,-9.1 z"
   class="st2" /><path
   inkscape:connector-curvature="0"
   id="path735"
   d="m 996.5,278.5 c -12,20.4 -9.7,44 -9.7,44 0,0 21.7,-9.5 33.7,-29.9 12,-20.4 9.7,-44 9.7,-44 0,0 -21.7,9.5 -33.7,29.9 z"
   class="st3" /><path
   inkscape:connector-curvature="0"
   id="path737"
   d="m 986.8,327.5 c -0.9,0 -1.8,-0.2 -2.5,-0.7 -1.4,-0.8 -2.3,-2.2 -2.4,-3.8 -0.1,-1 -2.3,-25.5 10.4,-47 12.7,-21.6 35.1,-31.5 36,-32 1.5,-0.6 3.2,-0.5 4.5,0.3 1.4,0.8 2.3,2.2 2.4,3.8 0.1,1 2.3,25.5 -10.4,47 -12.7,21.6 -35.1,31.5 -36,32 -0.7,0.3 -1.3,0.4 -2,0.4 z m 38.5,-70.5 c -6.9,4.3 -17.6,12.3 -24.5,24.1 -6.9,11.8 -8.7,24.9 -9.1,33.1 6.9,-4.3 17.6,-12.3 24.5,-24.1 6.9,-11.8 8.7,-25 9.1,-33.1 z"
   class="st2" /><path
   inkscape:connector-curvature="0"
   id="path743"
   d="m 1119.4,467.2 c 2.2,-25.4 24.6,-44.1 50,-41.9 25.4,2.2 44.1,24.6 41.9,50 -2.2,25.4 -39.7,214.6 -65.1,212.4 -25.4,-2.2 -29.1,-195.1 -26.8,-220.5 z"
   class="st1" /><path
   inkscape:connector-curvature="0"
   id="path745"
   d="m 1146.7,692.8 c -0.3,0 -0.6,0 -0.9,0 -8.7,-0.8 -14.7,-11.8 -19.7,-35.8 -3.6,-17.3 -6.5,-41 -8.6,-70.4 -3.8,-52.1 -4.2,-107.2 -3,-119.7 v 0 c 1.2,-13.6 7.6,-25.9 18.1,-34.7 10.5,-8.8 23.7,-12.9 37.3,-11.7 28.1,2.5 48.9,27.4 46.4,55.4 -1.1,12.6 -11.1,66.7 -24,117.4 -7.3,28.6 -14.3,51.4 -20.9,67.8 -8.7,21.8 -16.4,31.7 -24.7,31.7 z m -22.3,-225.1 c -1.1,12.3 -0.8,66.5 3.1,118.1 7,94.8 19.1,97 19.2,97 0,0 0,0 0,0 0.4,0 12.7,-1 35.9,-92.1 12.8,-50.2 22.6,-103.5 23.7,-115.8 1,-10.9 -2.4,-21.6 -9.4,-30 -7.1,-8.4 -17,-13.6 -27.9,-14.6 -22.6,-2 -42.6,14.8 -44.6,37.4 z"
   class="st2" /><path
   inkscape:connector-curvature="0"
   id="path749"
   d="m 1207.5,504.7 c -0.1,0 -0.3,0 -0.4,0 l -44.3,-3.9 c -2.8,-0.2 -4.8,-2.7 -4.5,-5.4 0.2,-2.8 2.7,-4.8 5.4,-4.5 l 44.3,3.9 c 2.8,0.2 4.8,2.7 4.5,5.4 -0.2,2.6 -2.4,4.5 -5,4.5 z"
   class="st2" /><path
   inkscape:connector-curvature="0"
   id="path753"
   d="m 1159.2,545.6 c -0.1,0 -0.3,0 -0.4,0 l -39.7,-3.5 c -2.8,-0.2 -4.8,-2.7 -4.5,-5.4 0.2,-2.8 2.7,-4.8 5.4,-4.5 l 39.7,3.5 c 2.8,0.2 4.8,2.7 4.5,5.4 -0.2,2.6 -2.4,4.5 -5,4.5 z"
   class="st2" /><path
   inkscape:connector-curvature="0"
   id="path757"
   d="m 1186.5,600.5 c -0.1,0 -0.3,0 -0.4,0 l -31.9,-2.8 c -2.8,-0.2 -4.8,-2.7 -4.5,-5.4 0.3,-2.7 2.7,-4.8 5.4,-4.5 l 31.9,2.8 c 2.8,0.2 4.8,2.7 4.5,5.4 -0.2,2.5 -2.4,4.5 -5,4.5 z"
   class="st2" /><path
   inkscape:connector-curvature="0"
   id="path761"
   d="m 1159.3,381.4 c -2.1,23.6 10.1,43.9 10.1,43.9 0,0 15.6,-17.9 17.6,-41.5 2.1,-23.6 -10.1,-43.9 -10.1,-43.9 0,0 -15.5,17.9 -17.6,41.5 z"
   class="st3" /><path
   inkscape:connector-curvature="0"
   id="path763"
   d="m 1169.4,430.3 c -0.1,0 -0.3,0 -0.4,0 -1.6,-0.1 -3,-1 -3.8,-2.4 -0.5,-0.9 -13,-22 -10.8,-46.9 2.2,-24.9 18.2,-43.5 18.8,-44.3 1.1,-1.2 2.6,-1.8 4.2,-1.7 1.6,0.1 3,1 3.8,2.4 0.5,0.9 13,22 10.8,46.9 -2.2,24.9 -18.2,43.5 -18.8,44.3 -1,1.1 -2.3,1.7 -3.8,1.7 z m 6.7,-80.7 c -4.4,6.9 -10.6,18.6 -11.8,32.2 -1.2,13.6 2.8,26.3 6,33.8 4.4,-6.9 10.6,-18.6 11.8,-32.2 1.2,-13.7 -2.8,-26.3 -6,-33.8 z"
   class="st2" /><path
   inkscape:connector-curvature="0"
   id="path767"
   d="m 1193.3,387.1 c -18.1,15.2 -23.9,38.2 -23.9,38.2 0,0 23.7,-1.7 41.8,-16.9 18.1,-15.2 23.9,-38.2 23.9,-38.2 0,0 -23.6,1.7 -41.8,16.9 z"
   class="st3" /><path
   inkscape:connector-curvature="0"
   id="path769"
   d="m 1169.4,430.3 c -1.5,0 -2.9,-0.7 -3.8,-1.8 -1,-1.2 -1.4,-2.9 -1,-4.4 0.3,-1 6.4,-24.8 25.6,-40.8 v 0 c 19.2,-16.1 43.6,-17.9 44.7,-18 1.6,-0.1 3.2,0.5 4.2,1.8 1,1.3 1.4,2.9 1,4.4 -0.3,1 -6.4,24.8 -25.6,40.8 -19.2,16.1 -43.6,17.9 -44.7,18 -0.2,0 -0.3,0 -0.4,0 z m 27.2,-39.3 c -10.5,8.8 -16.6,20.6 -19.7,28.1 8,-1.7 20.6,-5.7 31.1,-14.4 10.5,-8.8 16.6,-20.6 19.7,-28.1 -8,1.6 -20.7,5.6 -31.1,14.4 z"
   class="st2" /><path
   inkscape:connector-curvature="0"
   id="path773"
   d="m 1152.6,383.5 c 15.2,18.1 16.9,41.8 16.9,41.8 0,0 -23,-5.8 -38.2,-23.9 -15.2,-18.1 -16.9,-41.8 -16.9,-41.8 0,0 23,5.8 38.2,23.9 z"
   class="st3" /><path
   inkscape:connector-curvature="0"
   id="path775"
   d="m 1169.4,430.3 c -0.4,0 -0.8,0 -1.2,-0.2 -1,-0.3 -24.8,-6.4 -40.8,-25.6 -16.1,-19.2 -17.9,-43.6 -18,-44.7 -0.1,-1.6 0.5,-3.2 1.8,-4.2 1.2,-1 2.9,-1.4 4.4,-1 1,0.3 24.8,6.4 40.8,25.6 v 0 c 16.1,19.2 17.9,43.6 18,44.7 0.1,1.6 -0.5,3.2 -1.8,4.2 -0.9,0.8 -2,1.2 -3.2,1.2 z M 1120.6,367 c 1.7,8 5.7,20.7 14.4,31.2 8.8,10.5 20.6,16.6 28.1,19.7 -1.7,-8 -5.7,-20.6 -14.4,-31.1 -8.8,-10.6 -20.6,-16.7 -28.1,-19.8 z"
   class="st2" /><path
   class="st1"
   d="m 1256.5,2385.3 c 0,-91.7 -71.1,-166.9 -161.6,-174.5 v -0.6 H 1038 v 350.4 h 56.9 v -0.6 c 90.6,-7.8 161.6,-83 161.6,-174.7 z"
   id="path783"
   inkscape:connector-curvature="0" /><path
   class="st2"
   d="m 1095,2565.5 h -56.9 c -2.8,0 -5,-2.2 -5,-5 v -350.4 c 0,-2.8 2.2,-5 5,-5 h 56.9 c 1.1,0 2,0.3 2.8,0.9 44.3,4.3 85.2,24.5 115.5,57.1 31.1,33.4 48.2,76.8 48.2,122.2 0,45.4 -17.1,88.9 -48.2,122.2 -30.3,32.6 -71.3,52.8 -115.5,57.1 -0.8,0.6 -1.8,0.9 -2.8,0.9 z m -51.9,-10 h 49.4 c 0.6,-0.3 1.3,-0.6 2,-0.6 42.7,-3.6 82.3,-22.8 111.5,-54.2 29.3,-31.5 45.5,-72.5 45.5,-115.4 0,-42.9 -16.2,-83.9 -45.5,-115.4 -29.2,-31.3 -68.8,-50.6 -111.5,-54.2 -0.7,-0.1 -1.4,-0.3 -2,-0.6 h -49.4 z"
   id="path785"
   inkscape:connector-curvature="0" /><ellipse
   id="ellipse789"
   ry="175.2"
   rx="146.7"
   cy="2385.3"
   cx="1038.1"
   class="st1" /><path
   inkscape:connector-curvature="0"
   id="path791"
   d="m 1038.1,2565.5 c -83.6,0 -151.7,-80.8 -151.7,-180.2 0,-99.4 68,-180.2 151.7,-180.2 83.6,0 151.7,80.8 151.7,180.2 0,99.4 -68,180.2 -151.7,180.2 z m 0,-350.4 c -78.1,0 -141.7,76.3 -141.7,170.2 0,93.8 63.6,170.2 141.7,170.2 78.1,0 141.7,-76.3 141.7,-170.2 0,-93.8 -63.5,-170.2 -141.7,-170.2 z"
   class="st2" /><ellipse
   id="ellipse795"
   ry="142.10001"
   rx="119"
   cy="2385.3"
   cx="1038.1"
   class="st4" /><path
   inkscape:connector-curvature="0"
   id="path797"
   d="m 1038.1,2532.4 c -68.4,0 -124,-66 -124,-147.1 0,-81.1 55.6,-147.1 124,-147.1 68.4,0 124,66 124,147.1 0,81.1 -55.6,147.1 -124,147.1 z m 0,-284.2 c -62.8,0 -114,61.5 -114,137.1 0,75.6 51.1,137.1 114,137.1 62.9,0 114,-61.5 114,-137.1 0,-75.6 -51.1,-137.1 -114,-137.1 z"
   class="st2" /><ellipse
   id="ellipse801"
   ry="114"
   rx="95.5"
   cy="2385.3"
   cx="1038.1"
   class="st1" /><path
   inkscape:connector-curvature="0"
   id="path803"
   d="m 1038.1,2504.3 c -55.4,0 -100.5,-53.4 -100.5,-119 0,-65.6 45.1,-119 100.5,-119 55.4,0 100.5,53.4 100.5,119 0,65.6 -45.1,119 -100.5,119 z m 0,-228 c -49.9,0 -90.5,48.9 -90.5,109 0,60.1 40.6,109 90.5,109 49.9,0 90.5,-48.9 90.5,-109 0,-60.1 -40.6,-109 -90.5,-109 z"
   class="st2" /><ellipse
   id="ellipse807"
   ry="24"
   rx="20.1"
   cy="2385.3"
   cx="1038.1"
   class="st4" /><path
   inkscape:connector-curvature="0"
   id="path809"
   d="m 1038.1,2414.3 c -13.9,0 -25.1,-13 -25.1,-29 0,-16 11.3,-29 25.1,-29 13.9,0 25.1,13 25.1,29 0.1,16 -11.2,29 -25.1,29 z m 0,-48 c -8.3,0 -15.1,8.5 -15.1,19 0,10.5 6.8,19 15.1,19 8.3,0 15.1,-8.5 15.1,-19 0.1,-10.5 -6.7,-19 -15.1,-19 z"
   class="st2" /><path
   inkscape:connector-curvature="0"
   id="path813"
   d="m 1038.1,2366.3 c -2.8,0 -5,-2.2 -5,-5 v -89.2 c 0,-2.8 2.2,-5 5,-5 2.8,0 5,2.2 5,5 v 89.2 c 0,2.7 -2.2,5 -5,5 z"
   class="st2" /><path
   inkscape:connector-curvature="0"
   id="path817"
   d="m 1052.4,2373.3 c -1.1,0 -2.3,-0.4 -3.2,-1.2 -2.1,-1.8 -2.4,-4.9 -0.6,-7 l 52.8,-63.1 c 1.8,-2.1 4.9,-2.4 7,-0.6 2.1,1.8 2.4,4.9 0.6,7 l -52.8,63.1 c -1,1.2 -2.4,1.8 -3.8,1.8 z"
   class="st2" /><path
   inkscape:connector-curvature="0"
   id="path821"
   d="m 1132.9,2390.3 h -74.7 c -2.8,0 -5,-2.2 -5,-5 0,-2.8 2.2,-5 5,-5 h 74.7 c 2.8,0 5,2.2 5,5 0,2.8 -2.2,5 -5,5 z"
   class="st2" /><path
   inkscape:connector-curvature="0"
   id="path825"
   d="m 1105.2,2470.4 c -1.4,0 -2.8,-0.6 -3.8,-1.8 l -52.8,-63.1 c -1.8,-2.1 -1.5,-5.3 0.6,-7 2.1,-1.8 5.3,-1.5 7,0.6 l 52.8,63.1 c 1.8,2.1 1.5,5.3 -0.6,7 -1,0.8 -2.1,1.2 -3.2,1.2 z"
   class="st2" /><path
   inkscape:connector-curvature="0"
   id="path829"
   d="m 1038.1,2503.5 c -2.8,0 -5,-2.2 -5,-5 v -89.2 c 0,-2.8 2.2,-5 5,-5 2.8,0 5,2.2 5,5 v 89.2 c 0,2.8 -2.2,5 -5,5 z"
   class="st2" /><path
   inkscape:connector-curvature="0"
   id="path833"
   d="m 971.1,2470.4 c -1.1,0 -2.3,-0.4 -3.2,-1.2 -2.1,-1.8 -2.4,-4.9 -0.6,-7 l 52.8,-63.1 c 1.8,-2.1 4.9,-2.4 7,-0.6 2.1,1.8 2.4,4.9 0.6,7 l -52.8,63.1 c -1,1.1 -2.4,1.8 -3.8,1.8 z"
   class="st2" /><path
   inkscape:connector-curvature="0"
   id="path837"
   d="m 1018,2390.3 h -74.7 c -2.8,0 -5,-2.2 -5,-5 0,-2.8 2.2,-5 5,-5 h 74.7 c 2.8,0 5,2.2 5,5 0,2.8 -2.2,5 -5,5 z"
   class="st2" /><path
   inkscape:connector-curvature="0"
   id="path841"
   d="m 1023.9,2373.3 c -1.4,0 -2.8,-0.6 -3.8,-1.8 l -52.8,-63.1 c -1.8,-2.1 -1.5,-5.3 0.6,-7 2.1,-1.8 5.3,-1.5 7,0.6 l 52.8,63.1 c 1.8,2.1 1.5,5.3 -0.6,7 -0.9,0.8 -2.1,1.2 -3.2,1.2 z"
   class="st2" /><path
   class="st4"
   d="m 1542.8,364.4 c -5.6,36.7 10.8,75.9 40.7,97.8 19.7,14.4 44.5,21.7 61.2,39.5 19.5,20.7 23.8,50.8 31.5,78.2 7.7,27.4 23.4,56.9 51.3,62.7 16.2,3.4 33.2,-2.3 47.3,-11 18.6,-11.3 34.1,-27.7 44.2,-47 14.3,-27.1 18,-59 33.3,-85.5 16.8,-29.1 47.8,-54 45.6,-87.5 -1.8,-26.3 -24.8,-46.6 -49.1,-56.8 -24.3,-10.2 -51,-13.6 -75.5,-23.5 -73.9,-30.1 -209.4,-105.5 -230.5,33.1 z"
   id="path849"
   inkscape:connector-curvature="0" /><path
   class="st2"
   d="m 1737.4,648.6 c -3.6,0 -7.2,-0.3 -10.8,-1.1 -33.7,-7.1 -49,-44.5 -55.1,-66.2 -1.5,-5.2 -2.8,-10.6 -4.1,-15.8 -5.5,-21.9 -11.3,-44.5 -26.2,-60.4 -9.5,-10.1 -21.8,-16.6 -34.8,-23.6 -8.7,-4.6 -17.6,-9.4 -25.7,-15.3 -31.4,-22.9 -48.6,-64.2 -42.7,-102.6 0,0 0,0 0,0 5.7,-37.3 20.1,-62.6 43,-75.2 20.7,-11.5 47.9,-12.8 83.3,-4.1 29.7,7.3 60,20.4 86.8,32 8.7,3.8 16.9,7.3 24.5,10.4 11.6,4.7 24.1,8 36.2,11.2 13.1,3.4 26.6,7 39.4,12.4 23.9,10.1 50.1,31.4 52.1,61.1 1.7,25.2 -13.7,45.4 -28.6,65.1 -6.2,8.2 -12.7,16.7 -17.6,25.2 -7.7,13.4 -12.4,28.1 -17.2,43.6 -4.4,14 -8.9,28.4 -16,41.7 -10.6,20.2 -26.6,37.1 -46,48.9 -10.5,6.2 -24.9,12.7 -40.5,12.7 z M 1547.8,365.2 c -5.3,34.8 10.3,72.2 38.8,93 7.6,5.5 16.2,10.1 24.6,14.6 13.2,7 26.8,14.3 37.4,25.5 16.7,17.8 22.8,41.7 28.6,64.8 1.3,5.1 2.6,10.4 4.1,15.5 5.5,19.5 18.9,53.2 47.5,59.2 16.4,3.4 32.8,-3.7 43.7,-10.3 17.9,-10.9 32.6,-26.5 42.4,-45.1 6.6,-12.5 11,-26.5 15.3,-40.1 4.8,-15.4 9.8,-31.3 18.1,-45.6 5.3,-9.1 11.9,-17.9 18.3,-26.3 14.4,-19 28.1,-36.9 26.6,-58.3 -1.7,-25.2 -24.9,-43.7 -46,-52.6 -12.1,-5.1 -25.3,-8.6 -38,-11.9 -12.4,-3.3 -25.2,-6.6 -37.4,-11.6 -7.7,-3.1 -15.9,-6.7 -24.7,-10.5 -50.4,-21.8 -119.3,-51.5 -161.2,-28.3 -20.2,11.1 -33,33.9 -38.1,68 z"
   id="path851"
   inkscape:connector-curvature="0" /><path
   class="st5"
   d="m 1737.4,607.7 c -0.9,0 -1.7,-0.1 -2.4,-0.2 -8.6,-1.8 -18.3,-16.8 -24,-37.2 -1.3,-4.7 -2.6,-9.6 -3.9,-14.7 -6.5,-25.7 -13.9,-54.8 -36.1,-78.4 -14.1,-15 -30.7,-23.8 -45.4,-31.6 -7.7,-4.1 -15.1,-8 -20.9,-12.3 -19.1,-13.9 -29.9,-40 -26.4,-63.4 3,-20 9,-34.6 17.3,-42 3.9,-3.5 11,-8.2 27,-8.2 32.6,0 76.5,19 111.9,34.3 8.9,3.8 17.3,7.5 25.3,10.7 14.1,5.7 27.9,9.3 41.2,12.8 12.2,3.2 23.7,6.2 33.8,10.5 15.2,6.4 26.6,17.4 27.2,26.2 0.7,9.8 -9.5,23.3 -20.4,37.5 -7,9.2 -14.2,18.7 -20.5,29.6 -10,17.3 -15.8,35.6 -20.8,51.8 -4,12.8 -7.8,24.9 -13.1,34.9 -7.1,13.4 -18.1,25.2 -31.1,33 -6.9,4.2 -13.8,6.7 -18.7,6.7 0,0 0,0 0,0 z"
   id="path855"
   inkscape:connector-curvature="0" /><path
   class="st2"
   d="m 1737.4,612.7 c -1.2,0 -2.4,-0.1 -3.4,-0.3 -12.8,-2.7 -22.8,-22.8 -27.8,-40.8 -1.3,-4.7 -2.6,-9.6 -3.9,-14.8 v -0.1 c -6.4,-25.1 -13.6,-53.5 -34.9,-76.2 -13.5,-14.4 -29.8,-23 -44.1,-30.7 -7.9,-4.2 -15.4,-8.2 -21.4,-12.6 -20.5,-15 -32.2,-43 -28.4,-68.1 3.2,-21.2 9.8,-36.7 18.9,-45 4.5,-4.1 12.6,-9.5 30.4,-9.5 33.6,0 78.1,19.2 113.9,34.7 8.9,3.8 17.2,7.4 25.2,10.7 13.8,5.6 27.4,9.2 40.6,12.6 12.4,3.2 24.1,6.3 34.5,10.7 17.1,7.2 29.5,19.7 30.2,30.4 0.8,11.7 -9.5,25.2 -21.4,40.9 -6.9,9.1 -14,18.5 -20.1,29 -9.7,16.8 -15.4,34.9 -20.4,50.8 -4.1,13 -8,25.3 -13.5,35.8 -7.5,14.2 -19.2,26.6 -32.9,35 -8,4.8 -15.6,7.5 -21.5,7.5 z m -25.5,-58.4 c 1.3,5.1 2.5,9.9 3.8,14.5 5.7,20.3 14.7,32.5 20.2,33.7 0.4,0.1 0.9,0.1 1.4,0.1 4,0 10.1,-2.2 16.3,-6 12.2,-7.4 22.6,-18.5 29.3,-31.1 5.1,-9.6 8.8,-21.5 12.8,-34.1 5.2,-16.4 11,-35 21.3,-52.8 6.4,-11.1 13.7,-20.7 20.8,-30.1 9.8,-12.9 19.9,-26.2 19.4,-34.2 -0.4,-5.9 -9.5,-15.7 -24.2,-21.9 -9.8,-4.1 -21.1,-7.1 -33.1,-10.3 -13.5,-3.5 -27.4,-7.2 -41.8,-13 -8.1,-3.3 -16.5,-6.9 -25.4,-10.8 -34.9,-15.1 -78.4,-33.9 -109.9,-33.9 -14.3,0 -20.4,3.9 -23.7,6.9 -7.3,6.6 -12.9,20.4 -15.7,39 -3.3,21.6 6.8,45.7 24.4,58.6 5.5,4 12.7,7.8 20.3,11.9 15,8 32,17 46.7,32.6 23.1,24.5 30.6,54.3 37.3,80.6 l -4.8,1.3 z"
   id="path857"
   inkscape:connector-curvature="0" /><circle
   class="st4"
   cx="1747.1"
   cy="447.70001"
   r="26.9"
   id="circle861" /><path
   class="st2"
   d="m 1747.1,479.6 c -17.6,0 -31.9,-14.3 -31.9,-31.9 0,-17.6 14.3,-31.9 31.9,-31.9 17.6,0 31.9,14.3 31.9,31.9 0,17.6 -14.3,31.9 -31.9,31.9 z m 0,-53.7 c -12.1,0 -21.9,9.8 -21.9,21.9 0,12.1 9.8,21.9 21.9,21.9 12.1,0 21.9,-9.8 21.9,-21.9 0,-12.1 -9.9,-21.9 -21.9,-21.9 z"
   id="path863"
   inkscape:connector-curvature="0" /><ellipse
   style="stroke-width:1.00002"
   transform="rotate(-55.334198)"
   class="st3"
   cx="-976.83191"
   cy="2767.3816"
   rx="190.40378"
   ry="94.901886"
   id="ellipse869" /><path
   class="st2"
   d="m 1643.5,2548.3 c -13,0 -24.5,-3.3 -34.2,-10 -22.5,-15.5 -31.6,-47.1 -25.6,-88.8 5.8,-40.5 25.2,-86.2 54.6,-128.7 29.4,-42.5 65.3,-76.7 101.1,-96.5 36.9,-20.3 69.7,-23 92.1,-7.4 22.5,15.5 31.6,47.1 25.6,88.8 -5.8,40.5 -25.2,86.2 -54.6,128.7 -29.4,42.5 -65.3,76.7 -101.1,96.5 -21,11.6 -40.7,17.4 -57.9,17.4 z m 153.8,-331.4 c -15.5,0 -33.5,5.4 -53.1,16.2 -34.5,19 -69.2,52.2 -97.7,93.4 -28.5,41.2 -47.3,85.4 -52.9,124.4 -5.4,37.8 2.1,65.9 21.3,79.2 19.2,13.3 48.2,10.4 81.6,-8 34.5,-19 69.2,-52.2 97.7,-93.4 28.5,-41.2 47.3,-85.4 52.9,-124.4 5.4,-37.8 -2.1,-65.9 -21.3,-79.2 -7.9,-5.5 -17.5,-8.2 -28.5,-8.2 z"
   id="path871"
   inkscape:connector-curvature="0" /><ellipse
   style="stroke-width:1.00002"
   transform="rotate(-55.334198)"
   class="st1"
   cx="-976.83191"
   cy="2767.3816"
   rx="190.40378"
   ry="63.901268"
   id="ellipse875" /><path
   class="st2"
   d="m 1626.8,2543.4 c -6.7,0 -12.6,-1.7 -17.5,-5 -15.9,-11 -18.6,-38.4 -7.4,-77.1 10.7,-36.9 32.7,-80.6 61.9,-122.8 29.2,-42.3 62.3,-78.2 93.1,-101.2 32.2,-24.1 58.8,-31.3 74.7,-20.3 15.9,11 18.6,38.4 7.4,77.1 -10.7,36.9 -32.7,80.6 -61.9,122.8 v 0 c -29.2,42.3 -62.3,78.2 -93.1,101.2 -22.4,16.7 -42,25.3 -57.2,25.3 z M 1814,2221.8 c -12.8,0 -30.5,8 -51.1,23.4 -30,22.4 -62.2,57.5 -90.9,98.9 -28.6,41.4 -50.1,84 -60.5,119.9 -9.7,33.7 -8.5,57.8 3.5,66.1 12,8.3 34.9,1 63,-20.1 30,-22.4 62.2,-57.5 90.9,-98.9 v 0 c 28.6,-41.4 50.1,-84 60.5,-119.9 9.7,-33.7 8.5,-57.8 -3.5,-66.1 -3.2,-2.2 -7.2,-3.3 -11.9,-3.3 z"
   id="path877"
   inkscape:connector-curvature="0" /><path
   class="st3"
   d="m 1606.8,2529.9 c 3.2,-28.4 15.2,-60.1 35.7,-89.8 23.8,-34.4 54.3,-59.1 83.6,-70.6 0.4,-28 -8.6,-51.6 -27.4,-64.6 -9.9,-6.8 -21.5,-10.1 -34.1,-10.2 -7.6,9 -15.1,18.7 -22.1,29 -57.2,82.6 -72.1,172.4 -35.7,206.2 z"
   id="path881"
   inkscape:connector-curvature="0" /><path
   class="st2"
   d="m 1606.8,2534.9 c -1.2,0 -2.5,-0.5 -3.4,-1.3 -19,-17.6 -25.6,-49.3 -18.8,-89.3 6.7,-39.2 25.8,-83 53.7,-123.4 7,-10.2 14.6,-20 22.4,-29.3 1,-1.1 2.4,-1.8 3.9,-1.8 14,0.1 26.4,3.8 36.9,11.1 19.5,13.5 30,37.9 29.6,68.8 0,2 -1.3,3.8 -3.2,4.6 -29.4,11.6 -59.1,36.7 -81.3,68.8 -19.3,27.8 -31.6,58.9 -34.9,87.5 -0.2,1.9 -1.5,3.5 -3.2,4.1 -0.5,0.1 -1.1,0.2 -1.7,0.2 z m 60.1,-235.1 c -7.1,8.5 -13.9,17.5 -20.3,26.8 -27.2,39.3 -45.7,81.7 -52.1,119.4 -5.3,31 -2.1,56.2 9,72.4 5,-27 17.2,-55.4 34.9,-81.1 22.6,-32.6 52.5,-58.4 82.7,-71.1 -0.4,-25.8 -9.3,-46 -25.3,-57.1 -8.2,-5.8 -17.9,-8.9 -28.9,-9.3 z"
   id="path883"
   inkscape:connector-curvature="0" /><path
   class="st3"
   d="m 1817.8,2400.6 c -4.5,-11.7 -11.7,-21.5 -21.6,-28.3 -18.8,-13 -44,-13.1 -70.1,-2.9 -29.3,11.5 -59.8,36.2 -83.6,70.6 -20.5,29.7 -32.5,61.4 -35.7,89.8 1.7,1.6 3.5,3 5.4,4.3 1.9,1.3 3.9,2.5 5.9,3.5 44.5,22.1 123.2,-23.5 180.4,-106.1 7.1,-10.2 13.5,-20.5 19.3,-30.9 z"
   id="path887"
   inkscape:connector-curvature="0" /><path
   class="st2"
   d="m 1643.5,2548.3 c -10.1,0 -19.4,-2 -27.6,-6.1 -2.3,-1.1 -4.5,-2.5 -6.6,-3.9 -2.1,-1.4 -4,-3 -5.9,-4.8 -1.2,-1.1 -1.7,-2.6 -1.6,-4.2 3.4,-30.2 16.4,-62.9 36.6,-92.1 23.3,-33.8 54.6,-60.2 85.9,-72.4 28.7,-11.3 55.3,-10.1 74.8,3.4 10.5,7.2 18.3,17.5 23.4,30.6 0.5,1.4 0.4,2.9 -0.3,4.2 -5.9,10.6 -12.5,21.2 -19.5,31.4 -28,40.4 -62.2,73.8 -96.5,93.8 -22.8,13.3 -44.2,20.1 -62.7,20.1 z m -31.4,-20.4 c 1,0.8 1.9,1.5 2.9,2.2 1.7,1.1 3.5,2.2 5.3,3.1 20,10 48.7,5.1 80.7,-13.6 33.1,-19.4 66.2,-51.6 93.4,-90.9 6.4,-9.2 12.4,-18.8 17.9,-28.5 -4.3,-10.1 -10.7,-18.1 -18.9,-23.8 -16.7,-11.5 -39.9,-12.4 -65.4,-2.3 -29.4,11.6 -59.1,36.7 -81.3,68.8 -18.8,27 -31,57.1 -34.6,85 z"
   id="path889"
   inkscape:connector-curvature="0" /><path
   class="st2"
   d="m 1822.2,2268.6 c -1,0 -2,-0.3 -2.8,-0.9 l -5.8,-4 c -2.3,-1.6 -2.8,-4.7 -1.3,-7 1.5,-2.3 4.7,-2.8 7,-1.3 l 5.8,4 c 2.3,1.6 2.8,4.7 1.3,7 -1,1.5 -2.6,2.2 -4.2,2.2 z"
   id="path893"
   inkscape:connector-curvature="0" /><path
   class="st2"
   d="m 1782.4,2280.5 c -1,0 -2,-0.3 -2.8,-0.9 l -10.7,-7.4 c -2.3,-1.6 -2.8,-4.7 -1.3,-7 1.5,-2.3 4.7,-2.8 7,-1.3 l 10.7,7.4 c 2.3,1.6 2.8,4.7 1.3,7 -1.1,1.4 -2.6,2.2 -4.2,2.2 z"
   id="path897"
   inkscape:connector-curvature="0" /><path
   class="st2"
   d="m 1787.7,2241.4 c -1,0 -2,-0.3 -2.8,-0.9 l -5.8,-4 c -2.3,-1.6 -2.8,-4.7 -1.3,-7 1.6,-2.3 4.7,-2.8 7,-1.3 l 5.8,4 c 2.3,1.6 2.8,4.7 1.3,7 -1.1,1.4 -2.7,2.2 -4.2,2.2 z"
   id="path901"
   inkscape:connector-curvature="0" /><path
   class="st2"
   d="m 1806.1,2326.2 c -1,0 -2,-0.3 -2.8,-0.9 l -4.3,-3 c -2.3,-1.6 -2.8,-4.7 -1.3,-7 1.6,-2.3 4.7,-2.8 7,-1.3 l 4.3,3 c 2.3,1.6 2.8,4.7 1.3,7 -1,1.5 -2.6,2.2 -4.2,2.2 z"
   id="path905"
   inkscape:connector-curvature="0" /><path
   class="st2"
   d="m 1741,2302.6 c -1,0 -2,-0.3 -2.8,-0.9 l -10.1,-7 c -2.3,-1.6 -2.8,-4.7 -1.3,-7 1.6,-2.3 4.7,-2.8 7,-1.3 l 10.1,7 c 2.3,1.6 2.8,4.7 1.3,7 -1,1.5 -2.6,2.2 -4.2,2.2 z"
   id="path909"
   inkscape:connector-curvature="0" /><path
   class="st2"
   d="m 1768.7,2300.3 c -1,0 -2,-0.3 -2.8,-0.9 l -5.3,-3.7 c -2.3,-1.6 -2.8,-4.7 -1.3,-7 1.6,-2.3 4.7,-2.8 7,-1.3 l 5.3,3.7 c 2.3,1.6 2.8,4.7 1.3,7 -1.1,1.5 -2.7,2.2 -4.2,2.2 z"
   id="path913"
   inkscape:connector-curvature="0" /><path
   class="st2"
   d="m 1759.2,2339.5 c -1,0 -2,-0.3 -2.8,-0.9 l -8.8,-6.1 c -2.3,-1.6 -2.8,-4.7 -1.3,-7 1.5,-2.3 4.7,-2.8 7,-1.3 l 8.8,6.1 c 2.3,1.6 2.8,4.7 1.3,7 -1,1.4 -2.6,2.2 -4.2,2.2 z"
   id="path917"
   inkscape:connector-curvature="0" /><path
   class="st2"
   d="m 1797.4,2347.8 c -1,0 -2,-0.3 -2.8,-0.9 l -6.3,-4.4 c -2.3,-1.6 -2.8,-4.7 -1.3,-7 1.5,-2.3 4.7,-2.8 7,-1.3 l 6.3,4.4 c 2.3,1.6 2.8,4.7 1.3,7 -1.1,1.5 -2.6,2.2 -4.2,2.2 z"
   id="path921"
   inkscape:connector-curvature="0" /><path
   class="st3"
   d="m 1612,2556.4 -20.5,-14.2 c -5.9,-4.1 -7.4,-12.2 -3.3,-18.1 v 0 c 4.1,-5.9 12.2,-7.4 18.1,-3.3 l 20.5,14.2 c 5.9,4.1 7.4,12.2 3.3,18.1 v 0 c -4.1,5.9 -12.2,7.4 -18.1,3.3 z"
   id="path925"
   inkscape:connector-curvature="0" /><path
   class="st2"
   d="m 1619.3,2563.7 c -3.5,0 -7.1,-1 -10.2,-3.2 v 0 l -20.5,-14.2 c -8.2,-5.6 -10.2,-16.9 -4.6,-25 5.6,-8.2 16.9,-10.2 25,-4.6 l 20.5,14.2 c 8.2,5.6 10.2,16.9 4.6,25 -3.4,5.1 -9,7.8 -14.8,7.8 z m -4.5,-11.4 c 3.6,2.5 8.6,1.6 11.1,-2 2.5,-3.6 1.6,-8.6 -2,-11.1 l -20.5,-14.2 c -1.7,-1.2 -3.9,-1.7 -6,-1.3 -2.1,0.4 -3.9,1.6 -5.1,3.3 -2.5,3.6 -1.6,8.6 2,11.1 z"
   id="path927"
   inkscape:connector-curvature="0" /><path
   inkscape:connector-curvature="0"
   id="path933"
   d="m 1724.8,1073.8 c 0,54.9 -46.3,99.4 -103.5,99.4 -57.2,0 -103.5,-44.5 -103.5,-99.4 0,-54.9 46.3,-177.2 103.5,-177.2 57.2,0 103.5,122.3 103.5,177.2 z"
   class="st4" /><path
   inkscape:connector-curvature="0"
   id="path935"
   d="m 1621.3,1178.3 c -59.8,0 -108.5,-46.9 -108.5,-104.4 0,-29.3 12.7,-75.1 30.8,-111.4 13.2,-26.4 40.9,-70.8 77.7,-70.8 36.8,0 64.4,44.3 77.7,70.8 18.2,36.3 30.8,82.1 30.8,111.4 0,57.5 -48.6,104.4 -108.5,104.4 z m 0,-276.7 c -51.9,0 -98.5,117 -98.5,172.2 0,52.1 44.2,94.4 98.5,94.4 54.3,0 98.5,-42.4 98.5,-94.4 0,-55.2 -46.6,-172.2 -98.5,-172.2 z"
   class="st2" /><ellipse
   id="ellipse939"
   ry="58.900002"
   rx="61.299999"
   cy="1074.7"
   cx="1621.3"
   class="st1" /><path
   inkscape:connector-curvature="0"
   id="path941"
   d="m 1621.3,1138.6 c -36.6,0 -66.3,-28.7 -66.3,-63.9 0,-35.2 29.8,-63.9 66.3,-63.9 36.5,0 66.3,28.7 66.3,63.9 0,35.2 -29.7,63.9 -66.3,63.9 z m 0,-117.9 c -31.1,0 -56.3,24.2 -56.3,53.9 0,29.7 25.3,53.9 56.3,53.9 31.1,0 56.3,-24.2 56.3,-53.9 0,-29.7 -25.2,-53.9 -56.3,-53.9 z"
   class="st2" /><path
   class="st1"
   d="m 1784.3,1021.3 c 54,-18.2 113,9.2 131.9,61 18.9,51.8 -9.5,108.6 -63.5,126.7 -54,18.1 -189.4,16.6 -208.3,-35.3 -18.9,-51.8 85.9,-134.2 139.9,-152.4 z"
   id="path947"
   inkscape:connector-curvature="0" /><path
   class="st2"
   d="m 1771.3,1224.6 c -56.8,0 -118.5,-12.9 -131.6,-49.1 -4.6,-12.7 -3,-27.5 4.9,-43.9 24,-49.9 97.8,-101.4 138,-114.9 v 0 c 56.4,-19 118.4,9.7 138.2,64 9.4,25.8 8,53.7 -3.9,78.5 -12.4,25.9 -34.7,45.3 -62.7,54.7 -19.3,6.4 -50.3,10.7 -82.9,10.7 z m 14.6,-198.5 c -20.3,6.8 -48.3,23.3 -73.1,43.1 -28.2,22.4 -49.2,46.1 -59.1,66.7 -6.7,13.9 -8.2,26.1 -4.6,36.2 17.1,47 147.6,50.5 202,32.2 25.4,-8.5 45.6,-26.1 56.8,-49.6 10.8,-22.4 12,-47.5 3.5,-70.7 -17.9,-49.2 -74.2,-75.2 -125.5,-57.9 z"
   id="path949"
   inkscape:connector-curvature="0" /><path
   class="st4"
   d="m 914.8,1613.2 c -63.5,73.1 -42.7,195.2 46.5,272.7 41.3,35.9 90.1,55.9 136.9,59.8 10.5,0.9 15.8,-12.2 7.9,-19 -0.1,-0.1 -0.2,-0.1 -0.3,-0.2 -8.5,-7.4 -16,-15.4 -22.5,-23.8 -35.1,-4.4 -71.1,-20.1 -102,-46.9 -71,-61.6 -87.5,-158.8 -37,-216.9 50.5,-58.2 149,-55.3 220,6.3 30.9,26.8 51.4,60.3 60.7,94.4 9.3,5.3 18.3,11.6 26.8,18.9 0.1,0.1 0.2,0.1 0.3,0.2 7.9,6.9 20.1,-0.2 17.7,-10.5 -10.4,-45.8 -37,-91.3 -78.4,-127.2 -89.3,-77.4 -213.1,-80.9 -276.6,-7.8 z"
   id="path955"
   inkscape:connector-curvature="0" /><path
   class="st2"
   d="m 1099.2,1950.8 c -0.5,0 -0.9,0 -1.4,-0.1 -49.5,-4.1 -99.2,-25.8 -139.8,-61 -44,-38.2 -73.2,-88.3 -82.2,-140.9 -9,-53 3.4,-102.3 35.2,-138.8 31.7,-36.5 78.8,-55.8 132.6,-54.2 53.4,1.5 107,23.4 151,61.7 40.6,35.2 69,81.4 80,129.8 1.5,6.8 -1.3,13.5 -7.3,17 -6,3.6 -13.3,2.9 -18.6,-1.7 l -0.3,-0.2 c -8,-7 -16.8,-13.2 -25.9,-18.4 -1.2,-0.7 -2,-1.8 -2.4,-3 -9.3,-34.2 -30.3,-66.9 -59.1,-92 -68.8,-59.7 -164.3,-62.8 -212.9,-6.8 -23.4,27 -32.6,63.6 -25.9,103 6.8,39.8 29,77.8 62.4,106.8 28.9,25.1 64.1,41.3 99.3,45.7 1.3,0.2 2.5,0.9 3.3,1.9 6.4,8.3 13.8,16.1 21.8,23.1 l 0.2,0.2 c 5.3,4.6 7,11.7 4.3,18.2 -2.4,6 -7.9,9.7 -14.3,9.7 z m -61.6,-385.2 c -48.3,0 -90.5,18 -119.1,50.9 -61.6,70.9 -40.9,190.1 46,265.7 39,33.9 86.6,54.7 134,58.6 3.9,0.3 5.4,-2.6 5.8,-3.5 0.8,-1.9 0.8,-4.7 -1.6,-6.7 l -0.3,-0.2 c -8,-7 -15.4,-14.7 -21.9,-22.9 -36.5,-5 -72.8,-21.9 -102.6,-47.8 -35.2,-30.6 -58.5,-70.6 -65.7,-112.7 -7.2,-42.5 2.8,-82 28.2,-111.3 52.2,-60.2 154.1,-57.6 227,5.8 29.8,25.9 51.6,59.5 61.7,94.9 9.1,5.3 17.7,11.5 25.8,18.5 l 0.3,0.2 c 2.4,2.1 5.1,1.7 6.9,0.6 0.8,-0.5 3.5,-2.4 2.7,-6.2 -10.5,-46.4 -37.8,-90.6 -76.8,-124.5 -42.3,-36.7 -93.7,-57.8 -144.8,-59.2 -1.8,-0.2 -3.7,-0.2 -5.6,-0.2 z"
   id="path957"
   inkscape:connector-curvature="0" /><path
   class="st5"
   d="m 944.3,1638.9 c -50.5,58.2 -33.9,155.3 37,216.9 30.9,26.8 66.9,42.5 102,46.9 -22.7,-29.5 -33.1,-64.4 -29.7,-96.1 0.3,-3.2 0.6,-6.3 0.8,-9.5 1,-17.2 7,-33.5 18.4,-46.6 11.4,-13.1 26.6,-21.3 43.6,-24.7 3.1,-0.6 6.2,-1.3 9.3,-2.1 30.8,-7.8 66.8,-2.4 99.3,16 -9.2,-34.1 -29.8,-67.6 -60.7,-94.4 -71,-61.8 -169.4,-64.6 -220,-6.4 z"
   id="path961"
   inkscape:connector-curvature="0" /><path
   class="st2"
   d="m 1083.4,1907.7 c -0.2,0 -0.4,0 -0.6,0 -37.2,-4.6 -74.3,-21.7 -104.6,-48 -35.2,-30.6 -58.5,-70.6 -65.7,-112.7 -7.2,-42.5 2.8,-82 28.2,-111.3 52.2,-60.2 154.1,-57.6 227,5.8 30.3,26.3 52.4,60.8 62.2,96.9 0.5,1.9 -0.2,4 -1.8,5.3 -1.6,1.2 -3.8,1.4 -5.5,0.4 -30.8,-17.4 -65.6,-23.1 -95.6,-15.5 -3,0.8 -6.1,1.5 -9.6,2.2 -16.4,3.3 -30.5,11.3 -40.8,23.1 -10.3,11.8 -16.2,26.9 -17.2,43.6 -0.2,3.5 -0.5,6.7 -0.8,9.8 -3.3,30.7 7.1,64.4 28.7,92.5 1.2,1.6 1.4,3.8 0.4,5.5 -0.9,1.4 -2.6,2.4 -4.3,2.4 z m -41.3,-305.6 c -36.7,0 -70.7,13.3 -94,40.1 -23.4,27 -32.6,63.6 -25.9,103 6.8,39.8 29,77.8 62.4,106.8 25.7,22.3 56.4,37.6 87.7,43.8 -18.3,-27.9 -26.9,-60 -23.7,-89.8 0.3,-2.9 0.6,-6 0.8,-9.3 1.1,-18.9 7.9,-36.1 19.6,-49.6 11.7,-13.5 27.8,-22.6 46.4,-26.4 3.2,-0.7 6.2,-1.3 9.1,-2 29,-7.4 62,-3.4 92.2,10.9 -10.5,-30.1 -30,-58.4 -55.6,-80.7 -35.9,-31.1 -79,-46.8 -119,-46.8 z"
   id="path963"
   inkscape:connector-curvature="0" /><path
   class="st4"
   d="m 1046.4,1703.5 -89.1,-77.4 c -4.6,3.9 -9,8.1 -13,12.8 -4,4.6 -7.6,9.5 -10.8,14.6 l 89.1,77.4 z"
   id="path967"
   inkscape:connector-curvature="0" /><path
   class="st2"
   d="m 1022.6,1735.9 c -1.2,0 -2.4,-0.4 -3.3,-1.2 l -89.1,-77.4 c -1.9,-1.6 -2.3,-4.3 -1,-6.4 3.4,-5.4 7.2,-10.5 11.3,-15.3 4.1,-4.8 8.7,-9.2 13.5,-13.3 1.9,-1.6 4.6,-1.6 6.5,0.1 l 89.1,77.4 c 2.1,1.8 2.3,5 0.5,7.1 l -23.8,27.4 c -0.9,1 -2.1,1.6 -3.4,1.7 0,-0.1 -0.1,-0.1 -0.3,-0.1 z m -82.5,-83.3 82.1,71.3 17.3,-19.9 -82.1,-71.3 c -3.3,3 -6.4,6.1 -9.2,9.4 -2.9,3.4 -5.6,6.9 -8.1,10.5 z"
   id="path969"
   inkscape:connector-curvature="0" /><circle
   style="stroke-width:0.999984"
   transform="rotate(-49.026442)"
   class="st4"
   cx="-618.06879"
   cy="1923.6075"
   id="ellipse973"
   r="32.699471" /><path
   class="st2"
   d="m 1047.1,1765.8 c -8.8,0 -17.6,-3 -24.7,-9.2 -7.6,-6.6 -12.2,-15.8 -12.9,-25.8 -0.7,-10.1 2.5,-19.8 9.1,-27.4 6.6,-7.6 15.8,-12.2 25.8,-12.9 10.1,-0.7 19.8,2.5 27.4,9.1 v 0 c 7.6,6.6 12.2,15.8 12.9,25.8 0.7,10.1 -2.5,19.8 -9.1,27.4 -7.5,8.6 -18,13 -28.5,13 z m 0,-65.4 c -0.7,0 -1.3,0 -2,0.1 -7.4,0.5 -14.1,3.9 -19,9.5 -10,11.5 -8.8,29.1 2.8,39.1 11.5,10 29.1,8.8 39.1,-2.8 4.9,-5.6 7.2,-12.7 6.7,-20.1 -0.5,-7.4 -3.9,-14.1 -9.5,-19 0,0 0,0 0,0 -5,-4.4 -11.4,-6.8 -18.1,-6.8 z"
   id="path975"
   inkscape:connector-curvature="0" /><path
   class="st2"
   d="m 1016.4,1885.4 c -0.2,0 -0.5,0 -0.8,-0.1 -2.7,-0.4 -4.6,-3 -4.2,-5.7 l 18.5,-121.9 c 0.4,-2.7 3,-4.6 5.7,-4.2 2.7,0.4 4.6,3 4.2,5.7 l -18.5,121.9 c -0.4,2.5 -2.5,4.3 -4.9,4.3 z"
   id="path979"
   inkscape:connector-curvature="0" /><path
   class="st2"
   d="m 941.7,1814.3 c -1.4,0 -2.9,-0.6 -3.8,-1.8 -1.8,-2.1 -1.5,-5.3 0.6,-7 l 77.3,-64.5 c 2.1,-1.8 5.3,-1.5 7,0.6 1.8,2.1 1.5,5.3 -0.6,7 l -77.3,64.5 c -1,0.8 -2.1,1.2 -3.2,1.2 z"
   id="path983"
   inkscape:connector-curvature="0" /><path
   class="st2"
   d="m 916.7,1747.4 c -1.8,0 -3.6,-1 -4.5,-2.7 -1.3,-2.5 -0.3,-5.5 2.2,-6.7 l 75,-38.3 c 2.5,-1.3 5.5,-0.3 6.7,2.2 1.3,2.5 0.3,5.5 -2.2,6.7 l -75,38.3 c -0.6,0.3 -1.4,0.5 -2.2,0.5 z"
   id="path987"
   inkscape:connector-curvature="0" /><path
   class="st2"
   d="m 1075.4,1716.7 c -2.2,0 -4.1,-1.4 -4.8,-3.6 -0.8,-2.6 0.7,-5.4 3.4,-6.2 l 118.1,-35.3 c 2.6,-0.8 5.4,0.7 6.2,3.4 0.8,2.7 -0.7,5.4 -3.4,6.2 l -118.1,35.3 c -0.4,0.2 -0.9,0.2 -1.4,0.2 z"
   id="path991"
   inkscape:connector-curvature="0" /><path
   class="st2"
   d="m 1059.6,1702.9 c -0.9,0 -1.8,-0.2 -2.6,-0.8 -2.3,-1.5 -3.1,-4.5 -1.6,-6.9 l 53.1,-85.5 c 1.5,-2.3 4.5,-3.1 6.9,-1.6 2.3,1.5 3.1,4.5 1.6,6.9 l -53.1,85.5 c -0.9,1.6 -2.6,2.4 -4.3,2.4 z"
   id="path995"
   inkscape:connector-curvature="0" /><path
   class="st2"
   d="m 1015.5,1681.7 c -0.5,0 -1.1,-0.1 -1.6,-0.3 -2.6,-0.9 -4,-3.7 -3.1,-6.4 l 27.4,-79.6 c 0.9,-2.6 3.7,-4 6.4,-3.1 2.6,0.9 4,3.7 3.1,6.4 l -27.4,79.6 c -0.7,2.1 -2.7,3.4 -4.8,3.4 z"
   id="path999"
   inkscape:connector-curvature="0" /><path
   class="st2"
   d="m 1074,1207.6 c -82.4,0 -149.5,-58.5 -149.5,-130.5 0,-72 67.1,-130.5 149.5,-130.5 82.4,0 149.5,58.5 149.5,130.5 0,72 -67.1,130.5 -149.5,130.5 z m 0,-251 c -76.9,0 -139.5,54.1 -139.5,120.5 0,66.4 62.6,120.5 139.5,120.5 76.9,0 139.5,-54.1 139.5,-120.5 0,-66.4 -62.6,-120.5 -139.5,-120.5 z"
   id="path1007"
   inkscape:connector-curvature="0" /><path
   class="st3"
   d="m 1111.1,941.2 c -11.1,-2.5 -22.3,1.9 -29.5,5.7 v -33.3 h -15.1 v 33.3 c -7.2,-3.8 -18.4,-8.2 -29.5,-5.7 -18.2,4.1 -29,25.3 -29,25.3 0,0 18.8,14.5 37.1,10.4 5.8,-1.3 10.9,-4.4 15.1,-8 -2.6,4.9 -4.4,10.5 -4.4,16.5 0,18.7 18.3,33.9 18.3,33.9 0,0 18.3,-15.2 18.3,-33.9 0,-6 -1.9,-11.6 -4.4,-16.5 4.2,3.6 9.3,6.6 15.1,8 18.2,4.1 37.1,-10.4 37.1,-10.4 0,0 -10.9,-21.2 -29.1,-25.3 z"
   id="path1011"
   inkscape:connector-curvature="0" /><path
   class="st2"
   d="m 1074,1024.4 c -1.1,0 -2.3,-0.4 -3.2,-1.1 -0.8,-0.7 -20.1,-16.9 -20.1,-37.7 0,-1.7 0.1,-3.4 0.4,-5.2 -1.6,0.6 -3.3,1.1 -5,1.5 -20.3,4.6 -40.4,-10.7 -41.2,-11.3 -1.9,-1.5 -2.5,-4.1 -1.4,-6.2 0.5,-1 12.1,-23.4 32.4,-28 9.1,-2.1 18.2,-0.1 25.6,2.8 v -25.5 c 0,-2.8 2.2,-5 5,-5 h 15.1 c 2.8,0 5,2.2 5,5 v 25.5 c 7.4,-2.9 16.5,-4.8 25.6,-2.8 v 0 c 20.3,4.6 31.9,27 32.4,28 1.1,2.1 0.5,4.8 -1.4,6.2 -0.7,0.6 -16,12.2 -33.4,12.2 -2.6,0 -5.2,-0.3 -7.9,-0.9 -1.7,-0.4 -3.3,-0.9 -5,-1.5 0.3,1.7 0.4,3.5 0.4,5.2 0,20.8 -19.3,37 -20.1,37.7 -0.9,0.7 -2.1,1.1 -3.2,1.1 z M 1060.1,964 c 1.1,0 2.2,0.4 3.1,1.1 1.9,1.5 2.4,4.1 1.3,6.2 -2.6,4.9 -3.9,9.7 -3.9,14.2 0,11.6 8.5,22 13.3,27 4.8,-4.9 13.3,-15.4 13.3,-27 0,-4.5 -1.3,-9.3 -3.9,-14.2 -1.1,-2.1 -0.6,-4.7 1.3,-6.2 1.9,-1.5 4.5,-1.5 6.4,0.1 4.2,3.6 8.6,5.9 13,6.9 11.4,2.6 23.4,-3.5 29.3,-7 -3.8,-5.8 -12.1,-16.4 -23.4,-19 v 0 c -9.4,-2.1 -19.4,1.7 -26,5.2 -1.5,0.8 -3.4,0.8 -4.9,-0.1 -1.5,-0.9 -2.4,-2.5 -2.4,-4.3 v -28.3 h -5.1 v 28.3 c 0,1.8 -0.9,3.4 -2.4,4.3 -1.5,0.9 -3.4,1 -4.9,0.1 -6.7,-3.6 -16.6,-7.4 -26,-5.2 -11.4,2.6 -19.6,13.2 -23.4,18.9 5.9,3.6 17.9,9.6 29.3,7.1 4.4,-1 8.8,-3.3 13,-6.9 0.7,-0.8 1.9,-1.2 3,-1.2 z"
   id="path1013"
   inkscape:connector-curvature="0" /><path
   class="st3"
   d="m 1774.4,1730.9 v -28.3 c 0,-29.9 -24.5,-54.4 -54.4,-54.4 v 0 c -29.9,0 -54.4,24.5 -54.4,54.4 v 28.3 c 0,20.9 -7.6,41.2 -22.1,56.3 -15.1,15.8 -24.7,39.7 -24.7,66.5 0,47.5 30.2,86 67.5,86 12.3,0 23.8,-4.2 33.7,-11.5 9.9,7.3 21.4,11.5 33.7,11.5 37.3,0 67.5,-38.5 67.5,-86 0,-26.8 -9.6,-50.7 -24.7,-66.5 -14.5,-15.1 -22.1,-35.4 -22.1,-56.3 z"
   id="path1019"
   inkscape:connector-curvature="0" /><path
   class="st2"
   d="m 1753.7,1944.7 c -11.8,0 -23.4,-3.6 -33.7,-10.4 -10.3,6.8 -21.9,10.4 -33.7,10.4 -40,0 -72.5,-40.8 -72.5,-91 0,-27.1 9.5,-52.6 26.1,-69.9 13.3,-13.9 20.7,-32.7 20.7,-52.8 v -28.3 c 0,-32.8 26.7,-59.4 59.4,-59.4 32.8,0 59.4,26.7 59.4,59.4 v 28.3 c 0,20.1 7.3,38.9 20.7,52.8 16.6,17.3 26.1,42.8 26.1,69.9 -0.1,50.1 -32.6,91 -72.5,91 z m -33.8,-21.5 c 1,0 2.1,0.3 3,1 9.3,6.9 20,10.5 30.8,10.5 34.5,0 62.5,-36.3 62.5,-81 0,-24.6 -8.5,-47.5 -23.3,-63 -15.1,-15.8 -23.5,-37 -23.5,-59.7 v -28.3 c 0,-27.3 -22.2,-49.4 -49.4,-49.4 -27.3,0 -49.4,22.2 -49.4,49.4 v 28.3 c 0,22.7 -8.3,43.9 -23.5,59.7 -14.8,15.5 -23.3,38.5 -23.3,63 0,44.7 28,81 62.5,81 10.8,0 21.4,-3.6 30.8,-10.5 0.7,-0.7 1.8,-1 2.8,-1 z"
   id="path1021"
   inkscape:connector-curvature="0" /><path
   inkscape:connector-curvature="0"
   id="path1025"
   d="m 1719.1,1678.6 c -2.8,0 -5,-2.2 -5,-5 0,-35.4 28.8,-64.2 64.2,-64.2 2.8,0 5,2.2 5,5 0,2.8 -2.2,5 -5,5 -29.9,0 -54.2,24.3 -54.2,54.2 0,2.8 -2.3,5 -5,5 z"
   class="st2" /><path
   inkscape:connector-curvature="0"
   id="path1029"
   d="m 1712.5,1584.7 c -19,-19 -50.9,-18 -50.9,-18 0,0 -1,31.9 18,50.9 19,19 50.9,18 50.9,18 0,0 1,-31.8 -18,-50.9 z"
   class="st3" /><path
   inkscape:connector-curvature="0"
   id="path1031"
   d="m 1729.5,1640.7 c -6.3,0 -35,-1 -53.4,-19.5 -20.3,-20.3 -19.5,-53.2 -19.5,-54.6 0.1,-2.6 2.2,-4.8 4.8,-4.8 1.4,-0.1 34.3,-0.9 54.6,19.5 20.3,20.3 19.5,53.2 19.5,54.6 -0.1,2.6 -2.2,4.8 -4.8,4.8 -0.2,0 -0.6,0 -1.2,0 z m 1,-5 z m -63.8,-63.8 c 0.6,9.2 3.4,29.3 16.4,42.3 13,13 33,15.8 42.2,16.4 -0.6,-9.2 -3.4,-29.3 -16.4,-42.2 -12.9,-13.2 -32.9,-15.9 -42.2,-16.5 z"
   class="st2" /><path
   class="st4"
   d="m 404.8,279.5 v -0.7 h -51.3 v 7.7 c 0,43.4 -24.2,82.7 -62.3,103.4 -46.4,25.2 -77.1,68.5 -77.1,117.8 0,77.8 76.4,140.9 170.6,140.9 94.2,0 170.6,-63.1 170.6,-140.9 0,-51.9 -33.9,-97.2 -84.4,-121.6 -40.7,-19.8 -66.1,-61.4 -66.1,-106.6 z"
   id="path1039"
   inkscape:connector-curvature="0" /><path
   class="st2"
   d="m 384.7,653.5 c -96.8,0 -175.6,-65.4 -175.6,-145.9 0,-49.5 29.8,-95.2 79.7,-122.2 36.8,-20 59.7,-57.9 59.7,-99 v -7.7 c 0,-2.8 2.2,-5 5,-5 h 51.3 c 2.8,0 5,2.2 5,5 v 0.7 c 0,43.4 24.8,83.4 63.3,102 26,12.6 47.8,30.6 63.1,52.1 15.8,22.3 24.2,47.9 24.2,74 -0.1,80.6 -78.8,146 -175.7,146 z M 358.5,283.8 v 2.7 c 0,44.8 -24.9,86.1 -64.9,107.8 -46.6,25.3 -74.5,67.7 -74.5,113.4 0,74.9 74.3,135.9 165.6,135.9 91.3,0 165.6,-61 165.6,-135.9 0,-24 -7.7,-47.6 -22.4,-68.2 -14.3,-20.2 -34.8,-37.1 -59.3,-48.9 -20.7,-10 -38.2,-25.8 -50.4,-45.6 -11.4,-18.4 -17.7,-39.5 -18.5,-61.2 z"
   id="path1041"
   inkscape:connector-curvature="0" /><path
   class="st4"
   d="m 380.7,349.8 c 0,0 -38.2,55.5 -71.5,89.7 -29.8,30.6 -62.3,55.4 -62.3,95.2 0,62.9 61.7,113.8 137.8,113.8 76.1,0 137.8,-51 137.8,-113.8 0,-41.9 -36.6,-65.7 -68.2,-98.3 -30.4,-31.3 -73.6,-86.6 -73.6,-86.6 z"
   id="path1045"
   inkscape:connector-curvature="0" /><path
   class="st2"
   d="m 384.7,653.5 c -78.8,0 -142.8,-53.3 -142.8,-118.8 0,-35.9 24.4,-59.8 50.1,-85.2 4.5,-4.4 9.1,-8.9 13.5,-13.5 32.6,-33.5 70.6,-88.5 71,-89.1 0.9,-1.3 2.4,-2.1 4,-2.2 1.6,0 3.1,0.7 4.1,1.9 0.4,0.6 43.5,55.5 73.3,86.3 6.4,6.6 13,12.8 19.5,18.9 25.8,24.3 50.2,47.3 50.2,82.8 0,65.6 -64.1,118.9 -142.9,118.9 z m -3.8,-295.3 c -10.6,15 -41.1,57.1 -68.2,84.8 -4.6,4.7 -9.2,9.2 -13.7,13.7 -25.3,24.9 -47.2,46.4 -47.2,78.1 0,60 59.6,108.8 132.8,108.8 73.2,0 132.8,-48.8 132.8,-108.8 0,-31.2 -21.8,-51.7 -47,-75.6 -6.5,-6.1 -13.2,-12.5 -19.8,-19.2 -24.6,-25.5 -58.1,-67.2 -69.7,-81.8 z"
   id="path1047"
   inkscape:connector-curvature="0" /><path
   class="st4"
   d="m 381.5,407.5 c 0,0 -30.4,44.1 -56.8,71.3 -23.7,24.3 -49.5,44 -49.5,75.7 0,50 49.1,90.5 109.6,90.5 60.5,0 109.6,-40.5 109.6,-90.5 0,-33.3 -29.1,-52.2 -54.2,-78.1 -24.3,-24.9 -58.7,-68.9 -58.7,-68.9 z"
   id="path1051"
   inkscape:connector-curvature="0" /><path
   class="st2"
   d="m 384.7,649.9 c -63.2,0 -114.6,-42.8 -114.6,-95.5 0,-28.9 19.5,-48.1 40.2,-68.4 3.5,-3.5 7.2,-7.1 10.7,-10.7 25.9,-26.5 56,-70.2 56.3,-70.7 0.9,-1.3 2.4,-2.1 4,-2.2 1.6,0 3.1,0.7 4.1,1.9 0.3,0.4 34.5,44.1 58.2,68.5 5,5.2 10.3,10.2 15.4,15 20.7,19.5 40.2,37.9 40.2,66.6 0.1,52.7 -51.3,95.5 -114.5,95.5 z m -3,-234 c -9.1,12.8 -32.3,44.7 -53.5,66.4 -3.6,3.7 -7.3,7.4 -10.9,10.9 -19.9,19.6 -37.2,36.6 -37.2,61.3 0,47.1 46.9,85.5 104.6,85.5 57.7,0 104.6,-38.3 104.6,-85.5 0,-24.3 -17.2,-40.5 -37.1,-59.3 -5.2,-4.9 -10.5,-9.9 -15.7,-15.3 -19.1,-19.7 -44.8,-51.5 -54.8,-64 z"
   id="path1053"
   inkscape:connector-curvature="0" /><path
   class="st4"
   d="m 382.4,477.7 c 0,0 -21.8,31.8 -40.9,51.3 -17,17.5 -35.6,31.7 -35.6,54.4 0,35.9 35.3,65.1 78.8,65.1 43.5,0 78.8,-29.1 78.8,-65.1 0,-24 -21,-37.6 -39,-56.2 -17.4,-17.8 -42.1,-49.5 -42.1,-49.5 z"
   id="path1057"
   inkscape:connector-curvature="0" /><path
   class="st2"
   d="m 384.7,653.5 c -46.2,0 -83.8,-31.4 -83.8,-70.1 0,-21.4 14.2,-35.4 29.3,-50.2 2.5,-2.5 5.2,-5.1 7.7,-7.7 18.5,-19 40.1,-50.3 40.3,-50.6 0.9,-1.3 2.4,-2.1 4,-2.2 1.6,0 3.1,0.7 4.1,1.9 0.2,0.3 24.8,31.6 41.8,49.1 3.6,3.7 7.4,7.3 11.1,10.7 15.1,14.2 29.4,27.7 29.4,48.9 -0.1,38.8 -37.7,70.2 -83.9,70.2 z m -2.1,-167.4 c -7.2,10 -23,31.5 -37.5,46.4 -2.6,2.7 -5.3,5.3 -7.9,7.8 -14.1,13.9 -26.3,25.9 -26.3,43.1 0,33.1 33.1,60.1 73.8,60.1 40.7,0 73.8,-27 73.8,-60.1 0,-16.9 -12.2,-28.4 -26.2,-41.6 -3.7,-3.5 -7.6,-7.2 -11.4,-11.1 -13.2,-13.6 -30.4,-34.8 -38.3,-44.6 z"
   id="path1059"
   inkscape:connector-curvature="0" /><path
   class="st4"
   d="m 411.9,595.9 c 0,27.1 -27.1,49 -27.1,49 0,0 -27.1,-21.9 -27.1,-49 0,-27.1 27.1,-49 27.1,-49 0,0 27.1,21.9 27.1,49 z"
   id="path1063"
   inkscape:connector-curvature="0" /><path
   class="st2"
   d="m 384.7,649.9 c -1.1,0 -2.2,-0.4 -3.1,-1.1 -1.2,-1 -29,-23.8 -29,-52.9 0,-29.1 27.8,-52 29,-52.9 1.8,-1.5 4.5,-1.5 6.3,0 1.2,1 29,23.8 29,52.9 0,29.1 -27.8,52 -29,52.9 -0.9,0.8 -2.1,1.1 -3.2,1.1 z m 0,-96.3 c -6.8,6.5 -22.1,23.3 -22.1,42.3 0,19.1 15.3,35.8 22.1,42.3 6.8,-6.5 22.1,-23.3 22.1,-42.3 0.1,-19 -15.3,-35.8 -22.1,-42.3 z"
   id="path1065"
   inkscape:connector-curvature="0" /><polygon
   id="polygon1071"
   points="2310.1,448 2285.3,458.6 2330.7,564.9 2330.7,635.3 2399,635.3 2399,574.5 2448.6,458.6 2423.8,448 2384.2,540.7 2378.3,540.7 2378.3,432.8 2351.4,432.8 2351.4,540.7 2349.7,540.7 "
   class="st4" /><path
   inkscape:connector-curvature="0"
   id="path1073"
   d="m 2399,640.3 h -68.4 c -2.8,0 -5,-2.2 -5,-5 v -69.5 l -45,-105.3 c -1.1,-2.5 0.1,-5.5 2.6,-6.6 l 24.8,-10.6 c 1.2,-0.5 2.6,-0.5 3.8,0 1.2,0.5 2.2,1.5 2.7,2.7 l 31.7,74.2 v -87.4 c 0,-2.8 2.2,-5 5,-5 h 27 c 2.8,0 5,2.2 5,5 v 97.1 L 2419,446 c 0.5,-1.2 1.5,-2.2 2.7,-2.7 1.2,-0.5 2.6,-0.5 3.8,0 l 24.8,10.6 c 2.5,1.1 3.7,4 2.6,6.6 l -49.1,115 v 59.8 c 0.2,2.8 -2,5 -4.8,5 z m -63.3,-10 h 58.4 v -55.8 c 0,-0.7 0.1,-1.3 0.4,-2 l 47.6,-111.3 -15.6,-6.7 -37.6,88.1 c -0.8,1.8 -2.6,3 -4.6,3 h -5.8 c -2.8,0 -5,-2.2 -5,-5 V 437.8 h -17 v 102.9 c 0,2.8 -2.2,5 -5,5 h -1.7 c -2,0 -3.8,-1.2 -4.6,-3 l -37.6,-88.1 -15.6,6.7 43.4,101.6 c 0.3,0.6 0.4,1.3 0.4,2 v 65.4 z"
   class="st2" /><path
   inkscape:connector-curvature="0"
   id="path1077"
   d="m 2525.6,399.3 c 0,-28.8 -22.7,-52.3 -51.2,-53.6 -8.6,-18.2 -27.1,-30.9 -48.6,-30.9 -17.7,0 -33.5,8.6 -43.2,21.9 -9.8,-10.5 -23.7,-17.1 -39.2,-17.1 -1.6,0 -3.1,0.1 -4.6,0.2 -9.1,-16.6 -26.8,-27.9 -47.1,-27.9 -29.6,0 -53.7,24 -53.7,53.7 0,1.2 0.1,2.5 0.1,3.7 -19.9,7.8 -34.1,27.2 -34.1,50 0,29.6 24,53.7 53.7,53.7 0.2,0 0.4,0 0.5,0 -0.3,2.5 -0.5,5 -0.5,7.5 0,29.6 24,53.7 53.7,53.7 20.4,0 38.1,-11.4 47.2,-28.1 8.7,6 19.1,9.5 30.4,9.5 0.8,0 1.6,0 2.4,-0.1 6.8,21.8 27.2,37.6 51.2,37.6 29.6,0 53.7,-24 53.7,-53.7 0,-10.6 -3.1,-20.5 -8.4,-28.9 21.9,-6.8 37.7,-27.1 37.7,-51.2 z"
   class="st3" /><path
   inkscape:connector-curvature="0"
   id="path1079"
   d="m 2442.7,538.1 c -24.5,0 -46.1,-15 -54.8,-37.6 -9.8,-0.2 -19.2,-2.8 -27.7,-7.5 -10.8,16.3 -29.1,26.2 -48.9,26.2 -32.4,0 -58.7,-26.3 -58.7,-58.7 0,-0.9 0,-1.8 0.1,-2.7 -30.1,-2.5 -53.7,-27.8 -53.7,-58.5 0,-23.1 13.2,-43.6 33.9,-53.2 0,-0.2 0,-0.3 0,-0.5 0,-32.4 26.3,-58.7 58.7,-58.7 20.4,0 39.2,10.6 49.9,27.7 0.6,0 1.2,0 1.8,0 14.3,0 28.1,5.3 38.8,14.7 11.1,-12.3 27,-19.5 43.7,-19.5 21.6,0 41.6,12.1 51.8,31.1 30,2.9 53,28 53,58.4 0,23.7 -14,44.7 -35.4,53.9 4.1,8.1 6.2,17.1 6.2,26.2 0,32.4 -26.3,58.7 -58.7,58.7 z m -51.2,-47.6 c 2.2,0 4.1,1.4 4.8,3.5 6.4,20.4 25.1,34.1 46.5,34.1 26.8,0 48.7,-21.8 48.7,-48.7 0,-9.3 -2.6,-18.4 -7.7,-26.2 -0.8,-1.3 -1,-2.9 -0.5,-4.4 0.5,-1.5 1.7,-2.6 3.2,-3.1 20.4,-6.4 34.1,-25.1 34.1,-46.5 0,-26.1 -20.4,-47.4 -46.4,-48.6 -1.9,-0.1 -3.5,-1.2 -4.3,-2.9 -8,-17 -25.3,-28 -44.1,-28 -15.4,0 -30.1,7.4 -39.2,19.8 -0.9,1.2 -2.3,1.9 -3.7,2 -1.5,0.1 -2.9,-0.5 -3.9,-1.6 -9.3,-10 -22,-15.5 -35.6,-15.5 -1.3,0 -2.7,0.1 -4.2,0.2 -2,0.2 -3.9,-0.8 -4.8,-2.6 -8.6,-15.6 -24.9,-25.3 -42.7,-25.3 -26.8,0 -48.7,21.8 -48.7,48.7 0,1 0,2.1 0.1,3.4 0.1,2.2 -1.1,4.2 -3.2,5 -18.8,7.4 -30.9,25.2 -30.9,45.3 0,26.8 21.8,48.7 48.7,48.7 h 0.5 c 0,0 0,0 0.1,0 1.4,0 2.8,0.6 3.8,1.7 1,1.1 1.4,2.6 1.2,4 -0.3,2.3 -0.5,4.6 -0.5,6.8 0,26.8 21.8,48.7 48.7,48.7 17.9,0 34.3,-9.8 42.8,-25.5 0.7,-1.2 1.9,-2.1 3.2,-2.5 1.4,-0.3 2.8,-0.1 4,0.7 8.1,5.6 17.7,8.6 27.6,8.6 0.7,0 1.5,0 2.2,-0.1 0.1,0.3 0.1,0.3 0.2,0.3 z"
   class="st2" /><path
   class="st2"
   d="m 2458,429.9 c -0.9,0 -1.8,-0.2 -2.6,-0.7 -20.9,-12.8 -27.4,-40.2 -14.6,-61.1 1.4,-2.4 4.5,-3.1 6.9,-1.6 2.4,1.4 3.1,4.5 1.6,6.9 -9.9,16.2 -4.9,37.4 11.3,47.3 2.4,1.4 3.1,4.5 1.6,6.9 -0.9,1.5 -2.6,2.3 -4.2,2.3 z"
   id="path1085"
   inkscape:connector-curvature="0" /><path
   class="st2"
   d="m 2305,417.2 c -0.5,0 -1,-0.1 -1.6,-0.3 -2.6,-0.9 -4.1,-3.7 -3.2,-6.3 5.9,-18 -3.9,-37.5 -21.9,-43.4 -2.6,-0.9 -4.1,-3.7 -3.2,-6.3 0.9,-2.6 3.7,-4.1 6.3,-3.2 23.3,7.6 36,32.8 28.3,56 -0.6,2.1 -2.6,3.5 -4.7,3.5 z"
   id="path1089"
   inkscape:connector-curvature="0" /><path
   class="st2"
   d="m 2341.9,424.6 c -1.1,0 -2.3,-0.4 -3.2,-1.2 -2.1,-1.8 -2.4,-4.9 -0.6,-7 7.6,-9.1 18.3,-14.7 30.1,-15.7 11.8,-1.1 23.3,2.6 32.4,10.2 2.1,1.8 2.4,4.9 0.6,7 -1.8,2.1 -4.9,2.4 -7,0.6 -7.1,-5.9 -16,-8.7 -25.1,-7.9 -9.1,0.8 -17.4,5.1 -23.3,12.2 -1.1,1.2 -2.5,1.8 -3.9,1.8 z"
   id="path1093"
   inkscape:connector-curvature="0" /><path
   inkscape:connector-curvature="0"
   id="path1099"
   d="m 429.1,2273.1 c -40.2,-40.2 -107.6,-38 -107.6,-38 0,0 -2.2,67.4 38,107.6 40.2,40.2 107.6,38 107.6,38 0,0 2.2,-67.4 -38,-107.6 z"
   class="st3" /><path
   inkscape:connector-curvature="0"
   id="path1101"
   d="m 464.8,2385.7 c -12.8,0 -71.4,-2.1 -108.8,-39.5 -41.3,-41.3 -39.6,-108.4 -39.5,-111.3 0.1,-2.6 2.2,-4.8 4.8,-4.8 2.8,-0.1 70,-1.8 111.3,39.5 v 0 c 41.3,41.3 39.6,108.4 39.5,111.3 -0.1,2.6 -2.2,4.8 -4.8,4.8 -0.3,0 -1.2,0 -2.5,0 z M 326.6,2240.2 c 0.4,15.9 4.5,66.9 36.5,99 32,32 83.1,36.1 99,36.5 -0.4,-15.9 -4.5,-66.9 -36.5,-99 -32.1,-32.1 -83.2,-36.1 -99,-36.5 z"
   class="st2" /><path
   inkscape:connector-curvature="0"
   id="path1105"
   d="m 467.1,2385.7 c -1.3,0 -2.5,-0.5 -3.5,-1.4 l -142.9,-138 c -2,-1.9 -2,-5.1 -0.1,-7.1 1.9,-2 5.1,-2 7.1,-0.1 l 142.9,138 c 2,1.9 2,5.1 0.1,7.1 -1,1 -2.3,1.5 -3.6,1.5 z"
   class="st2" /><path
   inkscape:connector-curvature="0"
   id="path1111"
   d="m 464.4,2427.9 c 40.2,-40.2 107.6,-38 107.6,-38 0,0 2.2,67.4 -38,107.6 -40.2,40.2 -107.6,38 -107.6,38 0,0 -2.2,-67.4 38,-107.6 z"
   class="st3" /><path
   inkscape:connector-curvature="0"
   id="path1113"
   d="m 428.7,2540.5 c -1.3,0 -2.2,0 -2.4,0 -2.6,-0.1 -4.7,-2.2 -4.8,-4.8 -0.1,-2.8 -1.8,-70 39.5,-111.3 v 0 0 c 41.3,-41.3 108.4,-39.6 111.3,-39.5 2.6,0.1 4.7,2.2 4.8,4.8 0.1,2.8 1.8,70 -39.5,111.3 -37.5,37.4 -96.1,39.5 -108.9,39.5 z m 138.2,-145.6 c -15.9,0.4 -66.9,4.4 -99,36.5 v 0 c -32,32 -36.1,83.1 -36.5,99 15.9,-0.4 66.9,-4.5 99,-36.5 32.1,-32.1 36.1,-83.1 36.5,-99 z m -102.5,33 z"
   class="st2" /><path
   inkscape:connector-curvature="0"
   id="path1117"
   d="m 426.4,2540.5 c -1.3,0 -2.6,-0.5 -3.6,-1.5 -1.9,-2 -1.9,-5.2 0.1,-7.1 l 142.9,-138 c 2,-1.9 5.2,-1.9 7.1,0.1 1.9,2 1.9,5.2 -0.1,7.1 l -142.9,138 c -1,0.9 -2.2,1.4 -3.5,1.4 z"
   class="st2" /><path
   inkscape:connector-curvature="0"
   id="path1123"
   d="m 283.2,2397.2 c 54.7,-15.4 112.4,19.5 112.4,19.5 0,0 -31,59.8 -85.8,75.2 -54.8,15.4 -112.4,-19.5 -112.4,-19.5 0,0 31.1,-59.8 85.8,-75.2 z"
   class="st3" /><path
   inkscape:connector-curvature="0"
   id="path1125"
   d="m 280,2500.8 c -44.6,0 -83.2,-22.9 -85.1,-24.1 -2.3,-1.4 -3.1,-4.2 -1.9,-6.6 1.3,-2.5 32.7,-61.9 88.8,-77.7 56.2,-15.8 113.9,18.5 116.3,20 2.3,1.4 3.1,4.2 1.9,6.6 -1.3,2.5 -32.7,61.9 -88.8,77.7 -10.4,2.9 -21,4.1 -31.2,4.1 z m -75.7,-30.3 c 14.1,7.4 60.6,28.9 104.2,16.6 43.7,-12.3 72.1,-54.8 80.3,-68.5 -14.1,-7.4 -60.6,-28.9 -104.2,-16.6 -43.7,12.3 -72.1,54.8 -80.3,68.5 z"
   class="st2" /><path
   inkscape:connector-curvature="0"
   id="path1129"
   d="m 197.5,2477.4 c -2.2,0 -4.2,-1.5 -4.8,-3.7 -0.7,-2.7 0.9,-5.4 3.6,-6.1 l 192.1,-50.5 c 2.7,-0.7 5.4,0.9 6.1,3.6 0.7,2.7 -0.9,5.4 -3.6,6.1 l -192.1,50.5 c -0.5,0 -0.9,0.1 -1.3,0.1 z"
   class="st2" /><path
   class="st3"
   d="m 2127.2,2266.5 c 0,131.3 106.4,237.7 237.7,237.7 131.3,0 237.7,-106.4 237.7,-237.7 z"
   id="path1137"
   inkscape:connector-curvature="0" /><path
   class="st2"
   d="m 2364.8,2509.1 c -64.8,0 -125.8,-25.2 -171.6,-71.1 -45.8,-45.8 -71.1,-106.8 -71.1,-171.6 0,-2.8 2.2,-5 5,-5 h 475.4 c 2.8,0 5,2.2 5,5 0,64.8 -25.2,125.8 -71.1,171.6 -45.8,45.9 -106.7,71.1 -171.6,71.1 z m -232.6,-237.6 c 1.3,60.3 25.3,116.8 68.1,159.5 43.9,43.9 102.4,68.1 164.5,68.1 62.1,0 120.6,-24.2 164.5,-68.1 42.8,-42.8 66.8,-99.2 68.1,-159.5 z"
   id="path1139"
   inkscape:connector-curvature="0" /><path
   class="st4"
   d="m 2149.8,2266.9 c 0,118.8 96.3,215 215,215 118.8,0 215,-96.3 215,-215 z"
   id="path1143"
   inkscape:connector-curvature="0" /><path
   class="st2"
   d="m 2364.8,2487 c -58.8,0 -114,-22.9 -155.6,-64.4 -41.6,-41.6 -64.4,-96.8 -64.4,-155.6 0,-2.8 2.2,-5 5,-5 h 430.1 c 2.8,0 5,2.2 5,5 0,58.8 -22.9,114 -64.4,155.6 -41.6,41.5 -96.9,64.4 -155.7,64.4 z m -209.9,-215.1 c 2.7,113.5 95.8,205 210,205 114.2,0 207.3,-91.5 210,-205 z"
   id="path1145"
   inkscape:connector-curvature="0" /><path
   class="st5"
   d="m 2179,2266.9 c 0,102.7 83.2,185.9 185.9,185.9 102.7,0 185.9,-83.2 185.9,-185.9 z"
   id="path1149"
   inkscape:connector-curvature="0" /><path
   class="st2"
   d="m 2364.8,2457.8 c -105.2,0 -190.9,-85.6 -190.9,-190.9 0,-2.8 2.2,-5 5,-5 h 371.8 c 2.8,0 5,2.2 5,5 0,105.3 -85.6,190.9 -190.9,190.9 z M 2184,2271.9 c 2.7,97.4 82.7,175.9 180.8,175.9 98.1,0 178.1,-78.4 180.8,-175.9 z"
   id="path1151"
   inkscape:connector-curvature="0" /><path
   class="st2"
   d="m 2364.8,2321.7 c -2.8,0 -5,-2.2 -5,-5 v -13.6 c 0,-2.8 2.2,-5 5,-5 2.8,0 5,2.2 5,5 v 13.6 c 0,2.8 -2.2,5 -5,5 z"
   id="path1155"
   inkscape:connector-curvature="0" /><path
   class="st2"
   d="m 2281.9,2364.9 c -0.5,0 -0.9,-0.1 -1.4,-0.2 -2.7,-0.8 -4.2,-3.5 -3.4,-6.2 l 3.6,-12.4 c 0.8,-2.7 3.5,-4.2 6.2,-3.4 2.7,0.8 4.2,3.5 3.4,6.2 l -3.6,12.4 c -0.6,2.2 -2.6,3.6 -4.8,3.6 z"
   id="path1159"
   inkscape:connector-curvature="0" /><path
   class="st2"
   d="m 2330.8,2383.2 c -2.8,0 -5,-2.2 -5,-5 v -11.8 c 0,-2.8 2.2,-5 5,-5 2.8,0 5,2.2 5,5 v 11.8 c 0,2.8 -2.3,5 -5,5 z"
   id="path1163"
   inkscape:connector-curvature="0" /><path
   class="st2"
   d="m 2415.8,2377.3 c -2.3,0 -4.4,-1.6 -4.9,-3.9 l -2.7,-12.5 c -0.6,-2.7 1.1,-5.4 3.8,-5.9 2.7,-0.6 5.4,1.1 5.9,3.8 l 2.7,12.5 c 0.6,2.7 -1.1,5.4 -3.8,5.9 -0.3,0.1 -0.7,0.1 -1,0.1 z"
   id="path1167"
   inkscape:connector-curvature="0" /><path
   class="st2"
   d="m 2441.1,2336.2 c -1.6,0 -3.2,-0.8 -4.2,-2.2 l -7.2,-10.8 c -1.5,-2.3 -0.9,-5.4 1.4,-6.9 2.3,-1.5 5.4,-0.9 6.9,1.4 l 7.2,10.8 c 1.5,2.3 0.9,5.4 -1.4,6.9 -0.8,0.5 -1.8,0.8 -2.7,0.8 z"
   id="path1171"
   inkscape:connector-curvature="0" /><path
   class="st2"
   d="m 2491.7,2325.4 c -1.4,0 -2.8,-0.6 -3.8,-1.7 l -9,-10.4 c -1.8,-2.1 -1.6,-5.2 0.5,-7.1 2.1,-1.8 5.2,-1.6 7.1,0.5 l 9,10.4 c 1.8,2.1 1.6,5.2 -0.5,7.1 -1,0.7 -2.1,1.2 -3.3,1.2 z"
   id="path1175"
   inkscape:connector-curvature="0" /><path
   class="st2"
   d="m 2253,2315 c -0.4,0 -0.9,-0.1 -1.3,-0.2 -2.7,-0.7 -4.2,-3.5 -3.5,-6.1 l 3.6,-13.1 c 0.7,-2.7 3.5,-4.2 6.1,-3.5 2.7,0.7 4.2,3.5 3.5,6.1 l -3.6,13.1 c -0.6,2.2 -2.6,3.7 -4.8,3.7 z"
   id="path1179"
   inkscape:connector-curvature="0" /><path
   class="st2"
   d="m 2297.3,2308.4 c -0.3,0 -0.6,0 -0.9,-0.1 -2.7,-0.5 -4.5,-3.1 -4,-5.8 l 1.8,-10.2 c 0.5,-2.7 3.1,-4.5 5.8,-4 2.7,0.5 4.5,3.1 4,5.8 l -1.8,10.2 c -0.4,2.4 -2.5,4.1 -4.9,4.1 z"
   id="path1183"
   inkscape:connector-curvature="0" /><path
   class="st2"
   d="m 2373.3,2419.4 c -2.3,0 -4.4,-1.6 -4.9,-4 l -1.8,-9 c -0.5,-2.7 1.2,-5.3 3.9,-5.9 2.7,-0.5 5.3,1.2 5.9,3.9 l 1.8,9 c 0.5,2.7 -1.2,5.3 -3.9,5.9 -0.4,0.1 -0.7,0.1 -1,0.1 z"
   id="path1187"
   inkscape:connector-curvature="0" /><path
   class="st4"
   d="m 283.6,1593.6 16.3,308.8 c 0,13.9 38,25.1 84.8,25.1 46.8,0 84.8,-11.2 84.8,-25.1 l 16.3,-308.8 z"
   id="path1193"
   inkscape:connector-curvature="0" /><path
   class="st2"
   d="m 384.7,1932.5 c -44.5,0 -89.6,-10.3 -89.8,-30 l -16.3,-308.7 c -0.1,-1.4 0.4,-2.7 1.4,-3.7 0.9,-1 2.3,-1.6 3.6,-1.6 h 202.2 c 1.4,0 2.7,0.6 3.6,1.6 0.9,1 1.4,2.3 1.4,3.7 l -16.3,308.7 c -0.2,19.7 -45.3,30 -89.8,30 z m -95.8,-333.9 16,303.6 c 0,0.1 0,0.2 0,0.3 0,2.5 4.5,8 21.3,13 15.6,4.6 36.4,7.1 58.5,7.1 22.1,0 43,-2.5 58.5,-7.1 16.8,-5 21.3,-10.5 21.3,-13 0,-0.1 0,-0.2 0,-0.3 l 16,-303.6 z"
   id="path1195"
   inkscape:connector-curvature="0" /><polygon
   class="st4"
   points="291.8,1747.7 477.7,1747.7 485.8,1593.6 283.6,1593.6 "
   id="polygon1199" /><path
   class="st2"
   d="M 477.7,1752.7 H 291.8 c -2.7,0 -4.9,-2.1 -5,-4.7 l -8.1,-154.1 c -0.1,-1.4 0.4,-2.7 1.4,-3.7 0.9,-1 2.3,-1.6 3.6,-1.6 h 202.2 c 1.4,0 2.7,0.6 3.6,1.6 0.9,1 1.4,2.3 1.4,3.7 l -8.1,154.1 c -0.3,2.6 -2.4,4.7 -5.1,4.7 z m -181.2,-10 H 473 l 7.6,-144.1 H 288.9 Z"
   id="path1201"
   inkscape:connector-curvature="0" /><path
   class="st6"
   d="m 384.7,1927.5 c 46.8,0 84.8,-11.2 84.8,-25.1 l 8.2,-154.7 H 291.8 l 8.2,154.7 c -0.1,13.9 37.9,25.1 84.7,25.1 z"
   id="path1205"
   inkscape:connector-curvature="0" /><path
   class="st2"
   d="m 384.7,1932.5 c -44.5,0 -89.6,-10.3 -89.8,-30 l -8.2,-154.6 c -0.1,-1.4 0.4,-2.7 1.4,-3.7 0.9,-1 2.3,-1.6 3.6,-1.6 h 185.9 c 1.4,0 2.7,0.6 3.6,1.6 0.9,1 1.4,2.3 1.4,3.7 l -8.2,154.6 c -0.1,19.7 -45.2,30 -89.7,30 z m -87.7,-179.8 7.9,149.4 c 0,0.1 0,0.2 0,0.3 0,2.5 4.5,8 21.3,13 15.6,4.6 36.4,7.1 58.5,7.1 22.1,0 43,-2.5 58.5,-7.1 16.8,-5 21.3,-10.5 21.3,-13 0,-0.1 0,-0.2 0,-0.3 l 7.9,-149.4 z"
   id="path1207"
   inkscape:connector-curvature="0" /><ellipse
   class="st4"
   cx="384.70001"
   cy="1595.1"
   rx="101"
   ry="16.299999"
   id="ellipse1211" /><path
   class="st2"
   d="m 384.7,1616.4 c -27.2,0 -52.9,-1.7 -72.2,-4.8 -23.7,-3.8 -33.8,-8.7 -33.8,-16.4 0,-7.7 10.1,-12.6 33.8,-16.4 19.3,-3.1 45,-4.8 72.2,-4.8 27.2,0 52.9,1.7 72.2,4.8 23.7,3.8 33.8,8.7 33.8,16.4 0,7.7 -10.1,12.6 -33.8,16.4 -19.3,3.1 -44.9,4.8 -72.2,4.8 z m -94.8,-21.3 c 2.6,1.5 9.8,4.5 28.3,7.2 18.3,2.6 41.9,4.1 66.5,4.1 24.6,0 48.2,-1.4 66.5,-4.1 18.5,-2.7 25.7,-5.7 28.3,-7.2 -2.6,-1.5 -9.8,-4.5 -28.3,-7.2 -18.3,-2.6 -41.9,-4.1 -66.5,-4.1 -24.6,0 -48.2,1.4 -66.5,4.1 -18.5,2.7 -25.7,5.7 -28.3,7.2 z m 191.1,1.1 z"
   id="path1213"
   inkscape:connector-curvature="0" /><ellipse
   class="st6"
   cx="384.70001"
   cy="1751.4"
   rx="93"
   ry="16.299999"
   id="ellipse1217" /><path
   class="st2"
   d="m 384.7,1772.6 c -25.1,0 -48.8,-1.7 -66.6,-4.8 -21.7,-3.8 -31.4,-8.9 -31.4,-16.4 0,-7.5 9.7,-12.6 31.4,-16.4 17.8,-3.1 41.5,-4.8 66.6,-4.8 25.1,0 48.8,1.7 66.6,4.8 21.7,3.8 31.4,8.9 31.4,16.4 0,7.5 -9.7,12.6 -31.4,16.4 -17.8,3.1 -41.5,4.8 -66.6,4.8 z m -87.2,-21.2 c 6,4.3 35.3,11.3 87.2,11.3 52,0 81.3,-7 87.2,-11.3 -6,-4.3 -35.3,-11.3 -87.2,-11.3 -51.9,0 -81.2,7 -87.2,11.3 z m 175.4,0.9 z"
   id="path1219"
   inkscape:connector-curvature="0" /><path
   class="st3"
   d="m 431.5,984.5 c -17,0 -33,5.8 -46.7,15.9 C 371,990.3 355,984.5 338,984.5 c -51.6,0 -93.4,53.3 -93.4,119.1 0,65.8 41.8,119.1 93.4,119.1 17,0 33,-5.8 46.7,-15.9 13.7,10.1 29.7,15.9 46.7,15.9 51.6,0 93.4,-53.3 93.4,-119.1 0.1,-65.8 -41.7,-119.1 -93.3,-119.1 z"
   id="path1225"
   inkscape:connector-curvature="0" /><path
   class="st2"
   d="m 431.5,1227.6 c -16.4,0 -32.4,-5.1 -46.7,-14.8 -14.3,9.7 -30.4,14.8 -46.7,14.8 -54.3,0 -98.4,-55.7 -98.4,-124.1 0,-68.4 44.2,-124.1 98.4,-124.1 16.4,0 32.4,5.1 46.7,14.8 14.3,-9.7 30.4,-14.8 46.7,-14.8 54.3,0 98.4,55.7 98.4,124.1 0,68.4 -44.2,124.1 -98.4,124.1 z m -46.8,-25.9 c 1,0 2.1,0.3 3,1 13.3,9.8 28.4,15 43.8,15 48.8,0 88.4,-51.2 88.4,-114.1 0,-62.9 -39.7,-114.1 -88.4,-114.1 -15.3,0 -30.5,5.2 -43.8,15 -1.8,1.3 -4.2,1.3 -5.9,0 -13.3,-9.8 -28.4,-15 -43.8,-15 -48.8,0 -88.4,51.2 -88.4,114.1 0,62.9 39.7,114.1 88.4,114.1 15.3,0 30.5,-5.2 43.8,-15 0.8,-0.7 1.9,-1 2.9,-1 z"
   id="path1227"
   inkscape:connector-curvature="0" /><path
   class="st2"
   d="m 384.7,1005.4 c -2.8,0 -5,-2.2 -5,-5 0,-35.4 28.8,-64.2 64.2,-64.2 2.8,0 5,2.2 5,5 0,2.8 -2.2,5 -5,5 -29.9,0 -54.2,24.3 -54.2,54.2 0,2.8 -2.2,5 -5,5 z"
   id="path1231"
   inkscape:connector-curvature="0" /><path
   class="st3"
   d="m 378.2,911.6 c -19,-19 -50.9,-18 -50.9,-18 0,0 -1,31.9 18,50.9 19,19 50.9,18 50.9,18 0,0 1,-31.9 -18,-50.9 z"
   id="path1235"
   inkscape:connector-curvature="0" /><path
   class="st2"
   d="m 395.2,967.5 c -6.3,0 -35,-1 -53.4,-19.5 -20.3,-20.3 -19.5,-53.2 -19.5,-54.6 0.1,-2.6 2.2,-4.7 4.8,-4.8 1.4,0 34.3,-0.9 54.6,19.5 20.3,20.3 19.5,53.2 19.5,54.6 -0.1,2.6 -2.2,4.7 -4.8,4.8 -0.2,0 -0.6,0 -1.2,0 z m 1,-5 z m -63.8,-63.8 c 0.6,9.2 3.4,29.3 16.4,42.2 13,13 33,15.8 42.2,16.4 -0.6,-9.2 -3.4,-29.3 -16.4,-42.2 -12.9,-13 -33,-15.8 -42.2,-16.4 z"
   id="path1237"
   inkscape:connector-curvature="0" /><path
   class="st3"
   d="m 2356,1644.8 c -4.2,-6.5 -8,-13.3 -11.8,-20 -15.6,-28.2 -23.6,-52.2 -80.8,-27.7 v 0 c -30.3,13 -45.5,47 -35.7,77.9 2.3,7.3 4.5,14.5 6.3,21.9 6.3,26 17.1,76.9 13.2,105.4 -2.8,20.2 -0.1,41.5 9,61.5 25,54.9 88.6,80.7 144.1,56.9 139.5,-59.7 84.5,-90 60.1,-147.1 -8.2,-19.2 -21.2,-34.9 -36.9,-46.3 -23.6,-17.1 -53,-60 -67.5,-82.5 z"
   id="path1243"
   inkscape:connector-curvature="0" /><path
   class="st2"
   d="m 2357.3,1934.6 c -14.3,0 -28.7,-2.7 -42.4,-8.2 -28.2,-11.2 -50.6,-32.7 -63.3,-60.5 -9.2,-20.2 -12.4,-42.4 -9.4,-64.3 3.9,-28.4 -7.8,-81.9 -13.1,-103.6 -1.9,-7.9 -4.3,-15.7 -6.2,-21.6 -5.1,-16.2 -4.1,-33.6 3,-49.2 7.1,-15.7 19.7,-28 35.5,-34.8 26,-11.1 44.4,-13.3 57.8,-7 12.5,5.9 19.2,18.3 26.3,31.4 1,1.8 2,3.6 3,5.5 3.6,6.4 7.4,13.2 11.6,19.8 34.9,54.2 56.5,74.1 66.2,81.2 16.9,12.3 30.3,29 38.5,48.4 4.2,9.9 9.4,19 14.5,27.8 11.3,19.8 22,38.5 15.3,58.5 -7.5,22.4 -36.1,43.2 -92.5,67.3 -14.3,6.2 -29.5,9.3 -44.8,9.3 z m -55.1,-342.7 c -9.5,0 -21.5,3.2 -36.8,9.7 -27.5,11.8 -41.9,43.3 -32.9,71.8 1.9,6.1 4.4,14.1 6.4,22.3 6.7,27.6 17.3,78.3 13.3,107.3 -2.8,20 0.2,40.3 8.6,58.7 11.6,25.5 32.1,45.1 57.9,55.4 25.8,10.3 54.1,9.9 79.6,-1 52.9,-22.6 80.5,-42.1 86.9,-61.3 5.3,-15.7 -3.5,-31 -14.5,-50.4 -5.2,-9 -10.5,-18.4 -15,-28.8 -7.6,-17.7 -19.8,-33 -35.2,-44.2 -24,-17.4 -53.4,-60 -68.7,-83.9 v 0 c -4.4,-6.8 -8.3,-13.8 -11.9,-20.3 -1,-1.9 -2,-3.7 -3,-5.6 -6.6,-12.1 -12.3,-22.6 -21.8,-27.1 -3.7,-1.7 -8,-2.6 -12.9,-2.6 z"
   id="path1245"
   inkscape:connector-curvature="0" /><path
   class="st4"
   d="m 2391.5,1629.6 c -4.2,-6.5 -8,-13.3 -11.8,-20 -15.6,-28.2 -50.6,-40.6 -80.8,-27.7 v 0 c -30.3,13 -45.5,47 -35.7,77.9 2.3,7.3 4.5,14.5 6.3,21.9 6.3,26 17.1,76.9 13.2,105.4 -2.8,20.2 -0.1,41.5 9,61.5 25,54.9 88.3,79.9 144.1,56.9 57.6,-23.8 84.5,-90 60.1,-147.1 -8.2,-19.2 -21.2,-34.9 -36.9,-46.3 -23.6,-17.1 -53,-60 -67.5,-82.5 z"
   id="path1249"
   inkscape:connector-curvature="0" /><path
   class="st2"
   d="m 2392.9,1919.1 c -44.3,0 -86.3,-25.4 -105.8,-68.4 -9.2,-20.2 -12.4,-42.4 -9.4,-64.3 3.9,-28.4 -7.8,-81.9 -13.1,-103.6 -1.9,-7.9 -4.3,-15.7 -6.2,-21.6 -5.1,-16.2 -4.1,-33.6 3,-49.2 7.1,-15.7 19.7,-28 35.5,-34.8 15.7,-6.7 33.3,-7.3 49.5,-1.7 16.1,5.6 29.5,16.8 37.7,31.6 3.6,6.4 7.4,13.2 11.6,19.8 v 0 c 34.9,54.2 56.5,74.1 66.2,81.2 16.9,12.3 30.3,29 38.5,48.4 12.4,28.9 12.6,60.8 0.7,90 -11.9,29.1 -34.4,51.7 -63.5,63.7 -14.6,6 -29.8,8.9 -44.7,8.9 z m -69.1,-337.3 c -7.8,0 -15.6,1.6 -23,4.7 -27.5,11.8 -41.9,43.3 -32.9,71.8 1.9,6.1 4.4,14.1 6.4,22.3 6.7,27.6 17.3,78.3 13.3,107.3 -2.8,20 0.2,40.3 8.6,58.7 23.9,52.5 84.3,76.3 137.6,54.4 26.6,-11 47.2,-31.7 58.1,-58.3 10.9,-26.6 10.6,-55.8 -0.7,-82.2 -7.6,-17.7 -19.8,-33 -35.2,-44.2 -24,-17.4 -53.4,-60 -68.7,-83.9 v 0 c -4.4,-6.8 -8.3,-13.8 -11.9,-20.3 -7,-12.6 -18.4,-22.2 -32.2,-27 -6.3,-2.2 -12.9,-3.3 -19.4,-3.3 z"
   id="path1251"
   inkscape:connector-curvature="0" /><circle
   style="stroke-width:0.999991"
   transform="rotate(-23.160221)"
   class="st1"
   cx="1501.5601"
   cy="2591.1196"
   id="ellipse1255"
   r="56.999466" /><path
   class="st2"
   d="m 2399.8,1853.6 c -24.1,0 -47.1,-14.1 -57.1,-37.6 -13.5,-31.5 1.2,-68 32.6,-81.4 31.4,-13.5 68,1.2 81.4,32.6 v 0 c 6.5,15.2 6.7,32.1 0.5,47.5 -6.2,15.4 -17.9,27.4 -33.2,34 -7.8,3.3 -16.1,4.9 -24.2,4.9 z m -0.2,-114 c -6.8,0 -13.7,1.3 -20.4,4.2 -26.4,11.3 -38.7,41.9 -27.4,68.3 5.5,12.8 15.6,22.7 28.5,27.8 12.9,5.2 27,5 39.8,-0.5 12.8,-5.5 22.7,-15.6 27.8,-28.5 5.1,-12.9 5,-27 -0.5,-39.8 v 0 c -8.3,-19.7 -27.6,-31.5 -47.8,-31.5 z"
   id="path1257"
   inkscape:connector-curvature="0" /><path
   class="st4"
   d="m 2354.9,963.9 c 28.3,-11.9 42.3,-44.6 31,-73.4 -11.4,-29.3 -44.7,-43.9 -74,-32.5 l -56.8,22.2 c -29.3,11.4 -43.9,44.7 -32.5,74 11.2,28.7 43.5,43.3 72.3,33 -4.2,0.2 -33,1 -34.2,-18 -0.6,-9.3 3.3,-14.8 7.6,-18 5.1,-3.8 12.4,-1.5 14.8,4.4 l 12.3,31.4 c 0,0 0.1,0 0.1,0 l 10.2,26.1 c 6.3,16.2 24.7,24.3 40.9,18 v 0 c 16.2,-6.3 24.3,-24.7 18,-40.9 l -10.1,-26 c 0,0 0,0 0,0 l -12.3,-31.6 c -2.3,-5.9 1.6,-12.5 7.9,-13.2 5.4,-0.6 11.9,0.9 17.8,8.1 12,14.8 -9.8,33.8 -13,36.4 z"
   id="path1263"
   inkscape:connector-curvature="0" /><path
   class="st2"
   d="m 2335.3,1038.3 c -14.6,0 -28.5,-8.9 -34.1,-23.3 l -8.5,-21.7 c -14.1,4 -29,2.8 -42.5,-3.3 -14.8,-6.8 -26.2,-18.8 -32.1,-33.9 -6,-15.4 -5.6,-32.3 1.1,-47.5 6.7,-15.2 18.8,-26.9 34.2,-32.9 l 56.8,-22.2 c 31.9,-12.4 68,3.4 80.4,35.3 11.6,29.7 -1.7,63.6 -29.7,77.9 l 8.5,21.7 c 7.3,18.8 -2,40.1 -20.8,47.4 -4.4,1.7 -8.9,2.5 -13.3,2.5 z m -35.6,-54.1 c 0.2,0.3 0.4,0.7 0.6,1.1 l 10.2,26.1 c 5.3,13.7 20.8,20.4 34.5,15.1 13.7,-5.3 20.4,-20.8 15.1,-34.5 l -9.9,-25.4 c -0.1,-0.2 -0.2,-0.4 -0.3,-0.6 l -12.3,-31.6 c -1.7,-4.3 -1.3,-9.1 1.1,-13.1 2.4,-3.9 6.3,-6.4 10.9,-6.9 6,-0.6 14.6,0.5 22.2,9.9 3.9,4.8 5.1,10 4.5,15.3 8.8,-13.7 11.2,-31.2 5,-47.3 -10.4,-26.8 -40.7,-40.1 -67.5,-29.6 l -56.8,22.2 c -12.9,5 -23.1,14.8 -28.7,27.6 -5.6,12.8 -5.9,26.9 -0.9,39.8 6.2,15.9 19.7,27.1 35.3,31.3 -3.9,-3.5 -6.4,-8.1 -6.8,-14.1 -0.7,-12 4.8,-18.8 9.7,-22.3 3.7,-2.7 8.3,-3.5 12.7,-2.2 4.5,1.3 8,4.5 9.7,8.8 z m -25.6,-29.8 c -0.8,0 -1.7,0.2 -2.6,0.9 -4.2,3.1 -6,7.5 -5.6,13.7 0.6,10.4 14,12.8 22.4,13.2 l -9.7,-24.7 c -0.5,-1.4 -1.7,-2.5 -3.2,-2.9 -0.3,-0.1 -0.8,-0.2 -1.3,-0.2 z m 78.1,-30.1 c -0.5,0 -1.1,0 -1.6,0.1 -1.9,0.2 -3,1.5 -3.4,2.2 -0.8,1.3 -0.9,2.8 -0.4,4.2 l 9.7,24.7 c 5.9,-6.1 14,-16.9 7.5,-24.9 -3.4,-4.2 -7.3,-6.3 -11.8,-6.3 z"
   id="path1265"
   inkscape:connector-curvature="0" /><path
   class="st4"
   d="m 2469.2,1134.4 c 25.8,16.7 60.6,9.9 78.1,-15.6 17.8,-25.9 11.1,-61.6 -14.8,-79.4 l -50.3,-34.5 c -25.9,-17.8 -61.6,-11.1 -79.4,14.8 -17.4,25.4 -11.3,60.3 13.4,78.4 -2.6,-3.4 -19.4,-26.7 -4.4,-38.4 7.4,-5.7 14.1,-5.6 19.2,-3.8 6,2.1 8.3,9.4 4.7,14.7 l -19.1,27.8 c 0,0 0.1,0.1 0.1,0.1 l -15.9,23.1 c -9.8,14.3 -6.2,34.1 8.2,43.9 v 0 c 14.3,9.8 34.1,6.2 43.9,-8.2 l 15.8,-23 c 0,0 0,0 0,0 l 19.2,-27.9 c 3.6,-5.2 11.2,-5.8 15.4,-0.9 3.5,4.1 6,10.4 3.3,19.3 -5.5,18.1 -33.4,10.8 -37.4,9.6 z"
   id="path1269"
   inkscape:connector-curvature="0" /><path
   class="st2"
   d="m 2426.9,1176 c -7.1,0 -14.3,-2.1 -20.7,-6.4 -8,-5.5 -13.4,-13.9 -15.2,-23.5 -1.8,-9.6 0.3,-19.4 5.8,-27.4 l 13.2,-19.2 c -11.2,-9.4 -18.6,-22.4 -21.1,-37 -2.8,-16.1 0.8,-32.3 9.9,-45.6 9.3,-13.6 23.5,-22.8 39.9,-25.9 16.4,-3 32.9,0.4 46.5,9.8 l 50.3,34.5 c 28.2,19.4 35.4,58.1 16.1,86.3 -18,26.2 -53.6,34.4 -81.1,19.3 l -13.2,19.2 c -7.3,10.4 -18.8,15.9 -30.4,15.9 z m -5.5,-75.8 c -0.1,0.4 -0.3,0.7 -0.5,1 l -15.9,23.1 c -4,5.8 -5.5,12.9 -4.2,19.9 1.3,7 5.2,13.1 11.1,17.1 12.1,8.3 28.7,5.2 37,-6.9 l 15.4,-22.4 c 0.1,-0.2 0.2,-0.4 0.3,-0.6 l 19.2,-27.9 c 2.6,-3.8 6.8,-6.2 11.4,-6.4 4.6,-0.2 8.9,1.6 11.8,5.1 3.9,4.6 7.8,12.4 4.3,24 -1.8,5.9 -5.4,9.9 -10.1,12.3 16.2,-0.4 32.1,-8.3 41.9,-22.5 16.3,-23.7 10.2,-56.2 -13.5,-72.4 l -50.3,-34.5 c -11.4,-7.8 -25.3,-10.7 -39,-8.2 -13.7,2.6 -25.6,10.3 -33.4,21.7 -9.7,14.1 -11.3,31.6 -6,46.8 0.7,-5.1 3.1,-9.9 7.8,-13.6 9.5,-7.4 18.3,-6.6 23.9,-4.6 4.3,1.5 7.6,4.9 9,9.2 1.4,4.4 0.8,9.2 -1.9,13 z m 55.6,30.9 c 8.3,1.4 21.8,2.1 24.8,-7.8 1.8,-5.9 1,-10.7 -2.4,-14.6 -1.3,-1.5 -2.9,-1.6 -3.7,-1.6 -1.5,0.1 -2.9,0.8 -3.7,2.1 z m -52.2,-71.3 c -3.3,0 -6.6,1.3 -9.9,3.9 -8.2,6.4 -2.7,18.7 1.6,26 l 15,-21.9 c 0.9,-1.2 1.1,-2.8 0.6,-4.2 -0.3,-0.8 -1,-2.3 -2.8,-2.9 -1.5,-0.7 -3,-0.9 -4.5,-0.9 z"
   id="path1271"
   inkscape:connector-curvature="0" /><path
   class="st4"
   d="m 2287.2,1204.9 c 30.7,1.6 57.5,-21.6 60,-52.4 2.5,-31.3 -21,-59 -52.3,-61.5 l -60.8,-4.9 c -31.3,-2.5 -59,21 -61.5,52.3 -2.5,30.7 20.2,57.9 50.6,61.3 -3.9,-1.7 -30.1,-13.5 -22.9,-31.1 3.5,-8.6 9.4,-11.9 14.7,-12.9 6.3,-1.2 11.9,4.1 11.4,10.4 l -2.7,33.6 c 0,0 0.1,0 0.1,0 l -2.3,27.9 c -1.4,17.3 11.6,32.6 29,34 v 0 c 17.3,1.4 32.6,-11.6 34,-29 l 2.2,-27.8 c 0,0 0,0 0,0 l 2.7,-33.8 c 0.5,-6.3 6.9,-10.6 12.9,-8.4 5.1,1.8 10.4,6 12.5,15.1 4.4,18.8 -23.5,26.3 -27.6,27.2 z"
   id="path1275"
   inkscape:connector-curvature="0" /><path
   class="st2"
   d="m 2253.1,1266.9 c -1,0 -2,0 -3,-0.1 -20.1,-1.6 -35.2,-19.3 -33.5,-39.4 l 1.9,-23.3 c -14.4,-2.6 -27.3,-10.2 -36.8,-21.6 -10.4,-12.6 -15.4,-28.4 -14.1,-44.5 2.7,-34.1 32.8,-59.7 66.9,-56.9 l 60.8,4.9 c 34.1,2.8 59.7,32.8 56.9,66.9 -2.6,31.7 -29.4,56.5 -60.8,57.1 l -1.9,23.3 c -1.5,19.1 -17.5,33.6 -36.4,33.6 z m -24.3,-67.8 c 0.1,0.4 0.1,0.8 0,1.2 l -2.3,27.9 c -1.2,14.6 9.8,27.5 24.4,28.7 14.6,1.2 27.5,-9.8 28.7,-24.4 l 2.2,-27.1 c 0,-0.2 0,-0.4 0,-0.7 l 2.7,-33.8 c 0.4,-4.6 2.8,-8.7 6.7,-11.3 3.8,-2.5 8.5,-3 12.8,-1.5 5.6,2 12.9,6.9 15.7,18.6 1.4,6 0.2,11.2 -2.6,15.7 13.9,-8.4 23.7,-23.2 25.1,-40.3 2.3,-28.6 -19.1,-53.8 -47.8,-56.1 l -60.8,-4.9 c -28.6,-2.3 -53.8,19.1 -56.1,47.8 -1.4,17 5.9,33 18.1,43.6 -2,-4.8 -2.2,-10.1 0.1,-15.7 4.6,-11.1 12.6,-14.8 18.5,-15.9 4.5,-0.8 9,0.5 12.4,3.5 3.5,3.1 5.2,7.6 4.8,12.2 z m 70.3,-31.8 c -1.1,0 -2,0.4 -2.5,0.8 -1.3,0.8 -2.1,2.2 -2.2,3.7 l -2.1,26.5 c 7.9,-2.9 20,-9 17.6,-19.1 -1.4,-6 -4.4,-9.7 -9.3,-11.5 -0.5,-0.3 -1,-0.4 -1.5,-0.4 z m -82.3,-6.7 c -0.3,0 -0.6,0 -0.9,0.1 -5.1,0.9 -8.7,4.2 -11,9.9 -3.9,9.6 7,17.6 14.4,21.7 l 2.1,-26.5 c 0.1,-1.5 -0.5,-2.9 -1.6,-4 -0.5,-0.4 -1.5,-1.2 -3,-1.2 z"
   id="path1277"
   inkscape:connector-curvature="0" />
</svg>
