<svg id="Flat" height="512" viewBox="0 0 512 512" width="512" xmlns="http://www.w3.org/2000/svg"><path d="m89.657 86.343-18.115-18.115-5.279-36.957a8 8 0 1 0 -15.839 2.263l2.262 15.838-11.313-11.313a8 8 0 0 0 -11.314 11.314l11.313 11.313-15.839-2.263a8 8 0 1 0 -2.262 15.84l36.958 5.28 18.114 18.114a8 8 0 0 0 11.314-11.314z" fill="#818a55"/><path d="m235.16 240.25-2.91 2.91a32 32 0 0 1 -43.7 1.46l-132.75-116.16a32 32 0 0 1 -1.55-46.71l19.5-19.5a32 32 0 0 1 46.71 1.55l3.9 4.45 10.54 12.05 21.13 24.15 10.54 12.05 70.05 80.05a32 32 0 0 1 -1.46 43.7z" fill="#fc8d36"/><path d="m256 128a8 8 0 0 1 -8-8v-72a8 8 0 0 1 16 0v72a8 8 0 0 1 -8 8z" fill="#818a55"/><path d="m452.69 138.51s-56.57 67.88-130.11 50.91c-16.97-73.54 50.91-130.11 50.91-130.11 5.66-5.65 39.6-28.28 90.51-11.31 16.97 50.91-5.66 84.85-11.31 90.51z" fill="#99a2a7"/><path d="m72 440h64v40h-64z" fill="#606669"/><path d="m376 440h64v40h-64z" fill="#606669"/><path d="m452.686 138.51-79.2-79.2c5.661-5.653 39.602-28.281 90.514-11.31 16.971 50.912-5.657 84.853-11.314 90.51z" fill="#757c80"/><circle cx="430.059" cy="70.627" fill="#606669" r="8"/><path d="m391.431 99.882h32a0 0 0 0 1 0 0v16a16 16 0 0 1 -16 16 16 16 0 0 1 -16-16v-16a0 0 0 0 1 0 0z" fill="#606669" transform="matrix(.707 .707 -.707 .707 201.275 -254.156)"/><circle cx="256" cy="168" fill="#e74444" r="72"/><path d="m256 104c-37.337 0-47.188-28.267-47.589-29.47a8 8 0 0 1 15.156-5.13c.333.917 7.051 18.6 32.433 18.6 25.934 0 32.349-18.345 32.411-18.53a8 8 0 1 1 15.178 5.06c-.401 1.203-10.252 29.47-47.589 29.47z" fill="#818a55"/><path d="m464 448h-416l24-112v-16h368v16z" fill="#99a2a7"/><path d="m488 304v32h-464v-32h120v-24h224v24z" fill="#7e8488"/><path d="m96 368h184v48h-184z" fill="#7e8488"/><path d="m348.8 409.6-23.467-17.6 23.467-17.6a8 8 0 0 0 -9.6-12.8l-19.2 14.4v-8a8 8 0 0 0 -16 0v48a8 8 0 0 0 16 0v-8l19.2 14.4a8 8 0 0 0 9.6-12.8z" fill="#606669"/><path d="m416 424h-40a8 8 0 0 1 -8-8v-48a8 8 0 0 1 8-8h24a8 8 0 0 1 0 16h-16v32h24v-16a8 8 0 0 1 16 0v24a8 8 0 0 1 -8 8z" fill="#606669"/><path d="m134.9 80.3-25.65 25.64a8 8 0 0 1 -11.31-11.31l26.02-26.02a3.334 3.334 0 0 1 .4-.36z" fill="#ba621e"/><path d="m166.57 116.5-23.37 23.38a8 8 0 0 1 -11.32-11.31l23.76-23.76q.2-.195.39-.36z" fill="#ba621e"/><path d="m464 160v48a96 96 0 0 1 -96 96h-224a96 96 0 0 1 -96-96v-48z" fill="#9ac6e5"/><g fill="#7da1bb"><path d="m48 184h288a8 8 0 0 1 0 16h-288z"/><path d="m464 184h-96a8 8 0 0 0 0 16h96z"/></g></svg>