<svg height="464pt" viewBox="-72 0 464 464" width="464pt" xmlns="http://www.w3.org/2000/svg"><path d="m80 288h96l-64 176-32-40-64 24zm0 0" fill="#a5181d"/><path d="m208 464 32-40 64 24-64-160h-96zm0 0" fill="#dc2027"/><path d="m320 160c0 88.367188-71.632812 160-160 160s-160-71.632812-160-160 71.632812-160 160-160 160 71.632812 160 160zm0 0" fill="#fb9e55"/><path d="m288 160c0 70.691406-57.308594 128-128 128s-128-57.308594-128-128 57.308594-128 128-128 128 57.308594 128 128zm0 0" fill="#fdd020"/><path d="m199.550781 224-39.550781-21.863281-39.550781 21.863281 7.550781-46.3125-32-32.800781 44.222656-6.75 19.777344-42.136719 19.777344 42.136719 44.222656 6.75-32 32.800781zm0 0" fill="#dc2027"/></svg>